<svg xmlns="http://www.w3.org/2000/svg" width="186" height="196"><defs><clipPath clipPathUnits="userSpaceOnUse" id="cp1"><path d="M0 0h186v196H0z"/></clipPath></defs><style>.shp0{fill:none;stroke:#6b6b6b;stroke-linecap:round;stroke-width:5}</style><g id="Page 1" clip-path="url(#cp1)"><path id="Path 1" class="shp0" d="M73.17 28.5v13M47.9 159.17s-2.92 18.5 0 34.33M89.38 28.48h26s10.17.67 7.84-8.5c-2.34-9.17-6.34-17.83-14.17-17.83H89.38l-.38.02H69.33C61.5 2.17 57.5 10.83 55.17 20 52.83 29.17 63 28.5 63 28.5h26l.38-.02zm15.84 0v13m45.66 106.67s4.34-8.34 4.34-30.67c0-22.33-10.84-50.17-12.84-57-2-6.83-5.83-14.17-18.82-16.83-12.98-2.67-34.18-2.17-34.18-2.17l-.38.02s-21.2-.5-34.18 2.17C41.83 46.33 38 53.67 36 60.5c-2 6.83-12.83 34.67-12.83 57s4.33 30.67 4.33 30.67m61.88 45.31h49.5c32.67-3.17 30.67-36.17 30.67-36.17 0-10.83-11.5-10.5-11.5-10.5-11 0-20.33 13.67-20.33 13.67-23.5-6.83-48.34-6.33-48.34-6.33l-.38.02s-24.83-.5-48.33 6.33c0 0-9.34-13.67-20.34-13.67 0 0-11.5-.33-11.5 10.5 0 0-2 33 30.67 36.17H89l.38-.02zm35.67-45.33s3.33-30.67-5.33-77.17c0 0-.84-6.83-8.17-7.83s-22.17-1.34-22.17-1.34l-.38.02s-14.83.34-22.17 1.34c-7.33 1-8.16 7.83-8.16 7.83-8.67 46.5-5.34 77.17-5.34 77.17m79.04 11s2.93 18.5 0 34.33"/><path id="Path 2" d="M7.25 28.48c-4 0-7.25 3.25-7.25 7.25s3.25 7.25 7.25 7.25 7.25-3.25 7.25-7.25-3.25-7.25-7.25-7.25zm0 98.5c-4 0-7.25 3.25-7.25 7.25s3.25 7.25 7.25 7.25 7.25-3.25 7.25-7.25-3.25-7.25-7.25-7.25zm171.25 7.25c-4 0-7.25 3.25-7.25 7.25s3.25 7.25 7.25 7.25 7.25-3.25 7.25-7.25-3.25-7.25-7.25-7.25z" fill="#6b6b6b"/><path id="Path 3" class="shp0" d="M172.22 137.86C102.95 74.89 13.76 38.91 13.76 38.91m.63 94.08s73.28-30.16 157.83 4.87"/></g></svg>