<svg xmlns="http://www.w3.org/2000/svg" width="189" height="189"><defs><clipPath clipPathUnits="userSpaceOnUse" id="cp1"><path d="M0 0h189v189H0z"/></clipPath></defs><style/><g id="Page 1" clip-path="url(#cp1)"><path id="Path 1" d="M186.5 94.5c0 50.81-41.19 92-92 92s-92-41.19-92-92 41.19-92 92-92 92 41.19 92 92zm-27.57-12.67s1.11 8.25-5.14 5.75-33.37-24.25-60.94-24.25h-.25c-27.57 0-54.68 21.75-60.93 24.25s-5.43-5.61-5.43-5.61l.22-1.11C32.7 50.04 59.94 26.85 92.6 26.85c31.87 0 58.58 22.09 65.66 51.79l.67 3.19zM28.58 115.75s-1.08-6.58 5.59-6.58c6.66 0 22.33-.34 28.5 2 6.16 2.33 13.83 10.33 14.83 17.5 1 7.16 2.67 25.16 2.67 25.16s.92 7.56-4.79 5.79l-1.56-.43c-20.74-6-37.37-21.67-44.68-41.82l-.56-1.62zm127.99 0s1.4-6.58-5.27-6.58c-6.66 0-22.33-.34-28.5 2-6.16 2.33-13.83 10.33-14.83 17.5-1 7.16-2.67 25.16-2.67 25.16s-.91 7.56 4.79 5.79l.93-.33c21.14-5.99 38.06-22.01 45.28-42.6l.27-.94zm-47.82-21.87c0 9.13-7.41 16.54-16.54 16.54-9.14 0-16.54-7.41-16.54-16.54 0-9.14 7.4-16.55 16.54-16.55 9.13 0 16.54 7.41 16.54 16.55z" fill="none" stroke="#2952ab" stroke-linecap="round" stroke-width="5"/></g></svg>