<svg xmlns="http://www.w3.org/2000/svg" width="213" height="187"><defs><clipPath clipPathUnits="userSpaceOnUse" id="cp1"><path d="M0 0h213v187H0z"/></clipPath></defs><style>.shp0{fill:none;stroke:#c3136a;stroke-linecap:round;stroke-width:5}</style><g id="Page 1" clip-path="url(#cp1)"><path id="Path 1" class="shp0" d="M54.03 150.52l-26.5-26.51c-7.39-7.39-7.39-19.48 0-26.87l59.46-59.46c7.39-7.39 19.48-7.39 26.87 0l26.51 26.5c7.39 7.39 7.39 19.48 0 26.87L80.9 150.52c-7.38 7.39-19.48 7.39-26.87 0zm65.03-107.64l12.69-12.69c8.34-8.34 21.99-8.34 30.33 0l3.21 2.57 3.56-3.57m-34.99 29.66l15.57-15.57 3.05 2.25c7.65 7.65 22.19 7.94 29.84.29l1.86-1.93m-57.04-9.08l15.33 15.43"/><path id="Path 2" d="M203.08 24.79l7.33-8.22-13.34-13.95-8.74 9.21" fill="none" stroke="#c3136a" stroke-linecap="round" stroke-linejoin="round" stroke-width="5"/><path id="Path 3" class="shp0" d="M36.72 132.78l-15.96 15.96c-4.16 4.16-10.97 4.16-15.14 0-4.16-4.17-4.16-10.98 0-15.14l15.96-15.96m37.22 37.77l-25.97 25.97c-4.16 4.16-10.97 4.16-15.14 0-4.16-4.17-4.16-10.98 0-15.14l25.97-25.97M5.62 133.6l15.14 15.14m-8.68-21.6l15.14 15.14m-8.74 23.17l15.14 15.14m-8.68-21.6l15.14 15.14m-16.22-73.31l53.37 53.37M91.97 32.71l53.37 53.37M98.33 53.33l-53.64 53.63m78.93-28.34l-53.63 53.64m41-66.27l-53.63 53.64M181.4 40.89l-8.07-8.07c-4.44-4.45-4.44-11.72 0-16.17l1.83-1.83c4.44-4.44 11.72-4.44 16.17 0l8.06 8.07c4.45 4.45 4.45 11.72 0 16.17l-1.82 1.83c-4.45 4.44-11.72 4.44-16.17 0z"/></g></svg>