<svg xmlns="http://www.w3.org/2000/svg" viewBox="0 0 137 44"><defs><clipPath clipPathUnits="userSpaceOnUse" id="cp1"><path d="M0 0h137v44H0z"/></clipPath></defs><style>.shp0{fill:#fff}</style><g id="Page 1" clip-path="url(#cp1)"><path id="Path 1" class="shp0" d="M11.28 12.38V23.8H6.87V7.04c0-5.34 3.76-8.22 11.7-7.19v4.08c-5.57-.65-7.29.6-7.29 3.39v.84h7.06v4.22zm99.66-11.33h4.41v4.27h-4.41zm21.08 21.08c-1.3 1.44-3.06 2.09-5.01 2.09-4.69 0-8.03-3.3-8.03-8.22 0-4.92 3.39-8.26 8.03-8.26 1.95 0 3.71.65 5.01 2.04V8.16h4.13V23.8h-4.13zm-98.74.18c-1.21 1.3-2.88 1.9-5.01 1.9-4.69 0-8.03-3.3-8.03-8.22 0-4.92 3.39-8.26 8.03-8.26 2.18 0 3.81.6 5.01 1.9V8.14h4.13v15.64h-4.13zm64.25-6.22c0 2.6 1.9 4.22 4.46 4.22 1.58 0 2.46-.46 3.39-1.16l1.95 3.2c-1.44 1.3-3.16 1.86-5.62 1.86-4.92 0-8.63-3.06-8.63-8.22 0-5.15 3.81-8.22 8.4-8.22 2.41 0 4.22.61 5.66 1.77l-1.9 3.34c-.98-.65-1.86-1.07-3.39-1.07-2.41 0-4.32 1.58-4.32 4.27zm-14.25 8.13c-5.39 0-8.96-3.2-8.96-8.26 0-4.87 3.25-8.17 8.03-8.17 4.46 0 7.15 2.65 7.57 7.43l-10.86 3.44c.84 1.25 2.37 1.86 4.23 1.86 2 0 3.25-.56 4.36-1.39l1.86 3.16c-1.44 1.25-3.53 1.95-6.22 1.95zM71.67 7.92v4.09c-4.08-.14-5.43.83-5.43 3.3v8.49h-4.41v-8.82c0-4.97 2.92-7.57 9.84-7.06zm39.27.24h4.41V23.8h-4.41zM49.76 24.22c-5.15 0-7.8-3.16-7.8-7.61V8.16h4.41v7.94c0 2.41.88 4.13 3.39 4.13 2.51 0 3.39-1.72 3.39-4.13V8.16h4.41v8.45c0 4.46-2.65 7.61-7.8 7.61zm28.6-8.82l6.82-2.32c-.37-.88-1.21-1.62-2.88-1.62-2.37 0-3.9 1.53-3.95 3.95zm49.29 5.06c2.37 0 4.32-1.76 4.32-4.6 0-2.55-1.95-4.32-4.32-4.32-2.46 0-4.18 1.63-4.18 4.5 0 2.55 1.72 4.41 4.18 4.41zm-98.73 0c2.37 0 4.32-1.76 4.32-4.64 0-2.51-1.95-4.27-4.32-4.27-2.46 0-4.18 1.63-4.18 4.5 0 2.55 1.72 4.41 4.18 4.41z"/><path id="Path 2" d="M0 12.38h4.04V8.15H0z" fill="#fff"/><path id="Path 3" class="shp0" d="M21.33 33.87h1.42v7.44h-1.42zm-.25-1.91c0-.53.38-.91.93-.91.54 0 .92.38.92.91 0 .52-.38.91-.92.91-.55 0-.93-.38-.93-.91zm3.84 3.14c0-.43 0-.82-.01-1.23h1.39v.92h.02c.34-.62 1.27-1.15 2.32-1.15 1.71 0 2.76 1.09 2.76 3.02v4.65h-1.42v-4.26c0-1.29-.45-2.17-1.76-2.17-1.28 0-1.88.96-1.88 1.9v4.53h-1.42zm8.22 4.98h3.02c.96 0 1.53-.06 1.53-.78 0-.62-.45-.72-1.39-.95l-.96-.24c-1.37-.34-2.32-.62-2.32-2.24 0-.64.21-1.09.55-1.39.48-.42 1.15-.61 2.15-.61h2.75l-.1 1.23h-2.71c-.88 0-1.3.09-1.3.72 0 .62.31.72 1.32.96l.99.24c1.26.31 2.38.61 2.38 2.15 0 .85-.31 1.34-.79 1.66-.57.35-1.29.47-2.24.47h-2.88zm7.45-4.98c0-.43 0-.82-.01-1.23h1.43c0 .3-.01.62-.01.95h.03c.48-.67 1.38-1.18 2.51-1.18 2.2 0 3.63 1.66 3.63 3.98 0 2.29-1.53 3.94-3.66 3.94-1.17 0-2.01-.48-2.52-1.12.01.33.03 1.1.03 1.83v1.59H40.6zm6.08 2.47c0-1.54-.89-2.69-2.38-2.69-1.49 0-2.38 1.16-2.38 2.69 0 1.6.88 2.76 2.38 2.76 1.49 0 2.38-1.16 2.38-2.76zm3.16-3.7h1.42v7.44h-1.42zm-.24-1.91c0-.53.38-.91.94-.91.54 0 .92.38.92.91 0 .52-.38.91-.92.91-.55 0-.94-.38-.94-.91zm3.84 3.14c0-.43 0-.82-.01-1.23h1.37v.95h.01c.24-.69.92-1.13 1.77-1.13.18 0 .28.01.38.03v1.3c-.13-.03-.35-.04-.51-.04-1.35 0-1.6 1.01-1.6 2.41v3.92h-1.42zm4.83-1.23h1.42v7.44h-1.42zm-.24-1.91c0-.53.38-.91.94-.91.54 0 .92.38.92.91 0 .52-.38.91-.92.91-.55 0-.94-.38-.94-.91zm3.84 3.14c0-.43 0-.82-.01-1.23h1.39v.92h.02c.34-.62 1.27-1.15 2.32-1.15 1.71 0 2.76 1.09 2.76 3.02v4.65h-1.42v-4.26c0-1.29-.45-2.17-1.76-2.17-1.28 0-1.88.96-1.88 1.9v4.53h-1.42zM70 42.71l.92-1.05c.66.61 1.52 1.08 2.68 1.08 1.34 0 2.46-.64 2.46-2.39 0-.16 0-.43.01-.58h-.03c-.5.58-1.47 1.15-2.58 1.15-2.12 0-3.54-1.56-3.54-3.64s1.5-3.63 3.57-3.63c1.15 0 2 .44 2.49 1.06h.01v-.84h1.35c-.01.4 0 .62 0 1.04v5.51c0 2.59-1.83 3.58-3.87 3.58-1.3 0-2.53-.44-3.48-1.29zm6.06-5.41c0-1.39-.91-2.44-2.37-2.44-1.42 0-2.29 1.08-2.29 2.44 0 1.35.88 2.39 2.29 2.39 1.44 0 2.37-1.08 2.37-2.39zm6.97-2.2c0-.43 0-.82-.01-1.23h1.39v.92h.02c.34-.62 1.23-1.15 2.28-1.15 1.09 0 1.9.45 2.35 1.27h.03c.34-.54 1.16-1.27 2.61-1.27 1.71 0 2.73 1.09 2.73 3.02v4.65h-1.42v-4.26c0-1.29-.42-2.17-1.73-2.17-1.28 0-1.84.96-1.84 1.9v4.53h-1.41v-4.26c0-1.29-.43-2.17-1.73-2.17-1.27 0-1.84.96-1.84 1.9v4.53h-1.42zm12.98 2.52c0-2.4 1.62-3.98 3.91-3.98 2.3 0 3.91 1.59 3.91 3.98 0 2.34-1.57 3.94-3.91 3.94s-3.91-1.6-3.91-3.94zm6.35-.01c0-1.56-.98-2.73-2.44-2.73s-2.44 1.17-2.44 2.73c0 1.59.96 2.72 2.44 2.72 1.47 0 2.44-1.13 2.44-2.72zm4.47 2.78v.92h-1.33V31.18h1.42v1.5c0 .75 0 1.39-.01 2.14h.03c.48-.67 1.37-1.18 2.51-1.18 2.2 0 3.63 1.66 3.63 3.98 0 2.29-1.53 3.94-3.65 3.94-1.17 0-2.07-.5-2.58-1.18zm4.75-2.82c0-1.54-.89-2.69-2.38-2.69-1.49 0-2.38 1.16-2.38 2.69 0 1.6.88 2.76 2.38 2.76 1.49 0 2.38-1.16 2.38-2.76zm3.16-3.7h1.42v7.44h-1.42zm-.24-1.91c0-.53.38-.91.93-.91.54 0 .92.38.92.91 0 .52-.38.91-.92.91-.55 0-.93-.38-.93-.91zm3.84-.78h1.42v10.13h-1.42zm3.6 2.69h1.42v7.44h-1.42zm-.24-1.91c0-.53.38-.91.94-.91.54 0 .92.38.92.91 0 .52-.38.91-.92.91-.55 0-.94-.38-.94-.91zm4.19 3.14h-.95v-1.23h.95v-2.03h1.42v2.03h2.11v1.23h-2.11v6.2h-1.42zm6.67 6.25l-2.85-7.48h1.5l1.43 4.04c.24.71.45 1.33.64 1.93h.03c.24-.69.4-1.25.65-1.97l1.43-4h1.52l-3.97 9.99h-1.44z"/></g></svg>