<svg xmlns="http://www.w3.org/2000/svg" viewBox="0 0 186 196" width="186" height="196">
	<defs>
		<clipPath clipPathUnits="userSpaceOnUse" id="cp1">
			<path d="M0 0L186 0L186 196L0 196Z" />
		</clipPath>
	</defs>
	<style>
		tspan { white-space:pre }
		.shp0 { fill: none;stroke: #6b6b6b;stroke-linecap:round;stroke-width: 5 } 
		.shp1 { fill: #6b6b6b } 
	</style>
	<g id="Page 1" clip-path="url(#cp1)">
		<path id="Path 1" class="shp0" d="M73.17 28.5L73.17 41.5M47.9 159.17C47.9 159.17 44.98 177.67 47.9 193.5M89.38 28.48L115.38 28.48C115.38 28.48 125.55 29.15 123.22 19.98C120.88 10.81 116.88 2.15 109.05 2.15L89.38 2.15L89 2.17L69.33 2.17C61.5 2.17 57.5 10.83 55.17 20C52.83 29.17 63 28.5 63 28.5L89 28.5L89.38 28.48ZM105.22 28.48L105.22 41.48M150.88 148.15C150.88 148.15 155.22 139.81 155.22 117.48C155.22 95.15 144.38 67.31 142.38 60.48C140.38 53.65 136.55 46.31 123.56 43.65C110.58 40.98 89.38 41.48 89.38 41.48L89 41.5C89 41.5 67.8 41 54.82 43.67C41.83 46.33 38 53.67 36 60.5C34 67.33 23.17 95.17 23.17 117.5C23.17 139.83 27.5 148.17 27.5 148.17M89.38 193.48L138.88 193.48C171.55 190.31 169.55 157.31 169.55 157.31C169.55 146.48 158.05 146.81 158.05 146.81C147.05 146.81 137.72 160.48 137.72 160.48C114.22 153.65 89.38 154.15 89.38 154.15L89 154.17C89 154.17 64.17 153.67 40.67 160.5C40.67 160.5 31.33 146.83 20.33 146.83C20.33 146.83 8.83 146.5 8.83 157.33C8.83 157.33 6.83 190.33 39.5 193.5L89 193.5L89.38 193.48ZM125.05 148.15C125.05 148.15 128.38 117.48 119.72 70.98C119.72 70.98 118.88 64.15 111.55 63.15C104.22 62.15 89.38 61.81 89.38 61.81L89 61.83C89 61.83 74.17 62.17 66.83 63.17C59.5 64.17 58.67 71 58.67 71C50 117.5 53.33 148.17 53.33 148.17M132.37 159.17C132.37 159.17 135.3 177.67 132.37 193.5" />
		<path id="Path 2" class="shp1" d="M7.25,28.48c-4,0 -7.25,3.25 -7.25,7.25c0,4 3.25,7.25 7.25,7.25c4,0 7.25,-3.25 7.25,-7.25c0,-4 -3.25,-7.25 -7.25,-7.25zM7.25,126.98c-4,0 -7.25,3.25 -7.25,7.25c0,4 3.25,7.25 7.25,7.25c4,0 7.25,-3.25 7.25,-7.25c0,-4 -3.25,-7.25 -7.25,-7.25zM178.5,134.23c-4,0 -7.25,3.25 -7.25,7.25c0,4 3.25,7.25 7.25,7.25c4,0 7.25,-3.25 7.25,-7.25c0,-4 -3.25,-7.25 -7.25,-7.25z" />
		<path id="Path 3" class="shp0" d="M172.22 137.86C102.95 74.89 13.76 38.91 13.76 38.91M14.39 132.99C14.39 132.99 87.67 102.83 172.22 137.86" />
	</g>
</svg>