<svg xmlns="http://www.w3.org/2000/svg" viewBox="0 0 213 187" width="213" height="187">
	<defs>
		<clipPath clipPathUnits="userSpaceOnUse" id="cp1">
			<path d="M0 0L213 0L213 187L0 187Z" />
		</clipPath>
	</defs>
	<style>
		tspan { white-space:pre }
		.shp0 { fill: none;stroke: #c3136a;stroke-linecap:round;stroke-width: 5 } 
		.shp1 { fill: none;stroke: #c3136a;stroke-linecap:round;stroke-linejoin:round;stroke-width: 5 } 
	</style>
	<g id="Page 1" clip-path="url(#cp1)">
		<path id="Path 1" class="shp0" d="M54.03 150.52L27.53 124.01C20.14 116.62 20.14 104.53 27.53 97.14L86.99 37.68C94.38 30.29 106.47 30.29 113.86 37.68L140.37 64.18C147.76 71.57 147.76 83.66 140.37 91.05L80.9 150.52C73.52 157.91 61.42 157.91 54.03 150.52ZM119.06 42.88L131.75 30.19C140.09 21.85 153.74 21.85 162.08 30.19L165.29 32.76L168.85 29.19M133.86 58.85L149.43 43.28L152.48 45.53C160.13 53.18 174.67 53.47 182.32 45.82L184.18 43.89M127.14 34.81L142.47 50.24" />
		<path id="Path 2" class="shp1" d="M203.08,24.79l7.33,-8.22l-13.34,-13.95l-8.74,9.21" />
		<path id="Path 3" class="shp0" d="M36.72 132.78L20.76 148.74C16.6 152.9 9.79 152.9 5.62 148.74C1.46 144.57 1.46 137.76 5.62 133.6L21.58 117.64M58.8 155.41L32.83 181.38C28.67 185.54 21.86 185.54 17.69 181.38C13.53 177.21 13.53 170.4 17.69 166.24L43.66 140.27M5.62 133.6L20.76 148.74M12.08 127.14L27.22 142.28M18.48 165.45L33.62 180.59M24.94 158.99L40.08 174.13M23.86 100.82L77.23 154.19M91.97 32.71L145.34 86.08M98.33 53.33L44.69 106.96M123.62 78.62L69.99 132.26M110.99 65.99L57.36 119.63M181.4 40.89L173.33 32.82C168.89 28.37 168.89 21.1 173.33 16.65L175.16 14.82C179.6 10.38 186.88 10.38 191.33 14.82L199.39 22.89C203.84 27.34 203.84 34.61 199.39 39.06L197.57 40.89C193.12 45.33 185.85 45.33 181.4 40.89Z" />
	</g>
</svg>