<svg xmlns="http://www.w3.org/2000/svg" viewBox="0 0 137 44">
	<defs>
		<clipPath clipPathUnits="userSpaceOnUse" id="cp1">
			<path d="M0 0L137 0L137 44L0 44Z" />
		</clipPath>
	</defs>
	<style>
		tspan { white-space:pre }
		.shp0 { fill: #fff } 
		.shp1 { fill: #fff } 
	</style>
	<g id="Page 1" clip-path="url(#cp1)">
		<path id="Path 1" class="shp0" d="M11.28,12.38v11.42h-4.41v-16.76c0,-5.34 3.76,-8.22 11.7,-7.19v4.08c-5.57,-0.65 -7.29,0.6 -7.29,3.39v0.84h7.06v4.22zM110.94,1.05h4.41v4.27h-4.41zM132.02,22.13c-1.3,1.44 -3.06,2.09 -5.01,2.09c-4.69,0 -8.03,-3.3 -8.03,-8.22c0,-4.92 3.39,-8.26 8.03,-8.26c1.95,0 3.71,0.65 5.01,2.04v-1.62h4.13v15.64h-4.13zM33.28,22.31c-1.21,1.3 -2.88,1.9 -5.01,1.9c-4.69,0 -8.03,-3.3 -8.03,-8.22c0,-4.92 3.39,-8.26 8.03,-8.26c2.18,0 3.81,0.6 5.01,1.9v-1.49h4.13v15.64h-4.13zM97.53,16.09c0,2.6 1.9,4.22 4.46,4.22c1.58,0 2.46,-0.46 3.39,-1.16l1.95,3.2c-1.44,1.3 -3.16,1.86 -5.62,1.86c-4.92,0 -8.63,-3.06 -8.63,-8.22c0,-5.15 3.81,-8.22 8.4,-8.22c2.41,0 4.22,0.61 5.66,1.77l-1.9,3.34c-0.98,-0.65 -1.86,-1.07 -3.39,-1.07c-2.41,0 -4.32,1.58 -4.32,4.27zM83.28,24.22c-5.39,0 -8.96,-3.2 -8.96,-8.26c0,-4.87 3.25,-8.17 8.03,-8.17c4.46,0 7.15,2.65 7.57,7.43l-10.86,3.44c0.84,1.25 2.37,1.86 4.23,1.86c2,0 3.25,-0.56 4.36,-1.39l1.86,3.16c-1.44,1.25 -3.53,1.95 -6.22,1.95zM71.67,7.92v4.09c-4.08,-0.14 -5.43,0.83 -5.43,3.3v8.49h-4.41v-8.82c0,-4.97 2.92,-7.57 9.84,-7.06zM110.94,8.16h4.41v15.64h-4.41zM49.76,24.22c-5.15,0 -7.8,-3.16 -7.8,-7.61v-8.45h4.41v7.94c0,2.41 0.88,4.13 3.39,4.13c2.51,0 3.39,-1.72 3.39,-4.13v-7.94h4.41v8.45c0,4.46 -2.65,7.61 -7.8,7.61zM78.36,15.4l6.82,-2.32c-0.37,-0.88 -1.21,-1.62 -2.88,-1.62c-2.37,0 -3.9,1.53 -3.95,3.95zM127.65,20.46c2.37,0 4.32,-1.76 4.32,-4.6c0,-2.55 -1.95,-4.32 -4.32,-4.32c-2.46,0 -4.18,1.63 -4.18,4.5c0,2.55 1.72,4.41 4.18,4.41zM28.92,20.46c2.37,0 4.32,-1.76 4.32,-4.64c0,-2.51 -1.95,-4.27 -4.32,-4.27c-2.46,0 -4.18,1.63 -4.18,4.5c0,2.55 1.72,4.41 4.18,4.41z" />
		<path id="Path 2" class="shp1" d="M0,12.38h4.04v-4.23h-4.04z" />
		<path id="Path 3" class="shp0" d="M21.33,33.87h1.42v7.44h-1.42zM21.08,31.96c0,-0.53 0.38,-0.91 0.93,-0.91c0.54,0 0.92,0.38 0.92,0.91c0,0.52 -0.38,0.91 -0.92,0.91c-0.55,0 -0.93,-0.38 -0.93,-0.91zM24.92,35.1c0,-0.43 0,-0.82 -0.01,-1.23h1.39v0.92h0.02c0.34,-0.62 1.27,-1.15 2.32,-1.15c1.71,0 2.76,1.09 2.76,3.02v4.65h-1.42v-4.26c0,-1.29 -0.45,-2.17 -1.76,-2.17c-1.28,0 -1.88,0.96 -1.88,1.9v4.53h-1.42zM33.14,40.08h3.02c0.96,0 1.53,-0.06 1.53,-0.78c0,-0.62 -0.45,-0.72 -1.39,-0.95l-0.96,-0.24c-1.37,-0.34 -2.32,-0.62 -2.32,-2.24c0,-0.64 0.21,-1.09 0.55,-1.39c0.48,-0.42 1.15,-0.61 2.15,-0.61h2.75l-0.1,1.23h-2.71c-0.88,0 -1.3,0.09 -1.3,0.72c0,0.62 0.31,0.72 1.32,0.96l0.99,0.24c1.26,0.31 2.38,0.61 2.38,2.15c0,0.85 -0.31,1.34 -0.79,1.66c-0.57,0.35 -1.29,0.47 -2.24,0.47h-2.88zM40.59,35.1c0,-0.43 0,-0.82 -0.01,-1.23h1.43c0,0.3 -0.01,0.62 -0.01,0.95h0.03c0.48,-0.67 1.38,-1.18 2.51,-1.18c2.2,0 3.63,1.66 3.63,3.98c0,2.29 -1.53,3.94 -3.66,3.94c-1.17,0 -2.01,-0.48 -2.52,-1.12c0.01,0.33 0.03,1.1 0.03,1.83v1.59h-1.42zM46.67,37.57c0,-1.54 -0.89,-2.69 -2.38,-2.69c-1.49,0 -2.38,1.16 -2.38,2.69c0,1.6 0.88,2.76 2.38,2.76c1.49,0 2.38,-1.16 2.38,-2.76zM49.83,33.87h1.42v7.44h-1.42zM49.59,31.96c0,-0.53 0.38,-0.91 0.94,-0.91c0.54,0 0.92,0.38 0.92,0.91c0,0.52 -0.38,0.91 -0.92,0.91c-0.55,0 -0.94,-0.38 -0.94,-0.91zM53.43,35.1c0,-0.43 0,-0.82 -0.01,-1.23h1.37v0.95h0.01c0.24,-0.69 0.92,-1.13 1.77,-1.13c0.18,0 0.28,0.01 0.38,0.03v1.3c-0.13,-0.03 -0.35,-0.04 -0.51,-0.04c-1.35,0 -1.6,1.01 -1.6,2.41v3.92h-1.42zM58.26,33.87h1.42v7.44h-1.42zM58.02,31.96c0,-0.53 0.38,-0.91 0.94,-0.91c0.54,0 0.92,0.38 0.92,0.91c0,0.52 -0.38,0.91 -0.92,0.91c-0.55,0 -0.94,-0.38 -0.94,-0.91zM61.86,35.1c0,-0.43 0,-0.82 -0.01,-1.23h1.39v0.92h0.02c0.34,-0.62 1.27,-1.15 2.32,-1.15c1.71,0 2.76,1.09 2.76,3.02v4.65h-1.42v-4.26c0,-1.29 -0.45,-2.17 -1.76,-2.17c-1.28,0 -1.88,0.96 -1.88,1.9v4.53h-1.42zM70,42.71l0.92,-1.05c0.66,0.61 1.52,1.08 2.68,1.08c1.34,0 2.46,-0.64 2.46,-2.39c0,-0.16 0,-0.43 0.01,-0.58h-0.03c-0.5,0.58 -1.47,1.15 -2.58,1.15c-2.12,0 -3.54,-1.56 -3.54,-3.64c0,-2.08 1.5,-3.63 3.57,-3.63c1.15,0 2,0.44 2.49,1.06h0.01v-0.84h1.35c-0.01,0.4 0,0.62 0,1.04v5.51c0,2.59 -1.83,3.58 -3.87,3.58c-1.3,0 -2.53,-0.44 -3.48,-1.29zM76.06,37.3c0,-1.39 -0.91,-2.44 -2.37,-2.44c-1.42,0 -2.29,1.08 -2.29,2.44c0,1.35 0.88,2.39 2.29,2.39c1.44,0 2.37,-1.08 2.37,-2.39zM83.03,35.1c0,-0.43 0,-0.82 -0.01,-1.23h1.39v0.92h0.02c0.34,-0.62 1.23,-1.15 2.28,-1.15c1.09,0 1.9,0.45 2.35,1.27h0.03c0.34,-0.54 1.16,-1.27 2.61,-1.27c1.71,0 2.73,1.09 2.73,3.02v4.65h-1.42v-4.26c0,-1.29 -0.42,-2.17 -1.73,-2.17c-1.28,0 -1.84,0.96 -1.84,1.9v4.53h-1.41v-4.26c0,-1.29 -0.43,-2.17 -1.73,-2.17c-1.27,0 -1.84,0.96 -1.84,1.9v4.53h-1.42zM96.01,37.62c0,-2.4 1.62,-3.98 3.91,-3.98c2.3,0 3.91,1.59 3.91,3.98c0,2.34 -1.57,3.94 -3.91,3.94c-2.34,0 -3.91,-1.6 -3.91,-3.94zM102.36,37.61c0,-1.56 -0.98,-2.73 -2.44,-2.73c-1.46,0 -2.44,1.17 -2.44,2.73c0,1.59 0.96,2.72 2.44,2.72c1.47,0 2.44,-1.13 2.44,-2.72zM106.83,40.39v0.92h-1.33v-10.13h1.42v1.5c0,0.75 0,1.39 -0.01,2.14h0.03c0.48,-0.67 1.37,-1.18 2.51,-1.18c2.2,0 3.63,1.66 3.63,3.98c0,2.29 -1.53,3.94 -3.65,3.94c-1.17,0 -2.07,-0.5 -2.58,-1.18zM111.58,37.57c0,-1.54 -0.89,-2.69 -2.38,-2.69c-1.49,0 -2.38,1.16 -2.38,2.69c0,1.6 0.88,2.76 2.38,2.76c1.49,0 2.38,-1.16 2.38,-2.76zM114.74,33.87h1.42v7.44h-1.42zM114.5,31.96c0,-0.53 0.38,-0.91 0.93,-0.91c0.54,0 0.92,0.38 0.92,0.91c0,0.52 -0.38,0.91 -0.92,0.91c-0.55,0 -0.93,-0.38 -0.93,-0.91zM118.34,31.18h1.42v10.13h-1.42zM121.94,33.87h1.42v7.44h-1.42zM121.7,31.96c0,-0.53 0.38,-0.91 0.94,-0.91c0.54,0 0.92,0.38 0.92,0.91c0,0.52 -0.38,0.91 -0.92,0.91c-0.55,0 -0.94,-0.38 -0.94,-0.91zM125.89,35.1h-0.95v-1.23h0.95v-2.03h1.42v2.03h2.11v1.23h-2.11v6.2h-1.42zM132.56,41.35l-2.85,-7.48h1.5l1.43,4.04c0.24,0.71 0.45,1.33 0.64,1.93h0.03c0.24,-0.69 0.4,-1.25 0.65,-1.97l1.43,-4h1.52l-3.97,9.99h-1.44z" />
	</g>
</svg>