<?xml version="1.0" standalone="no"?>
<!DOCTYPE svg PUBLIC "-//W3C//DTD SVG 1.1//EN" "http://www.w3.org/Graphics/SVG/1.1/DTD/svg11.dtd" >
<svg xmlns="http://www.w3.org/2000/svg" xmlns:xlink="http://www.w3.org/1999/xlink" version="1.1">
<metadata>
Created by FontForge 20170731 at Sun Jan  2 17:43:05 2011
 By Aleksey,,,
Copyright (c) 2011 by Daniel Midgley. All rights reserved.
</metadata>
<defs>
<font id="Daniel-Bold" horiz-adv-x="909" >
  <font-face 
    font-family="Daniel"
    font-weight="700"
    font-stretch="normal"
    units-per-em="1000"
    panose-1="0 0 0 0 0 0 0 0 0 0"
    ascent="630"
    descent="-370"
    x-height="332"
    cap-height="740"
    bbox="-254 -525 1757 1059"
    underline-thickness="50"
    underline-position="-200"
    unicode-range="U+0009-FB02"
  />
<missing-glyph horiz-adv-x="392" 
 />
    <glyph glyph-name=".notdef" horiz-adv-x="392" 
 />
    <glyph glyph-name=".null" horiz-adv-x="0" 
 />
    <glyph glyph-name="nonmarkingreturn" horiz-adv-x="333" 
 />
    <glyph glyph-name="HT" unicode="&#x9;" horiz-adv-x="282" 
 />
    <glyph glyph-name="CR" unicode="&#xd;" horiz-adv-x="282" 
 />
    <glyph glyph-name="space" unicode=" " horiz-adv-x="392" 
 />
    <glyph glyph-name="exclam" unicode="!" horiz-adv-x="220" 
d="M120 39q0 -54 -38 -54q-14 0 -35 27q-22 28 -22 40q0 31 46 31q13 0 30 -17q19 -16 19 -27zM236 784q-2 -9 -8.5 -37.5t-11.5 -48.5q-16 -72 -28 -132q-1 -4 -4 -19t-6.5 -33t-6.5 -38q-1 -6 -3.5 -26.5t-6 -46t-7.5 -53.5q0 -4 -20 -106q0 -10 -2 -70q-1 -7 -14 -15
q-12 -9 -19 -9q-49 0 -49 79q11 71 11 88q0 5 2 49q7 31 24 157q29 98 42 154q2 8 10.5 56t16.5 89q6 27 28 27q7 0 17 -5q8 -16 30 -31q0 -6 2 -15q3 -12 3 -14z" />
    <glyph glyph-name="quotedbl" unicode="&#x22;" horiz-adv-x="264" 
d="M129 788l-27 -157l-8 -10q-1 -2 -1.5 -8.5t-0.5 -9.5q-2 -3 -2 -8q-20 0 -33 -3q0 1 -19 26q-15 21 -15 23q0 23 11 51q0 2 -3 9l-3 9q0 20 6 36q3 19 38 105h16q41 -24 41 -63zM282 786q0 -37 -16 -133q-4 -22 -13 -58h-38q-9 13 -22 42q-5 17 -5 55q0 39 10 92
q12 67 32 75q52 -19 52 -73z" />
    <glyph glyph-name="numbersign" unicode="#" horiz-adv-x="786" 
d="M460 273q0 15 -14 15q-58 0 -84 -15q-10 -7 -23 -28q-14 -23 -14 -31v-27q4 0 8 -1q5 -2 9 -2q6 0 14 1l10 2h3q26 0 68 13q4 16 23 73zM752 178q-11 -8 -45 -22q-77 -20 -139 -20q-2 0 -4 2q0 1 -3 1q-16 0 -60 -25q-8 -5 -20 -39q-4 -4 -12 -40q-1 -3 -7 -7
q-8 7 -14 10q-3 0 -16 -7q-2 3 -15 6l-13 5q0 35 13 54q-1 4 -1 12q-1 10 -6 10q-12 0 -53 -7q-51 -9 -66 -16q-9 -6 -15 -37q-8 -36 -14 -41q-22 0 -66 15q-8 5 -8 14l6 23q6 19 3 27q-2 2 -5 2q-2 0 -7 -1t-17 -2.5t-24 -3.5q-38 -6 -43 -4q-33 19 -33 45q0 15 19 24
q14 7 30 7q2 0 44 9l24 4t16.5 3t5.5 1q8 0 25 23q17 21 17 32v19q-14 1 -73 -4l-66 -6q-30 0 -57 10q-5 12 -19 28l2 3l6 9l8 12q6 10 17 10q2 0 6 -2l5 -1q3 0 12 5q8 4 11 4q2 0 8 -3t7 -3q27 0 131 14q5 0 22 9q6 -1 12 0q22 19 43 55q10 18 22 38l11 19q21 48 36 48
q11 0 18 -9q27 -29 32 -32q0 -37 -4 -53q-6 -17 -33 -41q7 -10 34 -10q49 0 54 4q3 1 49 61q49 64 62 64q12 0 27 -19q16 -19 16 -30q0 -17 -44 -75q4 -13 37 -12q37 3 42 0q3 -2 28 -30q-28 -25 -48 -31q-12 -4 -59 -4q-5 0 -9 1l-8 2q-16 0 -25 -7q-24 -27 -24 -48l-5 -29
q0 5 20 7h14t36 0.5t49 0.5q1 0 13 -3q11 -3 13 -3q3 0 21 3q19 3 20 3q17 0 33 -31z" />
    <glyph glyph-name="dollar" unicode="$" horiz-adv-x="537" 
d="M355 246q3 5 -16 23q-18 17 -31 17q-8 0 -17 -8q0 -2 -6 -15l-6 -13v-24h46q10 0 30 20zM296 485v18q-9 3 -14 3q-77 0 -106 -20q46 -51 83 -65q37 31 37 64zM575 484q0 -12 -16 -34q-17 0 -42 4q-7 3 -22 11t-23 12q-37 20 -53 20q-15 0 -27 -12q-3 -3 -17 -28
q-36 -66 -36 -83q0 -7 1 -11q22 -17 27 -27q6 -3 15 -4q14 -11 37 -41q31 -58 31 -68q-1 -1 -3 -4q-2 -2 -3 -4q-15 -41 -77 -54q-37 -9 -104 -24q-12 -5 -19 -39q-12 -52 -12 -65q-11 -21 -16 -39q-2 0 -9 4q-8 4 -10 4q-3 0 -7 -3q-6 -3 -7 -3q-25 0 -25 30q0 1 5 9l5 7
q6 29 5 69q0 8 -9 29q-15 2 -52 3q-24 3 -48 15q-9 5 -18 20q-12 16 -12 23q1 0 12 18q80 -12 100 -12h1q1 0 2.5 0.5t4 1t5.5 0.5q7 1 14 1q17 0 22 24q3 17 5 29q5 5 12 16q12 27 12 56q0 4 -39 37q-52 45 -62 56q-45 49 -45 88q0 29 10 38q30 17 127 30h30q52 0 105 5
l48 63q48 62 57 62q14 0 27 -14q12 -14 12 -27q0 -11 -21 -48q-7 -13 -13.5 -25t-9.5 -17.5t-4 -7.5q25 -15 75 -35q36 -15 39 -32q8 -8 13 -9q2 -4 2 -15z" />
    <glyph glyph-name="percent" unicode="%" horiz-adv-x="861" 
d="M761 161q-76 29 -110 29q-108 0 -162 -19q-12 -12 -12 -25q0 -21 49 -36q39 -12 63 -12q46 0 101 19q52 19 71 44zM300 506q0 12 -10 27q-23 5 -79 12q-17 3 -53 14q-43 12 -44 12h-14l10 -30q-3 -5 -3 -13q0 -25 18 -46t41 -21h36q12 0 69 21q29 9 29 24zM665 525
q0 9 -16 -29q-2 -4 -4 -9q-8 -13 -32 -37q-79 -80 -342 -273q-30 -22 -79 -73l-39 -79q-3 0 -20 -4q-20 -5 -23 -5q-13 0 -27 29q-11 23 -11 36q0 27 38 65l50 50q-3 4 4 12q2 1 193 139q105 76 168 156l22 29q0 6 -9 11q-43 4 -58 4q-76 0 -102 -18q0 -5 6 -15
q-4 -27 -9 -51q-28 -25 -37 -44q-81 -48 -152 -48q-63 0 -112 29q-19 10 -28 27q-25 41 -25 101q0 15 25 47h54q5 14 0 26q0 2 -2 8t-3 10q0 37 25 44q9 3 64 3q4 0 68 -16t68 -16h1h4h6.5t9.5 0.5t12 0.5q14 0 43 0.5t45 0.5l121 2q10 0 41 -13q28 -11 33 -20
q29 -66 29 -80zM852 142q0 -21 -18 -42q-13 -14 -47 -39q-36 -16 -98 -33q-55 -16 -67 -16h-67q-51 0 -108 29q-30 24 -81 63q-7 7 -7 19q0 58 43 101q42 44 99 44q1 0 7 -2q4 -2 6 -2q4 0 21 9q3 1 8.5 4t8.5 5q15 6 96 6q61 0 142 -25q40 -42 51 -63t11 -58z" />
    <glyph glyph-name="ampersand" unicode="&#x26;" horiz-adv-x="672" 
d="M324 188q-4 14 -23 41q-18 25 -27 25q-2 0 -25 -16q-1 0 -31 -13.5t-47 -20.5q-13 -6 -33 -28q-26 -26 -26 -34v-15q8 0 17 -1q4 0 8 -0.5t6 -1.5h2q30 0 87 21q58 21 92 43zM521 555q0 15 -13 44q-18 36 -41 36q-22 0 -72 -41q-42 -34 -52 -48q-14 -26 -28 -70
q-14 -42 -14 -48q0 -42 17 -45q27 13 74 45q72 48 114 103q15 19 15 24zM648 264q-8 -8 -22 -29q-95 -28 -149 -74v-16q16 -5 22 -9q13 -18 48 -50q7 -4 19 -16q13 -19 13 -31q0 -34 -31 -34q-21 0 -34 10q-15 12 -79 70q-47 42 -51 42q-3 0 -45 -19q-8 -3 -15.5 -6.5
t-12 -5.5t-8.5 -3.5t-6 -2.5l-2 -1q-1 0 -5 2q-2 2 -4 2q-1 0 -28 -15q-24 -14 -31 -16q-75 -23 -112 -23q-95 0 -95 108q0 25 2 29q1 3 29 39q14 19 43 35q7 3 47 26l98 59q4 1 4 12q0 7 -7 57l-7 56q0 32 42 89q48 67 61 110q66 61 141 61q18 0 55 -34q32 -31 38 -41
q31 -50 31 -104q0 -53 -32 -88q-5 -7 -100 -82q-30 -18 -65 -41q-15 -6 -28 -12q-26 -12 -26 -23q0 -6 25 -37q27 -30 32 -30q61 25 184 64q12 7 12 9q14 0 32 -13q17 -11 17 -24z" />
    <glyph glyph-name="quotesingle" unicode="'" horiz-adv-x="103" 
d="M110 673q0 6 -3 -7l-14 -87q1 -3 3 -12t3 -15v-46q-2 -4 -9 -4l-12 5q-9 5 -13 5q-2 0 -4 -2q-4 -2 -6 -2q-8 0 -14 8q-8 19 -17 54q-3 15 -3 33q0 56 13 96q1 2 7.5 12t10.5 18h16q42 -43 42 -56z" />
    <glyph glyph-name="parenleft" unicode="(" horiz-adv-x="373" 
d="M400 759q-7 -9 -28 -26q-3 0 -13 -2q-146 -121 -208 -271q-7 -14 -24 -58q-1 -1 -2 -3t-2.5 -5.5t-2.5 -5.5q-2 -16 -6 -37q-5 -27 -5 -33q0 -82 57 -157q31 -42 121 -121q9 -28 9 -32q0 -3 -3 -12q0 -3 -0.5 -5t-0.5 -3l-1 -2h-41q-27 0 -97 67q-55 52 -74 78
q-7 13 -33 75q-16 59 -16 114q0 68 66 235q6 5 12 15q15 58 109 167q99 114 145 114q20 0 31 -38q8 -30 7 -54z" />
    <glyph glyph-name="parenright" unicode=")" horiz-adv-x="340" 
d="M302 384v-2q-1 -2 -2 -5.5t-2 -7.5q-2 -9 1 -26q-15 -72 -35 -128q-12 -40 -57 -94q-4 -4 -10.5 -12t-18.5 -22.5t-21 -25.5q-10 -10 -60 -53q-56 -49 -69 -49q-12 0 -14 1q-23 26 -23 39q0 23 21 45q168 174 193 260q11 37 11 116t-59 190q-44 85 -86 135q-12 13 -15 30
q0 17 -5 62q22 19 25 19q32 0 90 -94q37 -59 92 -155q44 -79 44 -223z" />
    <glyph glyph-name="asterisk" unicode="*" horiz-adv-x="417" 
d="M447 728q0 -17 -59 -43q-8 -5 -72 -43q0 -7 24 -52q31 -55 31 -67q0 -10 -16 -29q-3 -1 -30 -1q-6 0 -27 30q-22 30 -30 30q-4 0 -6 -2q-9 -37 -30 -114q-18 0 -31 -4q-4 7 -23 26q-2 64 5 90q4 17 -4 17h-10q-18 0 -116 -82h-28q-8 29 -11 32q-2 0 -2 -2q0 14 27 49
q17 22 55 43q29 16 58 33q22 13 22 22q0 3 -21 25q-30 31 -33 38q-8 15 -8 54q0 7 7 15q7 9 13 9q12 0 91 -66q6 4 39 56q33 54 48 60q37 -19 37 -63q0 -18 -10 -27v-9h-1q2 -2 7 -2q2 0 28 9l29 8q14 0 31 -15q16 -15 16 -25z" />
    <glyph glyph-name="plus" unicode="+" horiz-adv-x="485" 
d="M454 177q-9 -11 -24 -23q-14 -8 -48 -8q-80 0 -127 -10q-13 -4 -16 -16q-10 -44 -31 -99h-19q-37 0 -37 35q0 1 0.5 4t1 9t0.5 11t0.5 11t1 8.5t0.5 3.5q0 28 -27 28q-4 0 -8 -1q-2 0 -4 -0.5t-3 -1t-2 -0.5q-4 0 -22 3l-30 5q-11 8 -14 19q-3 7 2 22q-7 10 -7 13
q0 11 21 20q23 9 45 9q8 0 23 -1q6 0 12 -0.5t9 -1.5h3q24 0 29 12l31 85q1 3 4 8.5t5 7.5q9 10 28 10q42 0 42 -60q-12 -41 -12 -47q18 -3 69 -11t79 -12q9 -5 25 -32z" />
    <glyph glyph-name="comma" unicode="," horiz-adv-x="276" 
d="M185 24q0 -3 -21 -93q-19 -25 -57 -79q-5 -6 -39 -28q-37 -24 -49 -24q-18 0 -32 12t-14 27q0 5 36 52q3 4 12 15.5t19 24t20 25.5q29 37 35 69q1 6 10 57q9 11 18 26h16q46 0 46 -84z" />
    <glyph glyph-name="hyphen" unicode="-" horiz-adv-x="376" 
d="M308 215q0 -12 -19 -21l-16 -16q-10 -10 -41 -7q-17 -5 -46 -9q-11 1 -66 1l-66 8q-2 1 -23 13q-5 22 -5 32q0 46 47 46q77 0 85 -2q25 -4 77 -4l14 3q18 0 42 -8q17 -20 17 -36z" />
    <glyph glyph-name="period" unicode="." horiz-adv-x="242" 
d="M159 46q-22 -35 -59 -35q-64 0 -64 42q0 30 37 80h39q38 -42 38 -57q0 -27 9 -30z" />
    <glyph glyph-name="slash" unicode="/" horiz-adv-x="689" 
d="M738 786q0 -26 -21 -48l-30 -30q-9 -15 -29 -38q-135 -105 -218 -203q-296 -352 -330 -521h-50l-2 4q-2 4 -5 10.5t-7 14.5q-10 20 -10 28q0 25 29 100q25 63 36 81q19 28 72 111q36 57 169 219q33 41 122 143q14 16 144 127q82 70 100 70q9 0 21 -32q9 -28 9 -36z" />
    <glyph glyph-name="zero" unicode="0" 
d="M840 528q-33 55 -95 92q-63 38 -131 42q-30 9 -50 14q-58 5 -75 5q-27 0 -125 -13q-17 -7 -43 -14q-26 -9 -60 -28q-4 -13 -17 -35q-1 -1 -75 -73q-30 -29 -50 -80q-15 -41 -15 -60q3 -16 10 -49q9 -50 9 -53q0 -1 -10 -29q-9 -27 -9 -28q0 -5 12 -24q20 -36 75 -61
q54 -25 109 -25q11 0 27 2q5 0 9.5 0.5t7.5 0.5t5 0.5t3 0.5h2q29 0 128 29q152 47 223 97q56 39 98 110q43 71 43 127q0 42 -6 52zM901 358q-5 -8 -22.5 -33t-29.5 -43q0 -2 -1 -8t-2 -11q-17 -23 -47 -56q-2 -2 -155 -92q-14 -4 -34 -12t-16 -23l-214 -49l-12 -2
q-5 -1 -11 -1l-6 -4q-4 -4 -18 -4q-3 0 -13 3t-14 3h-2q-1 -1 -4 -1.5t-5 -0.5q-8 -1 -13 -1q-20 0 -173 53q-2 3 -72 83q-38 42 -50 85q-8 30 -8 80q0 98 66 195q24 35 128 142q35 35 141 59q91 22 166 22q39 0 98 -10q16 2 33 2q161 -39 193 -54q93 -42 110 -134l8 -24
q9 -25 9 -27q0 -69 -30 -137z" />
    <glyph glyph-name="one" unicode="1" 
d="M535 620l-62 -357q3 -56 6 -92q9 -87 8 -98l1 -1q1 -2 2.5 -4t4.5 -5v-44l-19 -15q-17 8 -30 9q-56 55 -62 132q0 5 -1.5 21.5t-3.5 48.5t-5 66l46 296q1 6 2 15.5t2.5 25t3.5 28.5q8 54 47 54q16 0 31 -12q10 -17 29 -68z" />
    <glyph glyph-name="two" unicode="2" 
d="M758 85l-40 -8v-6q-139 -8 -190 -29q-2 0 -11.5 -1.5t-33.5 -5t-46 -6.5q-96 -15 -178 -15q-7 0 -44 -3l-38 -3q-15 -1 -36 12q0 10 -19 25q2 7 -2 19l-4 15q0 4 2 12q128 92 192 147q8 7 22 19t38.5 34.5t44.5 39.5l46 50q9 4 25 15q52 47 122 143q46 86 46 123
q0 17 -17 27q-18 12 -41 12q-55 0 -271 -65q-15 -5 -86 -37q-7 -3 -29.5 -13t-37.5 -17q-4 -2 -9 -2q-14 0 -35 19t-21 32q0 21 26 32q2 1 41 16q27 16 92 44l163 48q98 28 162 28q34 0 40 -2q102 -38 111 -100q-1 -1 -6 -11q8 -8 8 -23q0 -40 -27 -95t-60 -85
q-9 -18 -17 -31q-33 -42 -109 -113q-3 -4 -212 -188q0 -6 -4 -18q-8 -4 -16 -11q13 -9 33 -9q2 1 6.5 2t8.5 2t11.5 2.5t13.5 3.5q35 10 59 14q150 19 307 19l23 -4q20 -4 29 -4q12 -8 12 -13q0 -29 -44 -37z" />
    <glyph glyph-name="three" unicode="3" 
d="M685 149q-46 -22 -63 -33q-60 -10 -229 -55q-51 -4 -125 -18q-15 -3 -66 -24q-43 -19 -48 -19q-8 0 -26 15q-17 15 -17 23h3h3h1v1q-3 -4 -5 0h-1q0 1 1 3q1 3 4 25q76 49 204 64q206 22 331 100q48 30 48 43q0 14 -39 37q-29 18 -48 23q-132 36 -167 38l-12 -8h-16
q-17 -1 -34 -1q-34 0 -86 9q-8 4 -23 13q0 5 6 32q4 18 7 29q25 14 73 32q130 47 190 85q55 36 118 100q4 6 12 27q-14 12 -57 12q-1 0 -8.5 -1t-25 -3.5t-36.5 -5.5q-17 -3 -35.5 -6t-25.5 -4t-8 -1q-12 0 -20 7l-2 -8q-25 -7 -112 -31q-13 -4 -82 -26q-53 -19 -61 -19
q-22 0 -35 24q-18 31 -26 35q1 2 9 12t13 16q121 41 148 48q59 14 171 36q102 21 113 21q3 0 11 -5q8 -3 9 -3q6 0 14 1q7 2 13 2q30 0 65 -14q24 -15 51 -31q0 -3 8 -22q8 -21 8 -25q0 -15 -11 -46q-9 -3 -15 -11q0 -24 -46 -62q-46 -37 -72 -48q-31 -27 -69 -53
q-21 -8 -68 -33q13 -13 94 -26q57 -15 90 -30q115 -47 115 -138q0 -46 -113 -103z" />
    <glyph glyph-name="four" unicode="4" 
d="M745 611q-34 -111 -52 -197q5 -4 17 -4q4 0 9 1q6 3 9 3q29 0 29 -30q0 -23 -23 -31q-45 -16 -49 -18q-11 -8 -14 -15q-11 -36 -23 -98q0 -49 -3 -139q7 -10 9 -17q-3 -25 -5 -35q-10 -8 -27 -26q-44 8 -58 30q-25 41 -25 88q0 49 16 137q5 10 9 20l8 45q0 15 -16 14
l-311 -23l-1 7q-2 -6 -6 -6q-1 0 -25 2q-33 3 -108 9q-31 36 -31 66q0 34 18 79l26 72q6 4 10 8q13 30 33 82q2 4 8 22.5t12 32.5q19 50 36 50t39 -17q22 -20 22 -31q0 -3 -8 -14q-3 -21 -23 -68q-6 -12 -30 -81q-30 -85 -30 -103q0 -21 18 -21h299q80 0 90 17q17 45 50 165
q7 22 21 79q2 3 65 114q22 39 43 56q37 -17 62 -32q-32 -60 -90 -193z" />
    <glyph glyph-name="five" unicode="5" 
d="M830 292h-4q1 0 1 -3h1l-4 -8q-4 -8 -20 -46q-48 -30 -92 -62q-1 -3 -1 -7q-1 0 -1 1l-2 -7q-10 0 -93 -40q-68 -32 -103 -46q-198 -80 -240 -80q-20 0 -34 13q-17 12 -17 29q0 24 36 41q78 24 228 87l90 38l10 5q21 9 108 64q35 29 35 41q0 20 -86 70q-18 12 -65 23
q-78 18 -82 18h-254q-18 0 -77 11q-60 10 -72 14q-13 22 -13 41q0 52 58 154q6 3 10 8q1 6 29 70q6 13 25 29q39 14 116 14q210 0 261 -6q57 -6 66 -6q2 0 14 4t15 4q22 0 39 -17q18 -17 18 -38q0 -47 -54 -47q-2 0 -23 3q-6 0 -11 0.5t-8 0.5l-2 1q-181 11 -303 11
q-38 0 -53 -13q-11 -8 -42 -67q-9 -10 -20 -26q-4 -13 -17 -50q78 -10 80 -10q6 1 16 2q4 0 9 0.5t8 1t4 0.5v-2l1 1h1l5 -1q7 -2 24 -6q165 -11 232 -25q129 -27 213 -94q15 -12 33 -53q7 -18 7 -40z" />
    <glyph glyph-name="six" unicode="6" 
d="M136 251q2 -79 117 -153q8 -5 44 -12q38 -8 52 -8q36 0 113 17q79 17 101 29q9 2 33 7t34 7q6 5 19 13q10 1 36 11q9 4 46 33q41 34 41 49q0 6 -8 13q-21 11 -76 42l-8 -7q-94 27 -124 27l-18 -2q-20 -3 -25 -2h-14q-50 0 -102 -23q-34 -16 -91 -76q-16 -14 -32 -35
q-1 -3 -1 -33q-25 -6 -29 -6q-8 0 -21 13q-12 14 -12 23q5 10 11 26q0 11 5 29q3 5 10.5 19t12.5 22q13 22 33 34q112 71 272 71q69 0 153 -13q102 -17 121 -44q6 -2 20 -13q18 -29 18 -49q0 -10 -46 -91q-16 -28 -18 -31l-4 -8h-1q1 -2 9 -10q-24 -1 -80 -25q-8 -5 -39 -23
l6 -7q-66 -11 -66 -31q-45 -4 -122 -15l-13 -5q-14 -6 -20 -6q-5 0 -9 3q-4 2 -5 2q-2 0 -35 -10q-34 -9 -39 -9q-1 0 -6 0.5t-16 1t-23 0.5l-45 1q-14 0 -44 10q-38 11 -59 24q-8 4 -115 92q3 7 -7 23l-8 14t-6 11l-3 6q-10 30 -10 83q0 71 29 138q14 34 46 71
q36 54 145 143q35 28 93 59q177 96 213 96q19 0 39 -14q21 -15 21 -30q0 -22 -22 -35q-10 -6 -69 -28q-4 0 -32 -7q-111 -55 -171 -97q-24 -27 -56 -56q-94 -88 -118 -168q-13 -48 -19 -63q-1 -4 -2.5 -9t-1.5 -6z" />
    <glyph glyph-name="seven" unicode="7" 
d="M232 647l-1 1q18 -1 80 8q72 11 79 11q269 21 323 21q62 0 62 -56q0 -39 -35 -74l-55 -55q-65 -67 -108 -137q-14 -10 -26 -21q-24 -42 -84 -133q-20 -39 -37 -70q-23 -43 -23 -71q0 -4 2 -18q-37 -49 -44 -57q-62 28 -62 59q0 19 26 63q-1 8 2 31q15 34 71 127
q3 4 19 31.5t30 50.5q16 28 89 110q57 64 95 114q0 10 6 25q-9 3 -31 3l-8 -1q-7 -1 -24.5 -4t-36.5 -6q-67 -12 -70 -12t-8.5 2t-8.5 2q-2 0 -9 -4q-9 -4 -12 -4t-15 -4t-18 -4q-3 0 -9.5 4t-7.5 4q-5 0 -25 -7l-29 -11q-65 -17 -118 -17q-27 0 -52 17t-25 39q0 13 21 28
q20 14 35 14q3 0 10.5 -4.5t8.5 -4.5l10 5q9 5 13 5z" />
    <glyph glyph-name="eight" unicode="8" 
d="M616 334q-75 21 -107 21q-152 0 -227 -31q-50 -20 -83 -59q-35 -38 -35 -74v-19q16 -22 36 -47q34 -27 104 -27h50q72 0 201 52q155 61 155 126q0 32 -94 58zM714 641q-26 15 -91 47q-1 0 -27 5q-43 5 -46 5t-8.5 0.5t-16 1t-18.5 0.5l-32 2q-50 1 -121 -25
q-24 -10 -41 -20q-68 -46 -89 -162q4 -2 26 -12q36 -22 80 -30q29 -4 111 -4q43 0 178 39q26 16 59 30q81 36 81 71q0 23 -45 52zM833 576q-5 -22 -5 -24q-3 -3 -8 -8.5t-7 -8.5q-13 -42 -76 -73l-93 -45q11 -9 63 -26q21 -6 52 -40q29 -34 29 -53q0 -6 -7 -28
q-5 -20 -7 -32q-4 -33 -35 -61q-29 -20 -59 -44q-10 -4 -20.5 -8.5t-11.5 -5.5q-22 -14 -31 -35q-19 1 -28 -1q-72 -32 -118 -49q-17 -3 -63 -15q-46 -11 -50 -11q-1 0 -5.5 0.5t-14.5 1t-21 0.5l-40 3q-51 2 -86 21q-56 29 -83 55q0 9 -6 23q-32 29 -32 91q0 37 21 80
q19 44 46 65q16 13 98 50v7q-47 17 -90 64q-44 47 -44 85q0 56 64 93q12 1 40 11q24 24 70 60q12 10 68 23l14 10q4 0 23 4t24 4q6 0 12 -1q3 0 7 -1q3 -1 4 -1l5 1q4 1 15 3l22 4q42 8 43 8t3.5 -0.5l7.5 -1.5t11 -2q17 -4 21 -4q7 0 17 1q11 2 20 2q36 0 113 -31
q79 -30 95 -51q8 -9 25 -45q14 -34 14 -43q0 -3 -6 -21z" />
    <glyph glyph-name="nine" unicode="9" 
d="M618 555q0 65 -47 88q-43 21 -53 21q-88 0 -122 -8q-30 -8 -64 -36q-36 -28 -36 -46q0 -29 56 -71q52 -38 74 -41q55 -2 97 -7q32 -5 57 -31q15 25 22 39q16 75 16 92zM706 597v-111q0 -4 -10 -23q-9 -21 -9 -23q0 -22 -15 -69q-53 -96 -92 -144q-42 -49 -62 -71
q-20 -24 -102 -98q-13 -12 -51 -29q-41 -18 -54 -18q-11 0 -23 9q-13 11 -13 18q0 6 14 20l21 21q22 21 146 154q3 3 53 57q21 31 43 68q-5 13 -22 13q-3 0 -50 -11q-14 0 -54 14q-70 25 -91 36q-51 26 -89 70q-12 15 -27 64q-15 48 -15 75q0 31 27 60q78 85 260 85
q89 0 165 -70q16 -14 21 -42q2 -2 7 -7.5t9 -9.5q3 -9 6.5 -19t5 -14t1.5 -5z" />
    <glyph glyph-name="colon" unicode=":" horiz-adv-x="267" 
d="M181 24q-49 -24 -80 -24q-5 0 -18 12q-4 3 -8.5 6t-6.5 5t-3 2q-11 27 -11 46q0 10 11 30q13 25 28 25q58 -8 64 -8q26 -23 26 -69q0 -7 -2 -25zM218 305q0 -61 -52 -61q-22 0 -41 25q-21 25 -21 48v2q1 2 1.5 5.5t0.5 7.5q3 12 3 14q3 1 17 6q15 6 23 6q26 0 48 -17
q21 -17 21 -36z" />
    <glyph glyph-name="semicolon" unicode=";" horiz-adv-x="339" 
d="M267 82q0 -20 -31 -52q-104 -111 -160 -144q-45 -40 -66 -40q-19 0 -49 24q10 18 41 60q13 12 64 63q12 12 34 47q5 2 20 13q26 34 58 69q14 17 37 17l21 -12q13 -7 23 -12q0 -5 4 -18zM266 251q0 -10 -7 -39q-31 -18 -35 -18q-23 0 -40 5l-28 58q0 38 47 59h20
q12 -20 31 -33q12 -8 12 -32z" />
    <glyph glyph-name="less" unicode="&#x3c;" horiz-adv-x="494" 
d="M530 497q0 -11 -2 -17q-32 -26 -195 -114q-140 -75 -140 -87q0 -6 83 -73q114 -93 133 -111q39 -36 39 -55q0 -53 -35 -53q-3 0 -18 7q-18 8 -21 8q-2 0 -6 -2l-4 -1q-7 0 -26 23q-24 28 -33 36q-63 55 -149 117q-53 28 -56 30q-43 27 -57 51q-11 18 -11 65q41 18 83 41
q89 50 179 98q39 20 101 61q61 41 67 41q24 0 46 -22q22 -24 22 -43z" />
    <glyph glyph-name="equal" unicode="=" horiz-adv-x="568" 
d="M522 154q0 -36 -98 -54q-9 -2 -113 -19q-22 -12 -56 -13q-19 -2 -61 1l-35 3q-121 7 -121 67q0 35 20 41q102 6 90 6q5 0 25 -4t25 -4l186 19l34 -2q8 -1 24.5 -1t24.5 -1q17 -1 36 -14q19 -12 19 -25zM540 296q0 -71 -376 -71q-76 0 -76 57q0 32 9 40q7 9 40 9
q51 0 92 -1l93 -3l1 1q1 0 2.5 0.5t4 1t4.5 1.5q12 5 13 5t11 -5q10 -4 11 -4t3 0.5t6.5 1.5t9.5 2l20 5q11 0 74 -6q14 -5 52 -15q6 -3 6 -19z" />
    <glyph glyph-name="greater" unicode="&#x3e;" horiz-adv-x="497" 
d="M468 273q0 -19 -108 -83q-11 -3 -26 -10q-100 -51 -184 -118q-4 -10 -20 -31q-56 -48 -63 -48q-9 0 -31 5q-6 2 -15 22t-9 29t19 37q16 25 28 35q45 37 103 80q15 10 96 52q45 22 80 56q-38 41 -118 118q-12 6 -34 23q-9 10 -72 69q-27 25 -27 64q0 46 25 46
q21 0 121 -95q49 -46 158 -151q19 -13 57 -45q20 -19 20 -55z" />
    <glyph glyph-name="question" unicode="?" horiz-adv-x="549" 
d="M223 70q-8 -6 -20 -45q-8 -28 -27 -28q-1 1 -20 10l-27 2q-25 19 -25 31q0 41 17 65l52 6q4 0 22 -16q17 -19 28 -25zM588 701q0 -81 -111 -157l-208 -115q-110 -62 -110 -109q0 -16 7 -30q2 -4 2 -28q-5 -5 -22 -5q-40 0 -59 40q-14 25 -14 54q0 41 10 62q12 28 65 58
q14 9 154 86l14 3q59 36 95 61q85 55 85 78q0 24 -44 30h-60q-4 0 -15 -4q-13 -3 -15 -3q-75 -4 -108 -18q-22 -9 -88 -40q-56 -25 -59 -25q-18 0 -36 15q-17 15 -17 28l6 46q12 6 123 54q13 6 110 26q91 19 110 19q63 0 83 -5q102 -33 102 -121z" />
    <glyph glyph-name="at" unicode="@" horiz-adv-x="806" 
d="M413 321l44 23q-1 0 -11 3t-14 3q-24 0 -73 -28q-2 -9 -7 -18h10q20 0 51 17zM699 393q0 44 -37 69q-37 26 -97 26q-87 0 -148 -41q119 -12 153 -69q16 -25 18 -45q-11 -11 -11 -27q0 -27 25 -27q44 0 70 32q27 30 27 82zM773 352q0 -16 -9 -40q2 -12 -3 -36
q-14 -39 -50 -65q-36 -27 -78 -27q-44 0 -96 26q-43 21 -43 25h2l-42 -14q-19 -6 -30 -9q-78 -24 -97 -24q-31 0 -41 6q-22 12 -35 50q-12 36 -12 53q0 30 41 79v14q-16 -5 -29 -10q-16 -9 -44 -29q-58 -66 -63 -73q-24 -34 -24 -76q0 -35 12 -50q16 -19 64 -49
q33 -21 115 -21l75 14q73 14 74 14h2q1 -1 3 -1.5t4 -0.5q6 -2 12 -2t35 8l18 4t13 3l4 1q30 0 30 -26q0 -19 -25 -35q-14 -9 -66 -27q-42 -15 -50 -15q-1 0 -3 -0.5t-6.5 -1t-8.5 -0.5t-8.5 -0.5t-7 -1t-3.5 -0.5q-10 0 -59 -4l-58 -4q-113 -7 -190 55q-67 54 -67 154
q0 5 12 46q0 16 7 40q37 63 110 133q14 14 113 62q17 10 37 20q33 11 87 27q69 31 211 31q40 -12 52 -19q51 -24 76 -65q0 -3 3 -20q2 -2 7 -7.5t8 -8.5z" />
    <glyph glyph-name="A" unicode="A" horiz-adv-x="783" 
d="M611 294q0 2 -12 26t-12 26q-24 111 -37 179q-2 3 -7 8q0 27 -2 47q-5 25 -10 48q-6 27 -29 45q-20 -26 -50 -97q-3 -14 -19 -30l-25 -27q-17 -33 -62 -110q-11 -9 -19 -19q-4 -12 -31 -63q2 -2 83 -14q57 -4 166 -18q29 -13 43 -13h18q5 8 5 12zM776 169q0 -39 -47 -39
h-39q-3 0 -30 18q-24 17 -35 22q-61 24 -119 36q-137 27 -220 27q-10 0 -17 -7l-10 7q-41 -1 -75 -72q-14 -16 -35 -44q0 -1 -7 -26q-5 -12 -18 -32q-20 -16 -59 -50q-19 13 -35 22q-18 13 -18 35q0 31 5 41q29 30 74 96q2 2 2 6q0 -4 -2 1l-6 30q-3 20 10 30q8 6 37 16
q34 14 44 31q2 1 41 66q7 6 32 33q48 82 144 231q2 12 7 26l65 109q0 2 2 22l34 47l14 6q43 0 67 -75q0 -1 26 -77q21 -67 31 -106q18 -110 34 -180q15 -64 63 -176q0 -1 8 -13t15 -24q17 -26 17 -37z" />
    <glyph glyph-name="B" unicode="B" horiz-adv-x="983" 
d="M543 55h17l-5 20q-7 -2 -17 -9q4 -5 5 -11zM861 316q0 74 -276 74q-2 0 -35 -9q-30 -10 -34 -10q-2 0 -105 -19q-61 -11 -96 -11q-1 0 -15 -3t-15 -3q-4 0 -36 7q-31 7 -48 4q-2 -12 -11 -56v-170q9 -37 32 -37q5 0 52 12q53 15 70 18q194 37 407 117q1 1 22 17
q88 37 88 69zM734 133h-18q-2 -4 11 -15q0 9 7 15zM816 713q0 14 -47 26q-40 10 -59 10q-223 0 -515 -116q2 -10 13 -49q9 -33 9 -36q0 -1 -3 -16q-2 -10 -2 -18q0 -3 -1 -15.5t-2 -22.5q-3 -20 9 -30h15q4 -1 46 12q27 9 60 16q13 8 23 13q10 0 27 3q92 32 169 61
q82 31 174 89q84 54 84 73zM980 286q0 -19 -16 -41q-12 -7 -33 -27q-6 -10 -21 -28q-133 -80 -160 -80q-4 0 -14 8q-4 -4 -12 -11q-12 -12 -16 -12q-2 0 -6 2t-5 2q-6 0 -15 -15h-39l9 8q-7 7 -23 7q-14 0 -28 -7l1 -1q1 -1 2.5 -2t4 -3.5t5.5 -4.5q-48 -29 -66 -29
q-3 0 -7 2q-4 1 -8 1t-20 -8l-21 -8q-19 0 -23 13q-3 -2 -8 -7q-7 -6 -11 -6q-1 0 -7 3l-8 2q-18 0 -18 -14q0 -6 1 -9l-232 -52q-44 11 -49 13q-25 9 -33 30q1 14 -2 53q-16 55 -16 150v3q-1 3 -1.5 8t-0.5 11q-3 18 -3 21q0 35 10 115q0 6 -3 15q5 20 16 97q9 69 9 80
q0 13 -8 26q-15 -4 -38 -4q-55 0 -55 53q0 31 17 40q70 41 240 98q11 1 32 3q239 66 413 66q6 -1 16 -4q17 -3 20 -3q56 0 141 -51q34 -50 34 -71q0 -62 -65 -119q-32 -27 -150 -101q0 -9 23 -12q38 -6 40 -7q17 -9 17 -10q3 0 7 2l4 2q8 0 18 -7q42 -6 94 -52t61 -84
q6 -27 6 -44z" />
    <glyph glyph-name="C" unicode="C" horiz-adv-x="962" 
d="M1030 97q-11 -9 -24 -16q-175 -52 -247 -52q-1 0 -15 3q-3 1 -6.5 2t-5.5 1.5t-3 0.5l-3 -1q-2 -1 -6.5 -2.5t-9.5 -3.5q-15 -7 -20 -7q-62 -3 -135 -7q-18 -6 -24 -6q-4 0 -9 4l-10 4q-4 0 -17 -6l-15 -5q-4 -1 -43 -1q-46 0 -101 13q-58 12 -98 20q-14 2 -20.5 7.5
t-5.5 15.5q-46 18 -65 32q-71 53 -119 133q0 14 -3 40q-6 23 -8 22q0 31 29 98q15 32 74 85q78 74 149 107q217 99 344 125q2 1 36 13q84 12 155 22l3 1l9 3t13 4q21 7 25 7q27 0 49 -18t22 -39q0 -12 -11 -32q-7 -6 -27 -16q-49 -2 -118 -11q-17 -7 -55 -17
q-20 -5 -65.5 -15.5t-69.5 -16.5q-96 -23 -293 -133q-30 -16 -59 -34q-54 -33 -86 -104q-5 -10 -5 -54q0 -48 57 -87q50 -37 110 -47q3 0 39 -9q32 -9 36 -9l27 2q19 2 40 2q8 0 32 -4t29 -4q14 2 43 6q41 7 55 7l401 26q19 1 23 -16v-4q1 -4 1.5 -12t0.5 -17z" />
    <glyph glyph-name="D" unicode="D" horiz-adv-x="1140" 
d="M1017 483q0 1 -3 24q-3 22 -3 26q-4 2 -5 6q-10 45 -86 101q-46 33 -101 48q-81 21 -260 31q-17 6 -19 6q-8 0 -19 -7q-89 0 -196 -14q0 -13 9 -25q12 -10 20 -19q11 -40 10 -61q0 -14 -10 -90q-9 -72 -14 -133l-7 -157q0 -3 5 -35q2 -7 4.5 -24t4.5 -26q3 -1 6.5 -2
t5.5 -1.5t3 -0.5q24 0 204 67q159 60 212 85q103 47 196 131q43 40 43 70zM491 49q-8 0 -28 -3q-33 -13 -101 -33q-159 -44 -230 -44q-10 0 -38 13q-25 12 -35 25q-9 12 -9 32q0 22 43 40l6 -2q4 -2 6 -2q8 0 19 7q30 3 72 10q39 8 59 16q-23 205 -23 228q0 3 1 12.5t4 33.5
t5 45q12 108 12 142q2 6 8 16q-4 9 -1 23q0 6 19 75q5 1 16 9q-14 9 -23 9q-3 0 -106 -24l-106 -23q-13 0 -32 22q-17 19 -17 25q0 25 39 46q13 8 96 31q106 29 157 29h346q2 0 29 -7l16 -4t13 -3t6 -1q47 -3 83 -10q74 -13 168 -71q92 -57 117 -118q8 -14 18 -43
q13 -36 13 -48l-7 -67q-4 -6 -10 -12q1 -1 1 -5q0 -35 -42 -71l-13 -7q-46 -53 -118 -99.5t-111 -63.5t-62 -25q-34 -10 -87.5 -32t-57.5 -23q-13 -5 -51 -21t-64 -27z" />
    <glyph glyph-name="E" unicode="E" horiz-adv-x="919" 
d="M985 709q-31 -14 -48 -14q8 0 -2 -3l-25 -5l-24 2h-13l-13 -5q-9 -4 -14 -4q-51 -3 -109 -13l-138 -20l-8 2l-10 2q11 0 -282 -48q-39 -48 -54 -171q20 -10 44 -10q1 0 2.5 0.5t5 1.5t6.5 2q11 4 14 4t12 -3t10 -3q71 0 239 5l151 5q22 0 25 -10l3.5 -17.5t3.5 -19.5
q-26 -19 -107 -38q-64 -17 -194 -17q-80 0 -235 -21q-16 -3 -22 -23l-5 -25q-34 -84 -34 -114v-22q2 -1 7 -2t8 -2l376 51q12 0 66 4h8l56 4q5 0 16 -7q6 -1 72 -1q1 0 4 0.5t10 1.5l14 2l26 4q31 0 65 -14q9 -31 11 -29q0 -15 -20 -32q-19 -16 -37 -16h-1q-1 0 -2.5 0.5
t-4 1t-4.5 0.5q-7 2 -13 2q-3 0 -23 -7l-8 -2t-6.5 -2t-5 -1.5t-3.5 -1t-2 -0.5l-205 -18q-54 -5 -243 -34l-154 -24q-14 0 -72 14q-52 14 -71 14q-6 18 -6 19q0 2 21 66q26 76 32 98l25 90q0 -3 -7 8l-15 23q0 9 -10 36q22 13 62 48q8 9 36 115l-1 23l6 7q7 7 7 12
q0 10 -21 20q-19 10 -34 10q-10 38 -10 49q0 24 29 35q61 22 147 22q2 0 6 -2q3 -2 5 -2q6 0 16 5l10 4l4 1q50 2 313 17l196 12q11 1 81 -27q3 -1 35 -1q19 -1 30 -12z" />
    <glyph glyph-name="F" unicode="F" horiz-adv-x="862" 
d="M887 649q-1 -4 -2 -12q-2 -8 -2 -15q-59 5 -204 5q-3 0 -11 -4l-6 -2l-4.5 -1.5t-2.5 -0.5h-1q-1 0 -2.5 0.5t-4.5 1t-6 0.5q-12 3 -15 3l-14 -5q-7 -1 -15 -3q-36 -6 -124 -13q-1 0 -19 -5q-16 -6 -19 -6q-1 0 -11 2t-11 2q-47 -13 -118 -34q-9 -1 -24 -37q0 -2 -4 -15
t-6 -23q-22 -54 -34 -90v-26q71 -6 200 11q44 7 204 13l9 -8q13 8 26 8q-3 0 21 -12v-14q0 -4 -10 -32q-8 -1 -76 -10q-77 -12 -77 -14q0 -1 4 -1q-2 0 -10 2q-2 0 -4 0.5t-4 1.5h-1q-3 0 -14 -9q-12 -9 -13 -9q-5 -2 -147 -25l-32 -6q-19 -5 -25 -5q-18 0 -70 -3
q-11 -5 -20 -16q-11 -73 -18 -142q0 -24 -1 -51q-1 -45 -30 -45q-9 3 -15 6q-42 6 -65 26l27 221l-72 40q1 2 2.5 6.5t3.5 8.5t5 11.5t5 13.5q15 33 36 33l2 -1q1 0 3.5 -0.5t5.5 -0.5q7 -1 14 -1q26 0 36 29q4 29 5 39q18 62 32 94q-3 5 -45 25q-33 13 -33 42q0 28 29 40
q22 3 87 19q4 2 11.5 6.5t11.5 6.5q20 13 26 13q11 0 21 -7q5 0 12 1q3 0 6.5 0.5t5 1t2.5 0.5l252 28q61 0 63 -1q-9 -3 -17 -3q4 0 21 4q5 1 11 2t8.5 1.5t3.5 0.5h2q2 -1 5.5 -1.5t6.5 -0.5q2 0 5 -0.5t5 -1t3.5 -0.5h2.5h2q2 1 5 2l6 2q11 4 14 4l54 1q-10 1 -18 1
q39 0 129 -21q25 -22 25 -46z" />
    <glyph glyph-name="G" unicode="G" horiz-adv-x="1101" 
d="M1086 218q0 -4 -8 -15q0 -15 -9 -42q-52 -64 -150 -90q-19 -5 -163 -40q-12 0 -37 -3q-24 -10 -29 -10q-2 0 -12 3q-8 4 -12 4q5 0 -4 -3q-7 -2 -26 -7q-60 -17 -103 -17q-205 0 -350 88q-41 32 -100 75q-71 107 -71 126q0 59 21 116q13 35 63 120q52 65 87 90
q60 46 160 108q24 7 82 26q25 12 69 29q170 41 196 41q5 0 14 -4t12 -4l10 2q2 0 5 1q2 1 3 1h2q66 0 66 -56q0 -50 -29 -50q-1 0 -5 0.5t-14.5 2t-20.5 2.5q-38 6 -41 6q-27 0 -91 -19q-18 -2 -79 -14q-10 -7 -36 -21q-88 -28 -192 -99q-120 -84 -155 -172q-30 -45 -30 -88
q0 -32 36 -74q34 -40 82 -62q17 -14 49 -29q4 -1 31.5 -7.5t52.5 -12.5q51 -12 83 -12h68q53 0 178 22q109 20 128 26q4 1 32 11.5t54 19.5q49 17 72 38q10 12 10 37q0 16 -15 40q-16 23 -33 32q-21 15 -78 41q-40 9 -118 10q-2 8 -15 17l-101 6l-70 -10q-15 -2 -29 -14
q-15 14 -15 31q0 11 15 22q30 17 46 20q116 22 200 17h2q3 1 7 2t9 2q16 4 20 4q9 -2 25 -8q22 -7 29 -7q75 0 134 -49q88 -73 88 -200z" />
    <glyph glyph-name="H" unicode="H" horiz-adv-x="926" 
d="M874 668q0 -23 -29 -64q-72 -104 -93 -306q-1 -7 -16 -146q-7 -52 -10 -114l-6 -4q-2 -24 -2 -34q-5 -20 -15 -29q-15 -5 -18 -5q-15 0 -42 36q-9 11 -7 40l19 295q-4 2 -9 2q-2 0 -25 -10l-27 -12q-99 -25 -199 -25h-3q-4 1 -11.5 1.5t-15.5 0.5t-15.5 0.5t-11 1
t-4.5 0.5q-4 0 -56 -6q-44 -5 -54 -5q-8 0 -21 1q-6 0 -11 0.5t-7.5 1t-3.5 0.5q-46 0 -49 -6q-26 -44 -23 -98q3 -81 -21 -104q-67 7 -67 134q0 80 10 136q4 26 27 107q20 27 44 70q14 39 24 58q13 29 25 39q9 -9 38 -9l14 -78q0 -3 -25 -56t-25 -56v-27q20 -5 40 -6
q14 -2 36 1q16 1 32 1q7 0 14 -2l13 -5h116l33 3q35 3 43 3h41q24 -1 56 -1l64 -1q33 0 41 57q6 45 6 47q4 35 19 76q25 67 64 122q6 8 32 33q25 20 31 20q1 0 3.5 -1.5t7 -4.5t9.5 -5q20 -43 20 -67z" />
    <glyph glyph-name="I" unicode="I" horiz-adv-x="269" 
d="M214 662q0 -4 -22 -116q-24 -114 -39 -162q0 -2 -2 -12t-5 -28t-7 -39q-24 -135 -53 -271q-12 -9 -23 -17q-7 4 -24 21q-10 17 -10 110q0 386 78 520q40 72 68 72q39 0 39 -78z" />
    <glyph glyph-name="J" unicode="J" horiz-adv-x="787" 
d="M738 415q0 -27 -9 -38q7 -28 7 -50q0 -27 -32 -163q-14 -58 -55 -99q-61 -64 -203 -64q-140 0 -259 61q-63 31 -136 102q-30 30 -30 61q0 15 29 40h16q15 -30 37 -43q35 -15 63 -29q26 -17 105 -54q72 -22 116 -19q6 0 19 1q30 0 46 1l65 1q19 0 51 27q10 10 35 54l11 12
q22 67 27 95q1 5 2 15t3.5 27.5l4.5 31.5v91q0 56 -20 207q0 1 -15 31q-11 24 -11 35q0 22 7 29l41 30q34 -22 55 -108q7 -27 20 -152q10 -122 10 -133z" />
    <glyph glyph-name="K" unicode="K" horiz-adv-x="784" 
d="M263 610q0 -22 -20 -73q-49 -122 -59 -201q-8 -6 -16 -19q-31 -129 -64 -295q-12 -8 -54 -29l-29 51q0 2 3 13t3 13v70q21 130 105 398q2 6 16 24q4 6 -2 18q11 37 17 51q16 36 52 59q5 -4 10 -4t9 4q29 -46 29 -80zM810 662q0 -40 -11 -46q-45 -28 -286 -169
q-4 -2 -17 -9t-30 -16.5t-35 -20.5q-104 -61 -104 -93q0 -21 47 -46q40 -23 56 -27q126 -36 287 -87q21 -7 21 -25q0 -44 -87 -44q-38 0 -89 15q-19 2 -46 6q-216 60 -286 157q-18 25 -23 48q-11 28 -12 25q5 5 17 21q2 12 8 23q24 30 131 99q7 8 28 26q17 12 141 82
q29 11 68 27q7 4 35 20.5t51 29.5q79 47 107 47q14 0 23 -21q6 -15 6 -22z" />
    <glyph glyph-name="L" unicode="L" horiz-adv-x="847" 
d="M906 130v-22q-22 -13 -48 -35q-43 -13 -63 -13q-42 0 -194 -16q-140 -16 -193 -21q-33 -8 -65 -13q-71 -9 -141 -9q-40 0 -102 21q-32 11 -50 28q-33 28 -33 44q15 57 15 68q1 11 6 47q32 94 48 145q6 8 21 32q25 66 58 142q13 31 113 212q5 3 20 16l36 50q24 35 45 35
q13 0 23 -15q2 -11 4 -20.5t3.5 -15.5t2 -11t0.5 -7l1 -1q0 -12 -2 -21q-15 -18 -42 -51q-5 -14 -49 -93q-10 -12 -24 -33q-40 -84 -98 -216q-1 -4 -14 -52q-17 -26 -34 -62q-19 -67 -19 -87q0 -36 102 -36q7 0 156 15l157 16l2 -1q2 0 6.5 -0.5t8.5 -0.5q15 -3 17 -3
q1 0 4 1t10 2.5t14 3.5q26 6 27 6q-11 0 78 -3t114 -3z" />
    <glyph glyph-name="M" unicode="M" horiz-adv-x="962" 
d="M1030 772q0 -16 -19 -93q-21 -31 -35 -60q-12 -53 -31 -110q-3 -8 -7.5 -21.5l-13 -39t-15.5 -45.5q-7 -52 -19 -102q-28 -119 -28 -154q0 -1 9 -55t9 -56v-1q0 -1 -0.5 -3t-1 -4.5t-1.5 -6t-2 -7.5q-11 -6 -21 -6q-7 0 -28 15q-22 16 -27 26q-26 42 -23 150l-5 13v-1
q2 7 5 21q2 8 5 31q15 111 68 259q-3 13 -5 13l23 72q-27 -18 -87 -99l-5 -10t-9 -18.5t-11 -21.5q-46 -82 -200 -284q-12 -14 -47 -45q-46 -42 -62 -42q-77 0 -77 223v198q-16 -8 -68 -85q-23 -46 -103 -201q-6 -12 -37.5 -73t-58.5 -112q-9 -18 -28 -18q-57 0 -57 70
q0 19 88 177q83 145 149 245q0 10 7 25q15 21 60.5 83.5t75.5 104.5q28 3 58 -19q27 -21 27 -48v-96q-3 -3 -7 -8q-1 -6 -9 -141q0 -4 -1.5 -18t-2.5 -24q0 -8 -0.5 -16.5t-1 -12.5t-0.5 -6q5 -72 5 -76q1 -3 9 -3q10 0 30 24q7 10 21 28q24 36 91 128q9 12 48.5 64.5
t71.5 96.5q90 126 167 195q26 31 43 50q19 -3 55 -17q1 -3 15 -27q14 -22 14 -26z" />
    <glyph glyph-name="N" unicode="N" horiz-adv-x="948" 
d="M934 768q0 -10 -34 -92q0 -17 -4 -40q-1 -5 -7 -23.5t-11 -31.5q-14 -28 -43 -94q-7 -19 -27 -87q-3 -22 -12 -63l-53 -117q-32 -68 -38 -115q-17 -45 -17 -51q0 -5 4 -13q-3 -1 -39 -16q-25 -12 -29 -12q-10 0 -29 12q-19 11 -25 21q-34 57 -112 248q-4 26 -23 82
q-4 7 -19 40q-1 26 -8 51q-11 43 -61 144q-21 -8 -43 -57q-16 -42 -51 -126q-36 -60 -84 -150q-13 -34 -48 -115q-15 -11 -31 -35q-5 -1 -13 -1q-20 0 -39 22q-21 23 -21 41l161 324q12 25 80 151q7 21 25 64q19 43 52 43q21 0 40 -19q26 -26 38 -50q36 -79 72 -184
q3 -7 31 -114q1 -2 4.5 -6.5t5.5 -8.5q25 -76 29 -86q20 -56 49 -102q15 19 44 76q42 83 79 170q18 67 58 180q3 3 10.5 13t12.5 16q3 21 4 26q21 37 23 41q11 7 30 28q5 17 23 43q4 2 12 2q34 0 34 -29z" />
    <glyph glyph-name="O" unicode="O" horiz-adv-x="1132" 
d="M1017 464q0 42 -39 93q-24 33 -109 67t-131 34q-6 0 -19 -2t-19 -2q-4 0 -64 12q-6 -1 -18.5 -5.5t-18.5 -6.5q-12 -3 -29.5 -4.5t-38.5 -1.5t-30 -1q-2 0 -12.5 3.5t-12.5 3.5q-7 -3 -20 -10t-17 -9q-10 -4 -28 -8t-39.5 -8.5t-29.5 -6.5q-71 -18 -104 -45
q0 -3 2.5 -9.5t2.5 -9.5q0 -13 -41 -39q-43 -25 -72 -66q-35 -53 -35 -91l6 -5q0 -3 -0.5 -9.5t-0.5 -10.5q0 -62 34 -110t87.5 -75t112 -40.5t115.5 -13.5q134 0 334 105q43 23 74.5 43t68.5 50.5t58 67.5t24 78q0 5 4.5 16t4.5 16zM1095 383l-31 -50l5 -9l-1 1
q-1 0 -3.5 -6t-2.5 -7q-2 -6 -7 -17t-8 -17l-16 -16q-21 -29 -25 -33q-66 -70 -241 -160q-45 -23 -154 -54q-125 -34 -176 -34q-32 0 -119 30q-59 20 -102 40t-83 49t-65 64.5t-39.5 84.5t-14.5 110q0 8 6 23.5t7 21.5q2 9 4 27.5t3 28.5q6 7 39 59t102 117q3 4 29 12
q10 8 22 16q2 2 71.5 25.5t79.5 26.5q48 11 142.5 20t150.5 9q202 0 333 -93q86 -61 86 -196q0 -33 -4 -60q12 -5 12 -13z" />
    <glyph glyph-name="P" unicode="P" horiz-adv-x="806" 
d="M623 668q-57 22 -89 22q-45 0 -126 -9q-21 -6 -70 -16q-34 -1 -120 -29q43 -21 43 -51q0 -19 -46 -139q-2 -26 -12 -77h20q13 0 236 84l20 10q7 4 192 114q19 37 19 38q0 28 -67 53zM777 537q-100 -134 -401 -225q-6 -6 -11 -10q-17 -5 -152 -43q-30 -8 -38 -29
q0 -105 -17 -175q-3 -29 -14 -59h-23q-13 6 -31 29q-14 19 -19 37v97q-6 65 -30 84q-4 4 -4 29q0 28 16 32q17 3 28 24q13 60 21 98q4 6 15 31q26 116 71 171h-2q-3 -1 -5 -1q-13 -6 -85 -39l-1 -2q-1 -1 -3 -4t-5 -8q-23 -10 -28 -10q-23 0 -45 55q0 10 15 33q14 23 22 30
q19 9 56 28q1 0 7 1t10 2q28 20 92 35q107 25 162 31q92 12 119 12q58 0 177 -37q21 -6 30 -22q7 -1 26 -8q18 -18 39 -46q26 -50 26 -71q0 -46 -18 -70z" />
    <glyph glyph-name="Q" unicode="Q" horiz-adv-x="1122" 
d="M960 590q-29 40 -105 66q-69 25 -72 25h-116q-6 0 -16 5l-8 4q-1 0 -2 -1t-3 -1l-17 -7q-15 -2 -120 -2q-1 0 -1 -0.5t-1 -0.5l-7 -4q-8 -6 -15 -6q-1 0 -7 2l-2 2q-8 0 -49 -17q-42 -18 -73 -40q-66 -48 -116 -130q0 -2 -1.5 -6.5l-4 -12l-4.5 -13.5q-6 -18 -1 -35
q-8 -13 -14 -30q0 -7 7 -37q-8 -24 -17 -47q-14 8 -22 28q-9 18 -9 27v122l8 36q5 19 7 34l-6 -3q-43 -56 -54 -81q-16 -32 -16 -86q0 -174 135 -247q0 -1 5 0q66 -36 170 -36q58 0 94 10q25 12 64 27q49 11 143 54q4 4 5 9q-47 35 -127 103q-10 20 -23 39q-2 4 -2 17
q0 59 32 59q14 0 67 -34q11 -14 89 -80q59 -49 67 -49q42 0 136 131q3 3 17 45t14 48q0 75 -29 113zM640 783q26 2 68 2q109 0 176 -26q104 -43 161 -154q0 -3 2 -19q15 -33 15 -81q0 -103 -41 -205q-14 -35 -64 -86q-35 -37 -43 -46q8 -12 39 -47q42 -50 42 -56
q0 -11 -8 -25q-10 -16 -20 -16q-1 0 -15 7l-3 1q-14 0 -131 72q-9 -3 -49 -21q-22 -11 -88 -39q-160 -59 -171 -59q-8 0 -55 -4q-48 -4 -57 -4q-13 0 -83 16q-8 2 -78 19q-46 22 -77 60q-2 0 -6.5 2t-8.5 3q-87 83 -116 216q0 1 -1 7t-3 14.5t-4 18.5q-6 26 -6 35
q0 93 34 173q35 81 91 116q10 6 50 19q38 10 45 10q4 0 15 -8l6 -3l2 -1l44 33q56 41 87 50q90 28 167 28q3 0 15 -4q17 3 36 3q15 0 33 -1z" />
    <glyph glyph-name="R" unicode="R" horiz-adv-x="890" 
d="M453 701q-2 -4 -6 -8q-55 1 -70 -2q-23 -7 -78 -30q-13 -4 -69 -20q-33 -13 -37 -27q-29 -92 -39 -220q2 -21 2 -101q-2 -3 -5.5 -11.5t-5.5 -13.5q-12 -56 -9 -97l3 -30q2 -28 2 -54q0 -84 -36 -84q-2 0 -24 8q-20 7 -27 7q-11 59 -11 188q0 16 8 81q8 91 20 164
q11 36 21 79v19l-4 3l-10 -5q-14 -8 -22 -8q-13 0 -24 21q-5 13 -5 23q0 55 30 89q21 24 90 71q11 6 130 29q124 23 168 23q97 0 189 -9q8 -6 20 -9q48 -1 112 -53q66 -52 76 -100l2 -4q12 -24 12 -28l3 -21q1 -5 2 -11t1.5 -8.5t0.5 -3.5q0 -45 -60 -128q-13 -18 -79 -50
q-15 -18 -63 -48q-21 -6 -96 -32q-7 -4 -62 -33q-2 0 -12.5 -2t-37 -6t-51.5 -8q-68 -10 -68 -23q0 -14 61 -57q47 -33 70 -45q33 -15 174 -78q23 -8 44.5 -15t30.5 -10l9 -3q61 -27 62 -69q-11 -21 -34 -21q-5 0 -21 4q-18 3 -21 3q-69 0 -127 27q-9 3 -111 51
q-23 14 -67 42q-34 23 -52 44q-2 0 -4 0.5t-6.5 1.5t-7.5 2q-15 25 -89 70q-65 41 -65 68q4 12 20 52q65 13 250 57q3 1 11 3t27 6t37 9q39 10 131 72q115 79 115 128q0 43 -39 82q-40 37 -99 46q-27 12 -32 12q-48 0 -88 1h-60z" />
    <glyph glyph-name="S" unicode="S" horiz-adv-x="709" 
d="M626 667q-8 0 -41 4q-32 4 -39 4q-1 0 -6 -0.5l-15 -1.5t-21 -2l-51 -6q-9 -1 -31 0q-8 0 -19 0.5t-14 0.5q-14 -1 -109 -12q-45 -10 -96 -16q-26 -4 -41 -13q1 -1 5 -7.5t6 -10.5q14 -11 80 -61q25 -14 76 -37q6 -4 32 -21l9 -3q85 -33 208 -93q50 -24 80 -68
q31 -41 31 -89q0 -29 -31 -54q-41 -31 -52 -45q-27 0 -38 -1l-1 -1l-2 -2q-27 -20 -35 -20q-3 0 -8 3q-1 1 -2 1q-17 0 -87 -29q-65 -24 -132 -39l-4 -5q-14 -10 -23 -10q-1 0 -11 2q-2 0 -4 0.5t-4 0.5l-1 1q-19 -4 -58 -14q-55 -13 -63 -13q-36 0 -79 -9q-15 6 -31 24
q-14 20 -12 34q10 9 27 18q279 63 429 125q95 41 95 64q0 18 -34 39q-4 3 -22 13.5t-32 18.5q-41 26 -108 52q-90 37 -113 47q-33 16 -116 78q-109 81 -109 119q0 9 16 27l23 26q2 2 11 6q11 4 25 10q4 1 17 7t24 10q43 11 194 30q5 0 17 1.5t33 4t41 4.5q85 9 145 9
q130 0 130 -56q0 -45 -59 -45z" />
    <glyph glyph-name="T" unicode="T" horiz-adv-x="1141" 
d="M1154 673q-107 0 -115 -1q-5 0 -64 -9q-40 -6 -46 -6q-4 0 -17 8l-1 1h-1q-109 -12 -137 -12q-11 0 -107 -10q-36 -3 -48 -7q-28 -9 -36 -26q-43 -76 -78 -265q-8 -39 -16 -105q-4 -34 -5 -48q-11 -24 -24 -65q1 -26 -13 -82q-26 -45 -53 -45q-55 0 -55 46q0 2 2 8
t6.5 20.5t8.5 27.5q5 41 7 63q3 4 12 20q2 33 3 42q3 22 15 34q-1 57 26 146l71 231q-2 2 -7 2q-108 0 -182 -8q-44 -7 -116 -23q-77 -16 -81 -16l-46 20q-13 22 -13 41q0 38 30 42q88 18 142 21l287 16q2 0 36 8q32 8 34 8q5 0 19 -9q14 -7 15 -7l449 21l1 -7q3 8 45 -4
l41 -10q2 1 7 2q2 0 6 1.5t6 1.5q36 0 60 -36q-13 -30 -68 -30z" />
    <glyph glyph-name="U" unicode="U" horiz-adv-x="1076" 
d="M1036 610l-17 -11q4 0 8 -2q-11 -46 -38 -107q-28 -61 -42 -102q-8 -10 -14 -16q-3 -22 -14 -39q-3 -4 -32.5 -39t-50.5 -61q-48 -37 -74 -56q-4 -13 -6 -19q-12 -7 -89 -55q-54 -34 -101 -47q-4 -7 -23 -21q-60 -26 -104 -26l-4 -1q-4 0 -12.5 -0.5t-17.5 -0.5
q-23 -2 -36 -2q-70 0 -159 37q-100 40 -125 90q-54 105 -63 164q-12 77 -12 132l5 6q-1 21 -3 37q9 50 43 123q50 113 105 113l45 -34q-11 -14 -14 -42q-34 -20 -44 -50l-21 -55q-19 -38 -19 -82q0 -110 13 -156q7 -27 35 -74q18 -32 51 -57q42 -31 55 -37q14 -7 50 -7h58
q15 0 116 34q96 32 108 40q36 25 87 59q43 37 133 112q21 35 64 97q24 38 44 83q19 43 19 55v97v40q0 4 -1 9q2 -1 7.5 -1t8.5 -1q-2 -4 -3 -21h-8q-1 0 -6 1q2 34 35 34q5 0 49 -18q0 -8 5 -40l5 -28q0 -7 -5 -17l-3 -7l-1 -1v-32q0 -5 -2 -11q-1 0 -1 -1l-1 -1q1 0 1 1
q1 1 3 2z" />
    <glyph glyph-name="V" unicode="V" horiz-adv-x="760" 
d="M744 642q-3 -1 -11 -5q-6 -24 -38 -40q0 -14 -18 -30q-2 -2 -28 -26q-13 -18 -44 -46q-5 -17 -27 -51q-6 -5 -23 -23q-7 -21 -14 -37q-5 -5 -21 -28q-3 -23 -19 -70q-9 -6 -19 -18q-9 -34 -54 -177q0 -1 -2 -51q-14 -4 -61 -34l-25 5q-15 22 -67 107q-17 36 -79 174
q-11 25 -42 106q-8 12 -24 39q-4 6 -24 43q-2 17 -7 38q-20 23 -22 58l-40 116q0 19 12 23q18 6 27 6q43 0 52 -9q12 -12 28 -81q4 -4 6 -8q15 -57 42 -108l57 -141q28 -45 36 -59q10 -40 48 -116l3 3q3 16 15 50q26 52 61 115l9 16q27 51 101 168q46 69 147 170
q57 59 81 59q13 0 31 -15q20 -16 20 -27q0 -15 -67 -96z" />
    <glyph glyph-name="W" unicode="W" horiz-adv-x="1085" 
d="M370 281h13q-40 -44 -43 -60q-10 -54 -42 -102q-14 -22 -54 -82q-5 -7 -55 -28h-19q-16 16 -39 52q-13 32 -28 98l-22 96q-13 32 -25 67q-11 37 -33 166q-13 84 -13 106q0 17 26 40l21 -7q13 -7 36 -30q17 -41 28 -107l13 -84q1 -7 3 -16l2 -8q18 -62 45 -157
q9 -30 18 -45q6 3 12 14l32 52l31 68q15 8 29 39q24 53 36 74l63 103q16 13 39 13q42 0 72 -67q8 -8 15 -22q17 -45 32 -82q5 -10 51 -99q13 -35 20 -48q11 -23 22 -33q4 0 6 3q64 110 194 292q8 18 25 44q37 58 105 148q10 9 31 43q18 28 40 41q5 6 11 0q7 -5 18 -28
q-14 -15 -48 -73q-35 -58 -38 -61q-13 -14 -21 -34q-14 -34 -39 -74q-77 -121 -105 -176q-15 -38 -19 -47q2 -4 2 -7q0 -1 -3 -10q-45 -69 -56 -90q-26 -48 -36 -88q-14 -6 -29 -16q-7 -13 -41 -41q-20 14 -24 17q-41 63 -96 177q-19 62 -40 108q-18 16 -38 82q0 2 -8 8
q-19 -8 -21 -27q-21 -57 -56 -102z" />
    <glyph glyph-name="X" unicode="X" horiz-adv-x="907" 
d="M907 617q-75 -7 -126 -26q-20 -13 -42 -21q-259 -106 -259 -125q0 -2 39 -35l72 -61q12 -22 29 -45q25 -17 53 -44q5 -7 17 -32q11 -7 29 -28q10 -16 69 -101q13 -6 27 -22q8 -18 8 -37q0 -13 -19 -27q-17 -12 -30 -12q-9 2 -38 11l-7 14l-157 188q-84 100 -150 162
q-50 0 -121 -50q-33 -18 -75 -49q-36 -25 -75 -68q-28 -32 -53 -88q0 -3 -0.5 -9t-1.5 -17l-2 -22q-3 -48 -34 -48q-28 0 -41 40q-9 27 -9 47q0 47 12 62q21 29 36 73q34 36 102 99q19 13 83 59q63 43 63 52t-86 62q-68 43 -130 92q-14 18 -12 61q15 11 52 20l267 -176
q11 2 36 19q40 26 48 29q90 37 265 123q5 0 23 2q37 16 78 16q85 0 85 -43q0 -20 -25 -45z" />
    <glyph glyph-name="Y" unicode="Y" horiz-adv-x="689" 
d="M667 591q-24 -28 -70 -73q-64 -64 -96 -100q-37 -43 -71 -79q-7 -8 -34.5 -37.5t-48.5 -52.5q-28 -39 -82 -125q-8 -16 -18 -38q-11 -35 -14 -43q-15 -42 -40 -42q-11 5 -56 30q-2 25 2 44q55 122 91 176q6 10 25 21l2 13q7 12 56 68q2 6 4 9q-8 2 -16 2q-2 0 -48 -10
q-44 -10 -52 -10q-36 0 -73 23q-37 25 -53 57q-32 66 -46 119q-7 28 -7 50q0 35 18 79h49q1 -6 27 -25l15 -107q26 -92 98 -92q62 0 188 95q10 8 38.5 29t65 47.5t74.5 53.5q21 15 41 15q17 0 36 -21q17 -19 17 -29q0 -20 -22 -47z" />
    <glyph glyph-name="Z" unicode="Z" horiz-adv-x="851" 
d="M777 551q-42 -37 -69 -55q-1 -1 -9.5 -5.5t-13.5 -7.5q-3 -2 -26 -17l-38 -29q-11 -9 -55 -39q-74 -53 -230 -154q-106 -68 -176 -124q25 -18 97 -18q3 0 12.5 0.5t27.5 1.5t35 2l71 4l4 2q16 4 21 5q38 5 148 18q48 7 153 7q53 0 80 -20v-21q-17 -12 -44 -24l-138 -11
q-32 -7 -98 -18q-1 -1 -13 -9q-50 -12 -104 -21q-82 -11 -111 -11l-18 -1h-133q-29 0 -116 21q-24 21 -24 66q0 37 34 62q38 22 56 33q4 6 23 25q21 13 75 51q21 15 81 60q88 39 219 132q62 43 110 79q35 28 87 79q-39 13 -178 13l-250 -24q-83 0 -118 21q0 8 -7 26
q-8 22 -8 23q0 43 32 43q4 0 40 -6l37 -5l30 6q35 8 48 8q5 0 57.5 2.5t103.5 4.5l105 5q58 3 142 -12q34 -10 54 -13q58 -8 58 -56q0 -46 -64 -99z" />
    <glyph glyph-name="bracketleft" unicode="[" horiz-adv-x="387" 
d="M406 -24q-40 -28 -120 -41q-63 -10 -105 -17q-10 0 -25 -3q-9 -3 -34 0l-27 3h-24q-28 0 -28 47q0 -1 1.5 11l5 40t7.5 64q2 18 5.5 51t9.5 88.5t11 102.5q5 32 13 183q4 47 4 70q0 133 1 190q5 17 9 39q9 8 39 9l44 4q31 10 101 27q24 6 43 6q20 0 23 -7q19 -28 29 -62
v-13q-66 -23 -166 -39q-14 -3 -23 -13q-2 -86 -7 -133q0 -7 -12 -108q0 -73 -3 -131q-3 -59 -11 -148q-7 -88 -7 -155v-18q63 -7 109 -1q103 16 111 16q16 0 21 -29q4 -19 5 -33z" />
    <glyph glyph-name="backslash" unicode="\" horiz-adv-x="633" 
d="M679 775q0 -28 -20 -49q-3 -3 -12.5 -14t-15.5 -18q-7 -14 -27 -40q-123 -112 -198 -213q-274 -375 -302 -547h-46q-1 6 -12 32q-10 20 -10 30q0 25 27 103q23 68 32 84q38 69 66 118q26 47 154 228q47 65 112 151q8 11 133 133q74 73 91 73q9 0 19 -33q9 -30 9 -38z" />
    <glyph glyph-name="bracketright" unicode="]" horiz-adv-x="483" 
d="M463 727q0 -49 -38 -290q0 -2 0.5 -5t1 -7.5t0.5 -8.5q-31 -245 -31 -342q0 -52 -5 -83q-12 -86 -17 -96q-13 -32 -54 -32q-7 0 -87 10l-87 10q-6 0 -13 -2q-4 -1 -9 -2h-3q-3 0 -25 3q-7 0 -13 0.5t-9.5 1t-4.5 0.5l-15 18q-3 1 -12 5.5l-15 7.5l-5 16v-3q0 18 9 39
q36 14 138 23q13 1 25 2l18 1.5t8 0.5q5 -1 13 -2q9 -2 16 -2q27 0 27 10q-2 16 -2 35q17 60 29 126q3 116 24 252l43 296q0 4 -1 6q-19 15 -69 15q-3 0 -9 -2q-5 -1 -10 -1q-9 0 -18 6q-9 1 -66 7q-63 8 -63 65q0 43 37 43l251 -21q41 -3 41 -100z" />
    <glyph glyph-name="asciicircum" unicode="^" horiz-adv-x="325" 
d="M348 684q0 -6 -3 -17q-2 -5 -19 -5q-22 0 -45 7q-81 84 -92 84q-1 0 -57 -50q-53 -49 -64 -49q-24 0 -29 15l2 23v4q-5 10 -5 15q0 9 20 25q9 5 26 17q10 10 50 59q32 39 56 39q7 -3 32 -25l39 -32q1 -2 2.5 -6t2.5 -6q36 -28 66 -62q18 -21 18 -36z" />
    <glyph glyph-name="underscore" unicode="_" horiz-adv-x="1230" 
d="M1318 -108q-7 -5 -17.5 -11.5t-13.5 -8.5q-6 3 -61 3h-104l-126 -8q-141 -9 -277 -9l-223 2l-35 1q-9 0 -17.5 0.5t-12.5 1t-5 0.5h-42q-10 0 -27 1h-13h-85t-63 -0.5t-26 -0.5q-7 0 -27 -4q-24 -3 -25 -3q-40 0 -58 5q-14 5 -33 23q0 13 2 37q3 33 3 36q20 21 102 21
h127l19 -5q112 -4 119 -4q57 -2 125 -1l131 1q84 0 69 0l226 -3l114 3q35 1 73 3l28 2q113 0 141 -24q13 -45 12 -58z" />
    <glyph glyph-name="grave" unicode="`" horiz-adv-x="309" 
d="M331 653q0 -15 -14 -38q-124 33 -291 121q-5 3 -5 34q0 22 4 28t15 6q5 0 17.5 -4t22.5 -8l10 -5l120 -54q71 -32 107 -51q14 -19 14 -29z" />
    <glyph glyph-name="a" unicode="a" horiz-adv-x="491" 
d="M526 18q0 -19 -10 -33q-10 -15 -24 -15q-19 4 -110 52q-56 30 -57 30q-18 0 -57 -17q-56 -24 -58 -25q-30 -10 -65 -10q-40 0 -100 54q-21 30 -21 53q0 30 20 82q5 12 29 23l30 14q104 64 193 64q27 0 65 -14q11 -4 29 -34t18 -43q0 -25 -29 -43q-59 34 -94 34
q-36 0 -75 -18q-48 -22 -76 -49q3 -15 34 -15q-6 0 22 10q16 6 41 14q72 24 115 24q11 0 72 -52q71 -59 97 -71q11 -11 11 -15z" />
    <glyph glyph-name="b" unicode="b" horiz-adv-x="629" 
d="M503 249q0 26 -95 43q-69 12 -123 12q-3 0 -20 -4t-24 -4q-39 5 -48 2q-28 -6 -35 -27l-5 -30l-19 -97v2q16 -49 16 -61h18q28 12 78 26q75 22 166 64t91 74zM596 246q0 -62 -112 -132q-98 -61 -160 -64q-2 -2 -22 -14q-20 -6 -78 -18q-133 -28 -160 -28q-16 0 -29 15
q-15 15 -15 29q0 7 26 22l27 16q0 8 -18 37q-11 18 -11 43q0 6 6 45t6 47q0 17 -24 38q0 4 -6 22t-6 20q0 17 51 47q5 45 7 57q28 158 68 288q9 30 48 43q21 -11 44 -80q0 -4 -14 -42l-19 -59q-7 -67 -11 -93q0 -5 -9 -38t-9 -34q0 -25 46 -25q178 0 277 -28q34 -9 65 -47
q32 -38 32 -67z" />
    <glyph glyph-name="c" unicode="c" horiz-adv-x="554" 
d="M499 89v-14q0 -44 -49 -44q-1 0 -7 2l-8 2q-3 0 -29 -12q-28 -13 -34 -14q-81 -18 -117 -18q-7 0 -15 2q-9 2 -20 0q-13 -7 -24 -7q-50 0 -100 30q-50 29 -64 70l-12 32q0 38 16 63q20 38 82 87q30 22 72 40q84 37 125 37q1 0 3 -0.5t7 -1t10 -0.5q18 -3 21 -3
q46 0 60 -10q15 -12 15 -45q0 -2 -7 -15l-8 -14q-9 -6 -27 -6h-2q-2 1 -5 1.5t-6 0.5t-6.5 0.5t-5 1t-2.5 0.5q-62 0 -192 -73q-33 -17 -45 -63q58 -42 124 -42q1 0 7.5 0.5t22 2t32.5 2.5l61 4q3 0 48 6q43 7 48 7q19 0 31 -9z" />
    <glyph glyph-name="d" unicode="d" horiz-adv-x="727" 
d="M697 760q0 -186 -7 -252q3 -33 3 -85q0 -78 -5 -152q-13 -19 -31 -49l-19 5q-1 0 -10.5 1t-33 3t-47.5 4l-92 8q-59 0 -155 -18q-106 -19 -122 -40q-1 -1 -5.5 -2.5l-10.5 -3.5t-12 -5q-26 -11 -26 -28q0 -7 16 -24q18 -18 29 -24q45 -25 99 -25q27 0 191 26
q157 25 162 25h13q6 0 6 -10q0 -9 -11 -28q-13 -19 -22 -23q-23 -11 -166 -48q-108 -28 -160 -28l-12 -1h-2q-12 -1 -37 -1l-54 -2l-23 11q-13 0 -37 9q-37 27 -53 53q-15 21 -27 57q-12 37 -12 45q0 24 29 58q46 56 172 82q12 6 19 10q36 5 106 19q36 9 114 9q132 0 140 1
q3 93 18 222q-7 25 -8 64q4 16 1 89q-1 72 9 100q6 17 43 17q7 0 23 -9l7 -62v2z" />
    <glyph glyph-name="e" unicode="e" horiz-adv-x="542" 
d="M380 228q-3 11 -11 37q-2 5 -27 17q-79 -6 -137 -16q-18 -3 -41 -19q-25 -18 -25 -27q0 -8 5 -8h172q55 0 64 16zM480 267q6 -19 2 -61q-3 -48 -20 -57q-7 0 -44.5 -4.5t-70.5 -6.5l-88 -5q-79 0 -98 -4q-7 5 -27 5q-2 -2 -5 -6l-2 -2q0 -6 13.5 -16.5t51.5 -23t90 -16.5
t65 -6q61 -8 61 -30q0 -7 -38 -25l-20 -20q-8 -1 -20 -2l-14 -2q-7 0 -50 4q-46 3 -51 3q-14 0 -53 17q-2 1 -16 8.5t-26 13.5q-41 15 -76 56q-34 38 -34 73q0 38 10 60q73 143 296 143q72 0 108 -33q26 -22 56 -63z" />
    <glyph glyph-name="f" unicode="f" horiz-adv-x="678" 
d="M829 586q0 -19 -2 -29q0 -2 -8 -12q-1 -2 -0.5 -3t3 -1.5t5.5 -0.5l-27 -3q-4 0 -33 27q-35 32 -55 43q-50 28 -159 28q-1 0 -28 -5q-20 -5 -26 -5q-70 -9 -166 -104q-19 -18 -48 -93q-31 -77 -31 -125v-3q1 -2 1.5 -7t0.5 -11q3 -21 3 -26q13 -6 35 -6l74 12q41 7 67 11
q92 16 152 16q24 0 46 -13q-1 -12 -25 -34q-24 -19 -44 -27q-61 -7 -142 -22q-30 -12 -150 -53q1 -17 19 -61q27 -28 27 -38t-13 -33q-14 -23 -20 -23q-37 0 -78 69l-41 69q-92 -19 -98 -19q-21 0 -36 18t-15 40q0 9 15 27q16 17 24 20q32 9 37 9q1 0 5 -2q2 -1 6 -1
q25 0 35 5q23 14 26 63q13 268 233 417q29 20 64 23q19 3 55 9q8 1 85 1q76 0 130 -22q15 -2 49 -19q25 -17 29 -31q19 -57 19 -75z" />
    <glyph glyph-name="g" unicode="g" horiz-adv-x="508" 
d="M347 -97q-22 8 -34 8q-27 0 -59 -9q-13 -8 -24 -13q-25 -2 -54 -7q-37 -14 -86 -28q-8 -3 -138 -35l-40 -21q-75 -28 -75 -58q0 -42 69 -78q27 -21 70 -45q49 -17 107 -17q5 0 29 4q26 3 27 3q21 0 76 40q49 35 69 61q30 37 44 75q20 57 19 120zM449 -55q0 -1 -7 -15
q-7 -11 -7 -14q-12 -118 -85 -259q-59 -71 -139 -117q-79 -46 -143 -46q-87 0 -182 55q-88 51 -121 108q-19 34 -19 101q0 82 160 128q72 11 174 29q149 29 266 32q11 5 11 39v83l-1 5l-1 -1q-1 -1 -1 -2q-2 0 -2 11q-6 63 -39 111q-32 2 -44 -2q-88 -22 -105 -22l-10 4
q-7 4 -11 4q-36 0 -63 21q-28 22 -28 46q0 34 24 72q22 33 72 47q8 1 63 15q42 14 125 14q17 0 31 -8q10 1 33 -2q28 -12 28 -38q-4 -4 -17 -29q-42 7 -67 7q-40 0 -111 -24t-71 -39q36 -4 93 14q18 6 79 6q25 0 33 -11q47 -53 60 -121q3 -20 6.5 -40t5 -28.5t1.5 -9.5v-32
q0 -27 -3 -30l-2 -2q0 -2 1 -6t2.5 -11.5t3.5 -15.5q7 -24 7 -27z" />
    <glyph glyph-name="h" unicode="h" horiz-adv-x="650" 
d="M634 50l9 -25q0 -8 -17 -37q-2 0 -11.5 -2.5t-17.5 -4.5q7 -2 22 -9l-10 -9q-52 9 -71 68q2 50 2 110q-7 7 -15 14q-67 -8 -136 -25q-33 -8 -191 -74q-101 -42 -124 -42q-21 0 -33 28q-10 20 -10 37q0 47 47 205q4 5 16 32q5 35 16 78q25 99 119 413q-2 11 4 32
q11 21 44 21q14 0 19 -8l9 -27q4 -13 4 -20q0 -11 -43 -161q-38 -135 -51 -176q-23 -66 -53 -186q-26 -110 -26 -120v-12q6 -6 18 -6q5 0 30 11l36 15q42 12 156 42q133 34 146 34h12q97 0 97 -110q0 -14 -5 -54q0 -9 8 -32z" />
    <glyph glyph-name="i" unicode="i" horiz-adv-x="242" 
d="M154 298q3 -8 7 -235q1 -5 -11 -54l-12 -3q-8 -1 -44 12q1 10 -11 30q-15 23 -19 33q-2 7 4 66q8 98 22 167q14 17 33 17q22 0 31 -33zM186 520q0 -11 -29 -45q-48 13 -48 41t20 59q9 1 42 6q15 -31 15 -61z" />
    <glyph glyph-name="j" unicode="j" horiz-adv-x="331" 
d="M281 214q0 -7 -5 -26q-7 -22 -7 -26q4 -25 4 -55q-1 -98 -27 -221q0 -8 -22 -124q0 -7 -2 -51q-26 -101 -47 -166q-18 -18 -33 -32q-28 -28 -35 -28l-10 6q-8 4 -19 8q-11 2 -41 11q-54 22 -73 46q-11 22 -42 68l6 46q25 -18 62 -43q49 -32 75 -32q22 0 31 24q5 18 11 45
q2 8 9 45.5t13 68.5q1 16 24 76q1 3 1 17v6q0 9 4 23q0 -1 -1 -1q0 10 7 51q4 24 15 138q-1 46 13 145q3 11 17 26q13 15 20 15q3 0 33 -6q19 -18 19 -54zM244 530q4 -86 -42 -86q-10 0 -22 11q-13 11 -13 18q0 64 48 64q9 0 29 -7z" />
    <glyph glyph-name="k" unicode="k" horiz-adv-x="675" 
d="M260 133q-71 27 -95 51q-6 -22 -18.5 -64.5t-16.5 -58.5q-19 -7 -25 -30q-6 -19 -22 -19q-10 0 -25 16q-6 7 -12.5 13.5t-10 10.5t-4.5 5q29 81 32 129q2 13 15 56q12 38 14 56q23 75 42 118q27 112 49 213q4 9 11 22t9 17q0 15 -1 20q3 6 6.5 13.5t5.5 11.5t4.5 8.5
t3.5 6.5q5 12 10.5 26t6.5 17q13 24 39 24q31 0 31 -31q0 -34 -6 -50q-46 -126 -46 -177l-69 -255q29 17 44 17q2 0 7 3q4 3 7 3h-2q0 3 25 12q66 21 83 26q20 7 102 40q73 29 77 29t23 -10t21 -10v-37q0 -28 -21 -40q-24 -12 -136 -47q-108 -35 -130 -52q29 -8 60 -10
q44 -11 134 -35q15 -3 83 -46q81 -50 81 -68v-25q-4 -2 -9.5 -4.5t-8.5 -4t-6 -2.5q-20 -10 -26 -10l-36 18q-37 19 -68 27q-14 3 -74 23q-55 20 -88 29q-21 7 -43.5 15.5t-26.5 9.5z" />
    <glyph glyph-name="l" unicode="l" horiz-adv-x="277" 
d="M267 774v-95q-17 -56 -35 -178q-4 -20 -30 -121q1 -7 1 -31q-6 -27 -20 -110v-50q0 -61 6 -87q-3 -6 -6 -15q12 -12 12 -30q0 -22 -13 -39q-12 -18 -30 -18q-9 0 -29 14q-21 14 -27 24q-2 4 -6 63q-8 9 -8 13v118l62 420q3 11 8 31q8 31 9 39q0 7 -4 28l-3 24l29 58l13 7
q16 0 44 -26q27 -25 27 -39z" />
    <glyph glyph-name="m" unicode="m" horiz-adv-x="1028" 
d="M975 -38q-5 0 -21 -3q-5 0 -10 -0.5t-7 -1t-3 -0.5q-19 0 -44 28q2 6 -3 20q-25 41 -28 185q-3 4 -10 10q-60 -2 -157 -77l-151 -117q-13 -10 -40 -10q-62 0 -68 45q0 12 3 66q4 52 4 95q0 47 -5 71q-6 10 -18 10q-22 0 -86 -50q-70 -59 -72 -61q-7 -6 -30.5 -29
t-39.5 -38q-63 -62 -93 -62q-18 0 -39 29q-18 28 -18 32q0 33 17 107q21 96 49 96q27 0 42 -26l23 -41q37 28 109 78q103 72 149 72q32 0 73 -47q34 -40 35 -49q12 -64 10 -126q3 -3 9 -3q18 0 51 30q11 5 38 24q43 27 109 67q71 32 139 28q8 -17 26 -25q19 -22 46 -74
q8 -45 0 -123q-2 -28 4 -66q7 -56 7 -64z" />
    <glyph glyph-name="n" unicode="n" horiz-adv-x="586" 
d="M509 71q0 -71 -33 -71q-5 0 -23 9q-21 11 -30 12q-28 43 -28 87q0 48 -33 149q-4 7 -23 7q-17 0 -43 -14q-4 -2 -10 -5.5t-15.5 -8t-16.5 -8.5q-15 -11 -73 -77q-62 -72 -74 -72q-36 0 -60 44q-20 38 -20 72q0 14 21 56q0 4 4 28q2 8 26 54q2 0 15 3t15 3q1 -6 22 -24
q21 -16 27 -16q4 0 90 40q87 39 90 39q51 0 108 -73q7 -10 37 -58q27 -68 27 -176z" />
    <glyph glyph-name="o" unicode="o" horiz-adv-x="654" 
d="M489 231q0 73 -91 73q-67 0 -154 -30q-3 -2 -9.5 -6.5t-9.5 -7.5q-21 -2 -36 -10q-65 -65 -65 -82q0 -29 52 -57q47 -24 76 -24q52 0 137 43q100 49 100 101zM589 211q0 -58 -29 -95q-31 -35 -113 -78q-56 -28 -132 -47q-34 -8 -43 -10q-59 0 -138 41q-86 45 -98 105
l-1 3l-3 9t-4 13q-9 21 -9 25q0 9 12 46q11 36 18 48q9 17 46 34l48 22q49 29 119 57l37 3q5 2 19 9q4 0 32 3q27 3 30 3q146 0 188 -123q21 -62 21 -68z" />
    <glyph glyph-name="p" unicode="p" horiz-adv-x="741" 
d="M682 162q0 -52 -78 -115q-68 -55 -129 -72q-17 -15 -28 -15l-4 2q-2 2 -7 2t-63 -13q-56 -14 -62 -14l-2 -1q-2 0 -6.5 -0.5t-8.5 -0.5q-3 0 -6 -0.5t-5 -1t-3 -0.5h-2q-19 0 -49 27q-3 -1 -7 -7q0 -1 -22 -161q-2 -9 -10 -110q-6 -82 -25 -115h-3q-7 0 -12 -1
q-11 -3 -13 -3q-28 0 -57 41v93q0 4 7 14q-2 48 3 146q6 15 15 43q7 72 35 236q32 36 45 36q23 0 41 -23q18 -24 18 -49q0 -37 -19 -106q9 -6 12 -6q22 0 154 57q47 20 119 58q38 28 70 65q7 7 7 22q0 7 -19 29q-17 21 -30 31q-36 25 -89 25q-79 0 -164 -27
q-93 -29 -107 -36q-53 -24 -53 -63q0 -2 2 -6q-7 -13 -17 -39q-2 -2 -28 -15q-43 31 -43 66l12 16q-3 10 -2 24q28 57 127 109q100 53 179 55q2 2 9 5q16 6 58 6q92 0 162 -42q18 -10 64 -68q34 -41 34 -98z" />
    <glyph glyph-name="q" unicode="q" horiz-adv-x="700" 
d="M665 302q0 -35 -40 -35q4 0 -52 17q-41 14 -109 14q-24 0 -79 -14q-6 -1 -26.5 -6.5t-35.5 -9.5q-169 -31 -169 -105q0 -14 19 -26t40 -12q33 0 109.5 13.5t129.5 34.5l119 47q10 0 64 -57q2 -6 2 -16q0 -7 -12 -38q-14 -33 -20 -53q-23 -82 -38 -168q-1 -5 -7 -42
t-17.5 -107t-24.5 -149q-2 -14 9 -31q-3 -7 -20 -46q-18 -38 -41 -38q-31 0 -42 17q-19 25 -19 57q0 1 5 11t5 11q3 46 15.5 122t12.5 106l62 281l2 1q-2 2 -11 2q-63 -36 -97 -44q-51 -12 -127 -12h-49q-30 0 -88 23q-66 27 -83 58q-25 45 -25 74q0 25 43 79t63 55
q71 23 264 72q42 4 139 4q7 0 80 -29q12 -5 30 -27q19 -22 19 -34z" />
    <glyph glyph-name="r" unicode="r" horiz-adv-x="636" 
d="M677 287l-5 -3q-4 -3 -16 -9.5t-23 -12.5l-9 8q-8 -8 -18 -8q-7 0 -112 9l-112 11q-145 0 -204 -95q-14 -22 -28 -82l-11 -11q0 -32 -12 -88q-22 -8 -45 -8q-53 0 -53 67q0 3 1 12t2.5 24.5t3.5 31.5q6 52 10 103q27 61 49 61q5 -2 13 -6q13 -5 16 -5t21 15l17 14
q52 27 85 43q43 21 105 21q21 0 260 -40q2 -3 9 -9l50 -6q0 -32 6 -37z" />
    <glyph glyph-name="s" unicode="s" horiz-adv-x="536" 
d="M476 114q0 -7 -19 -23q-20 -16 -38 -20q-19 -7 -128 -40q-106 -32 -160 -32q-3 0 -21 3q-16 4 -20 4t-19 -4q-15 -3 -17 -3q-8 0 -21 18q-14 19 -14 27q0 4 15 23l151 28q99 19 131 38q0 4 -1 6q-20 14 -105 49q-99 41 -108 47q-12 4 -56 31q-10 10 -10 42q0 -6 -4 2
q0 2 -1 4q-4 12 7.5 23.5t38.5 21.5q52 21 168 41q108 19 183 19q19 0 25 -6q29 -30 29 -47q0 -27 -19 -36q-13 -4 -147 -19q-4 -1 -12 -5q-10 -5 -16 -5q-4 0 -9 2l-8 2q-27 0 -63 -18q6 -12 23 -21q12 -2 67 -17q1 0 19 -7t35 -12l7 -3q15 -5 47 -19q23 -9 44 -34
q9 -11 13 -37q0 -1 7 -11q6 -9 6 -12z" />
    <glyph glyph-name="t" unicode="t" horiz-adv-x="571" 
d="M610 360q0 -18 -14 -26t-54 -16q-34 -6 -45 -14q-7 -1 -20 -3q-21 -3 -24 -3q-47 0 -120 -11q-26 -3 -30 -17q-7 -18 -21 -86q0 -41 -18 -162q-3 -4 -9 -11q-8 -11 -8 -13q-54 3 -66 17q-6 6 -6 37q0 44 23 227q-15 11 -27 10q-21 -3 -31 -1q-31 2 -97 4q-60 10 -60 60
q0 18 13 31q14 14 29 14q3 0 28 -3q17 -2 28 -2q9 0 23 2q14 1 23 1q3 0 12 -4q4 -1 9 -3l3 -1q1 0 4.5 0.5t10 1t13.5 0.5q5 0 9.5 0.5t7.5 0.5t5 0.5t3 0.5h2q25 0 31 25q10 36 17 64l33 95q7 47 8 51q18 30 25 44q57 119 97 119q17 0 48 -55q0 -10 -18 -45
q-9 -10 -25 -36q-17 -48 -55 -151q-13 -32 -20 -101q36 -10 42 -10l27 3q35 5 48 5q36 0 61 -6l25 -6q60 0 60 -27z" />
    <glyph glyph-name="u" unicode="u" horiz-adv-x="658" 
d="M641 354q0 -35 -7 -50q-6 -16 -17 -44.5t-14 -35.5q-5 -1 -11 -9q-3 -15 -25 -41l-34 -38l-4 -12q-51 -51 -136 -93q-81 -25 -120 -25q-25 0 -68 13q-171 53 -171 240q0 63 42 117h25q31 -22 31 -71q0 -13 -1 -32q0 -8 -0.5 -16t-1 -12t-0.5 -6q0 -85 91 -109l31 -10
q7 0 17 1q4 0 8.5 0.5t6.5 1t3 0.5q49 0 132 56q50 32 100 96q48 63 56 103q1 7 18 22q16 15 23 15q26 0 26 -61z" />
    <glyph glyph-name="v" unicode="v" horiz-adv-x="580" 
d="M577 304q0 -13 -12 -25q-11 -10 -79 -61q-1 -2 -1.5 -7t-0.5 -8q-253 -190 -270 -190q-9 0 -37 19q-28 18 -33 26q-71 121 -103 205q-1 1 -4.5 5t-4.5 6q-8 11 -8 18q24 60 44 60q8 0 71 -99q62 -98 73 -98q9 0 46 23q42 26 50 34q34 17 87 50q9 9 41 33q38 16 120 41
q21 -15 21 -32z" />
    <glyph glyph-name="w" unicode="w" horiz-adv-x="936" 
d="M1003 399q0 -20 -59 -59q-4 -9 -17 -27q-15 -12 -38 -35q-6 -14 -25 -40q-12 -9 -35 -31q-20 -30 -29 -44q-12 -16 -73 -78q-75 -76 -96 -76q-27 0 -78 51q-33 33 -81 95l-40 51q-5 0 -51 -43q-53 -49 -74 -66q-127 -96 -146 -96q-30 0 -48 21q-33 38 -67 186
q-29 117 -29 134q0 6 24 43q15 6 19 6q14 0 33 -21q20 -22 23 -39q0 -15 2 -27q16 -44 25 -80q0 -24 23 -78h12q28 0 125 95l116 114q10 8 29 8q32 0 61 -59q20 -41 25 -49q3 -4 7.5 -12t12 -21.5t13.5 -24.5q28 -51 47 -51q14 0 74 63q28 30 75 77q22 24 181 150
q16 2 43 11q16 -28 16 -48z" />
    <glyph glyph-name="x" unicode="x" horiz-adv-x="598" 
d="M604 310q0 -25 -14 -31q-18 -8 -124 -28q-11 -1 -62 -26q-56 -27 -56 -38q0 -5 24 -28q25 -25 29 -30q1 -1 23 -28t40 -50q35 -45 35 -80q0 -7 -2 -17q-3 -16 -3 -18q0 -6 -10 -6q-38 0 -57 17q-14 14 -100 110q-68 74 -78 74q-50 0 -141 -98q-4 -4 -8 -23
q-23 -13 -32 -13h-22q-20 0 -21 42q0 37 66 112q62 71 66 71q0 3 -55 61q-55 61 -55 73q0 9 17 32q18 22 27 22q20 0 97 -68q13 -11 27.5 -24.5t22 -20t14.5 -13t10 -8.5l2 -3q1 0 45 23q48 24 55 26q117 38 174 38q66 0 66 -50z" />
    <glyph glyph-name="y" unicode="y" horiz-adv-x="634" 
d="M582 222q0 -9 -21 -54t-36 -66q-11 -8 -24 -21q-11 -30 -41 -85l-1 -6l-1 -2q-1 0 -10 -16q-8 -5 -20 -20q-4 -10 -8 -40q-13 0 -19 -16q-1 -3 -23 -61q-6 -17 -35 -62q2 -10 2 -23q-8 -10 -20 -32l-2 -8q-2 -9 -7.5 -31t-10.5 -45q-9 -21 -24 -60l-17 -63
q-4 -17 -32 -17q-26 0 -44 19t-18 46q0 19 25 87q0 1 2 7.5l6 19.5l8 26q2 2 16 20q5 29 130 331l-6 6q-72 -31 -116 -31q-3 0 -24 6q-23 6 -24 6l-8 -2q-4 -2 -8 -2q-24 0 -61 23q-33 20 -42 30q-24 27 -31 63q2 4 2 6q-1 1 -1 2.5t-1 2.5q-17 20 -17 70q0 49 7 65
q16 37 32 37q42 0 54 -75q3 -14 9 -76q27 -46 74 -46q2 0 38 9q16 5 53 14q54 9 109 44q9 5 91 58q9 13 23 28h49q23 -35 23 -66z" />
    <glyph glyph-name="z" unicode="z" horiz-adv-x="680" 
d="M638 88q0 -29 -41 -41q-32 -4 -71 -10q-54 -9 -155 -19q-177 -18 -229 -18q-17 0 -47 10q-1 11 -40 42q3 24 16 53q1 3 53 49q52 29 129 79q20 12 54 55q-6 14 -18 14q-1 0 -9.5 -1t-29 -3t-41.5 -4l-80 -8q-56 0 -56 42q0 44 39 48q135 21 281 21q5 0 22 -10q4 -2 10 -6
t10 -6q12 -20 12 -32q0 -93 -215 -231q15 -13 54 -13l242 20l38 3q35 2 50 -3q13 -8 20 -15q2 -6 2 -16z" />
    <glyph glyph-name="braceleft" unicode="{" horiz-adv-x="451" 
d="M484 793q0 -14 -3 -23q-1 -1 -19 -15q-12 -9 -22 -9l-32 10q-7 1 -39 1q-48 0 -129 -24q-17 -6 -17 -21q68 -95 68 -110l-4 -15q-2 -13 -4 -21q-3 -40 -41 -90q-31 -40 -36 -40q-1 1 -1 2q0 -1 20 -21q21 -22 21 -64q0 -15 -46 -108q-46 -95 -46 -110q0 -7 7 -17
q9 -43 31 -68l37 -42q22 -12 58 -32q8 -7 26 -14h137q5 -7 5 -28q0 -20 -1 -22q-14 -17 -54 -35q-25 -10 -58 -10q-48 0 -130 38q-81 38 -102 71q-21 35 -30 62q-1 2 -4.5 7t-6.5 9q-14 86 -14 98q0 51 30 99q38 63 47 98q-12 7 -76 19q-40 8 -39 39q1 16 2 31.5t2 24
t1 10.5l12 9q4 -4 12 -4q22 0 119 59q27 17 27 45q0 11 -68 105q-2 8 -2 33q0 64 21 83q16 14 118 38q5 4 28 13q28 2 137 2q22 0 40 -20t18 -43z" />
    <glyph glyph-name="bar" unicode="|" horiz-adv-x="174" 
d="M131 805q1 -1 -2 -71q-5 -95 -5 -101q3 -174 3 -296q-4 -20 -9 -64q-11 -166 -2 -238q3 -39 -3 -63q-12 -34 -12 -46q0 -2 1 -4v-2q-1 -3 -15 -10q-20 6 -44 38q-25 31 -26 51l11 193q13 242 13 313q0 175 4 312q0 10 14 24q13 14 24 16q13 2 29 -19q19 -22 19 -33z" />
    <glyph glyph-name="braceright" unicode="}" horiz-adv-x="413" 
d="M443 729q0 -58 -73 -135q-119 -130 -119 -151t32 -27q7 0 40 -6q25 -15 44 -26q7 -10 7 -19q0 -45 -17 -59q-4 -2 -52 -16q-36 -9 -36 -36q0 -15 25 -62q1 -3 10.5 -20.5t17.5 -32.5q33 -71 33 -144q0 -51 -21 -83q-23 -31 -80 -66q-21 -8 -110 -46l-13 -13
q-81 -16 -75 -17q-61 0 -61 63q0 21 15 26q50 19 75 30q48 22 86 45q32 16 56 32q24 24 24 54l-7 16q-7 11 -7 17q0 4 1 7q-2 5 -15.5 37t-24.5 58q-34 78 -34 99l4 27q4 23 6 39q2 4 6 11l7 14q0 4 -15 22q-3 3 -8 9t-8 9q-10 21 -10 48q0 39 30 79q7 10 68 76q5 10 13 22
q16 17 33 35.5t20 21.5q35 42 42 70q-13 17 -88 17q-7 0 -42 -4q-11 -1 -21.5 -2t-15.5 -1.5t-6 -0.5q-34 0 -40 22q-4 40 -7 60q12 12 68 21q45 8 58 8q38 0 123 -22q12 -3 33 -21q20 -16 22 -26q7 -35 7 -59z" />
    <glyph glyph-name="asciitilde" unicode="~" horiz-adv-x="506" 
d="M542 816q0 -15 -31 -49q-1 -10 -12 -25q-111 -87 -183 -87q-11 0 -56 33t-51 33q-15 0 -37 -13q-6 -5 -18.5 -13t-18.5 -13q-11 -8 -38 -45q-9 -13 -34 -13q-11 0 -44 20v5q3 11 3 16q0 7 -5 9q0 27 2 31q10 19 81 70q76 57 105 57q25 0 76 -36l52 -35q21 0 184 87
q25 -6 25 -32z" />
    <glyph glyph-name="uni00A0" unicode="&#xa0;" horiz-adv-x="282" 
 />
    <glyph glyph-name="exclamdown" unicode="&#xa1;" horiz-adv-x="241" 
d="M213 262q0 -6 -20 -89q-20 -80 -18 -97q-19 -9 -19 -71q-2 -4 -7 -8q-2 -28 -18 -86q-15 -56 -15 -82q0 -16 4 -27q-8 -16 -27 -45l-20 -6q-7 0 -23 18q-17 19 -29 31q0 -2 11 11l2 2q9 160 93 484q3 7 15 19q13 11 19 11q11 -4 31 -10q21 -30 21 -55zM244 515
q0 5 -6 -36l-13 -12q-7 -7 -14 -7q-20 0 -39 19q-19 18 -19 36l7 15q5 12 5 21q0 1 -0.5 4t-0.5 4h41q8 0 35 -13v-1q0 -1 0.5 -2.5t1 -4.5t0.5 -6q0 -4 0.5 -8t1 -6t0.5 -3z" />
    <glyph glyph-name="cent" unicode="&#xa2;" horiz-adv-x="437" 
d="M193 304q0 8 -5 12q-32 -10 -45 -21q7 -7 38 -16zM403 371q-4 -4 -17 -24q-11 -14 -47 -14q-3 0 -4 1q-1 2 -4 2q-28 0 -37 -16q-4 -9 -8 -42q11 -8 34 -8q1 0 28 3q26 3 27 3q20 0 20 -28q0 -17 -2 -21l-19 -27q-34 -21 -132 -29q-17 -18 -26 -55q-9 -42 -18 -59
q7 -10 7 -18q0 -7 -18 -21q-17 -13 -26 -13q-20 0 -32 28q-9 21 -9 35q0 1 11 48q12 46 12 47q0 17 -49 40q-21 9 -45 44q-22 32 -22 56q0 15 29 55q6 8 22 16l12 11q29 12 105 34q16 -1 46 8q13 11 48 79q5 9 2 16q40 46 60 46q1 0 13 -5q-2 -17 1 -20q14 -23 14 -24
t-3.5 -14t-8.5 -33.5t-11 -43.5q14 -3 33 -19q14 -25 14 -38z" />
    <glyph glyph-name="sterling" unicode="&#xa3;" horiz-adv-x="682" 
d="M150 151q-3 -2 -13 -7.5t-16 -8.5v-11l6 -4q8 2 16 11q8 11 8 17q0 2 -1 3zM719 696q0 -18 -15 -38t-34 -23q-76 51 -114 51q-18 0 -43 -14q-26 -14 -31 -28q-15 -30 -37 -101q-19 -58 -19 -70q0 -24 28 -28q7 0 43 -4q20 -6 55 -21q15 -6 15 -21q0 -2 -3 -17
q0 -4 -0.5 -8.5t-1 -6.5t-0.5 -3q-7 -1 -47 -15l-39 -13q-1 0 -5 0.5t-13 1t-19 0.5l-38 1q-23 2 -37 -39q-5 -15 -13 -45q-16 -19 -16 -25t17 -21q16 -14 27 -25q49 -69 145 -69q15 0 66 18l48 18q25 0 25 -30q0 -34 -20 -56q-14 -14 -65 -43q-31 -17 -77 -17q-10 0 -56 13
q-56 16 -76 28q-4 3 -22.5 18t-31.5 25q-15 15 -28 26q-14 -9 -77 -74q-36 -36 -83 -36q-103 0 -103 128q0 47 15 63q78 80 156 80q8 0 17 -1q9 -2 15 -2q10 0 24 26q11 24 11 31q0 13 -17 16q-37 4 -53 7q-36 8 -47 23q-6 10 -6 39q0 34 10 45q5 0 25 5q6 1 11.5 2t8.5 1.5
t4 0.5t4.5 -0.5t11 -1t15.5 -0.5t15 -0.5t10.5 -1t4.5 -0.5q14 0 29 0.5t16 0.5q6 10 36 101q7 20 55 121q11 24 28 40q18 18 81 47q12 6 61 6q27 0 88 -26q3 -1 39 -17q27 -12 27 -42z" />
    <glyph glyph-name="yen" unicode="&#xa5;" horiz-adv-x="621" 
d="M660 705q0 -32 -14 -41q-113 -75 -193 -158q-4 -1 -22 -10q-1 -1 -6 -5t-13.5 -11t-18.5 -14q-20 -14 -28 -35q-10 -28 -10 -92q0 -24 34 -24q23 1 69 2l68 3q52 1 52 -26q0 -33 -38 -48q-102 -40 -139 -40q-5 0 -10 1q-6 2 -11 2q-19 0 -29 -10q-3 -14 15 -14q1 0 9.5 1
t27 2.5t39.5 3.5l75 5q39 0 39 -31q-4 -11 -22 -38q-38 -18 -67 -28q-69 -10 -141 -27q-7 -1 -15 -20q-1 -1 -13 -31q-23 -9 -36 -22h-30q-16 53 -16 57q-1 4 -10 15q-16 -9 -59 -9q-47 0 -87 14q-21 51 -21 46q2 7 6 20q5 20 5 22q1 1 9 7l93 2q42 1 85 11q1 3 -3.5 6
t-13.5 5q-36 5 -161 6q-33 26 -33 66q0 3 7 16q8 14 8 15q2 0 35 3t39 3h27l36 -1h44q47 0 47 45q0 35 -16 54q-61 63 -166 182q-19 22 -19 46q0 36 19 58q18 -3 55 -17q18 -10 42 -34q84 -114 107 -114l90 59q4 6 8 14q104 87 199 154q6 5 26 5q46 0 46 -51z" />
    <glyph glyph-name="brokenbar" unicode="&#xa6;" horiz-adv-x="236" 
d="M195 218q0 -1 -8 -11q-2 5 -30 -125q1 -9 -5 -25q-2 -16 -2 -38q-1 -2 -3.5 -6t-3.5 -7q0 -2 0.5 -8t0.5 -10q0 -23 -5 -71q-4 -2 -12 -17q0 -5 -0.5 -13.5t-1 -15.5t-1.5 -13q-3 -30 -28 -49q-18 8 -46 32q-6 22 -19 49q2 6 2 10q0 10 -7 21q9 8 0 133q-1 10 10 28
q0 7 -5 32l12 16q9 35 18 74q2 22 7 47q8 15 15 35q21 10 41 10l28 -5q6 -5 24 -34q19 -29 19 -39zM236 734q-1 1 -6 -5q-2 -1 -2 -5q0 -5 4 -12v-7q0 -44 -17 -127q-7 -28 -5 -63q-11 -17 -14 -39v-47q0 -19 -4 -32q-5 -5 -8 -13q-6 -41 -37 -41q-15 0 -34 27l-20 27
q-12 43 -12 86l46 339q0 26 61 26q48 0 48 -114z" />
    <glyph glyph-name="section" unicode="&#xa7;" horiz-adv-x="503" 
d="M342 390q0 39 -41 66t-96 27q-39 0 -46 -9q-22 -25 -22 -32q0 -22 41 -34q7 -3 52 -13q19 -5 105 -34l2 8t1.5 6.5t1.5 5.5l1.5 4.5t0.5 2.5v2zM471 164q0 -59 -63 -107q-59 -46 -130 -46q-64 0 -122 23q-78 30 -110 86q1 5 1 22q-3 5 -5.5 8t-3.5 4.5t-2 0.5q0 29 33 29
q15 0 62 -22l18 -8t17 -7.5t10 -4.5q31 -10 55 -14q4 -1 11 -4q9 -5 13 -5q33 0 65 13q42 16 42 45q0 20 -32 50q-45 40 -121 60q-19 2 -43 7q-84 37 -99 49q-31 25 -31 72q0 37 5 49q1 5 15 31q9 17 9 21q0 3 -19 38q-18 36 -18 37q0 49 6 60q27 55 105 86q77 31 176 28
q4 2 13 6q15 5 17 5q-3 0 24 -6q64 -70 64 -85q0 -40 -32 -40l-46 11q-41 11 -47 11q-77 0 -148 -26q-13 -13 -23 -22q31 -22 140 -35q23 -3 66 -23q13 -8 50 -34q1 -1 11 -27q11 -11 27 -35q10 -20 10 -52q0 -38 -10 -55q-2 -4 -20 -19q-20 -18 -20 -19q18 -18 28 -30
q52 -56 52 -126z" />
    <glyph glyph-name="dieresis" unicode="&#xa8;" horiz-adv-x="322" 
d="M145 741q0 -19 -15 -35q-16 -16 -37 -16t-37 16q-17 15 -17 34q0 32 26 53q31 -12 43 -17q37 -15 37 -35zM346 720q0 -37 -35 -37q-52 0 -52 57q0 26 5 41h34q48 0 48 -61z" />
    <glyph glyph-name="copyright" unicode="&#xa9;" horiz-adv-x="596" 
d="M475 374q0 33 -20 81q-12 27 -103 27q-68 0 -136 -57q83 11 116 11q6 0 23 -11l24 -17q0 -5 4 -21l2 -6t1.5 -5t1 -3.5t0.5 -2.5v-1q0 -12 -23 -21q-7 -4 -21 -4q-1 0 -3 0.5t-6 1t-8 0.5q-10 1 -16 1q-12 0 -34 -8q-27 -12 -27 -28q0 -13 29 -13q5 0 46 7q43 6 45 6
q6 0 18 -12q11 -13 11 -19q0 -74 -117 -74q-52 0 -90 24q-36 24 -36 60q0 103 56 125q-3 2 -9 4q-86 -48 -86 -122q0 -49 43 -81q42 -32 108 -32q24 0 47 9q37 13 55 18q3 3 12 11q45 9 72 63q21 42 21 89zM574 364q-10 -58 -10 -67q-6 -121 -144 -177q-19 -11 -61 -28
q-44 -10 -74 -10q-62 0 -124 29q-66 29 -83 64q-20 22 -40 52q-16 38 -16 70q0 39 16 106q10 17 30 48q3 2 10.5 8t11.5 9q30 41 94 68q49 14 109 34q17 5 66 5q131 0 194 -130q21 -43 21 -81z" />
    <glyph glyph-name="ordfeminine" unicode="&#xaa;" horiz-adv-x="287" 
d="M127 776q-26 -6 -26 -18q0 -20 36 -11q25 6 25 18q0 20 -35 11zM308 696q0 -9 -16 -18q-15 -9 -29 -9h-29q-36 30 -53 30q-3 0 -43 -10q-39 -10 -43 -10q-20 0 -56 16q-22 9 -22 42q0 14 15 44q8 7 19 16q1 2 3 8q12 11 73 35q1 0 7 0.5t12 0.5q40 0 81 -27q2 -2 12 -18
q-5 -12 -7 -24q0 -3 38 -35q38 -33 38 -41z" />
    <glyph glyph-name="guillemotleft" unicode="&#xab;" horiz-adv-x="759" 
d="M373 53q0 -16 -25 -46q-12 1 -33 6q-120 51 -265 106q-10 3 -19 24q-10 20 -10 36q0 35 56 69q21 14 57 48l59 59q22 16 58 39q39 27 60 27q20 0 39 -16t19 -34l-35 -59q-32 -7 -85 -46l-57 -57q-2 -4 -2 -11q0 -15 8 -17q37 -6 103 -51q72 -48 72 -77zM704 49
q0 -18 -25 -46q-12 0 -33 6q-141 60 -265 105q-10 5 -19 24q-10 20 -10 37q0 34 56 69q22 14 57 48l58 60l28.5 19l28.5 19q41 27 63 27q21 0 38 -16q18 -17 18 -33l-34 -60q-34 -9 -85 -45l-58 -57q0 -1 -0.5 -5t-0.5 -7q0 -15 8 -17q39 -6 103 -51q72 -50 72 -77z" />
    <glyph glyph-name="logicalnot" unicode="&#xac;" horiz-adv-x="874" 
d="M844 191q0 -1 -1 -5.5t-4 -15t-5 -20.5q-3 -11 -16 -59l-10 -12q0 -37 -48 -140q-10 -8 -35 -33q-3 -5 -7 -24q-3 -1 -15.5 -6.5t-22.5 -9.5q-4 2 -17 30q-11 23 -11 32q0 22 72 227q0 12 -16 13q-43 4 -89 4q-6 0 -254 -5l-255 -6q-23 0 -47 25q-24 26 -24 49
q0 13 25 27q20 9 29 9l24 -5h1h1h1l1 -1h1h1h1h1l1 -1h1h2q14 -1 187 -1q3 0 39 6t39 6q-7 0 2 -3q7 -2 21 -4q23 -2 55 0l64 3q2 1 31 -4l27 -4q1 0 4 0.5t8.5 1.5t11.5 2q20 4 25 4q3 0 12 -4l6 -2l4.5 -1.5t2.5 -0.5l2 1q3 0 7.5 1t9.5 2q16 4 20 4t56 -5q5 -1 20 -8
q14 -5 22 1q39 -55 39 -68z" />
    <glyph glyph-name="registered" unicode="&#xae;" horiz-adv-x="630" 
d="M311 377q-39 -13 -39 -31q0 -11 14 -8q27 25 25 39zM422 266q-16 -20 -42 -20q-39 0 -87 26q-6 6 -12 13q-6 -31 -10 -47q-2 -3 -9.5 -10t-12.5 -11q-12 8 -39 38q2 6 2 11q-15 39 -12 62q-1 2 -3 5q-1 1 -1 2l-1 1q3 3 6 7q-2 23 4 56q6 3 39 26q44 31 82 31
q41 0 67 -38q16 -23 16 -37q0 -1 -18 -27q-17 -26 -17 -28q0 -9 44 -31q-2 -9 4 -29zM494 322q0 40 -18 71q-12 14 -18 23q-26 76 -111 76q-40 0 -115 -28h-2q-2 1 -4 1l-6 2q-17 0 -50 -27q-34 -28 -41 -45q-15 -51 -15 -76q0 -21 4 -53q1 -3 4.5 -12.5t6.5 -15.5
q79 -54 120 -54q4 0 7 1q2 1 5 1q1 1 2 1t10 -3q7 -3 9 -3l22 5l22 6q68 6 159 88q9 12 9 42zM570 305q0 -63 -32 -99q-34 -39 -127 -86q-28 -14 -76 -14q-5 -1 -13 -2q-9 -1 -15 -1q-23 4 -29 4q-53 -5 -140 39q-30 15 -57 48q-26 35 -30 61q0 1 -8 25q-2 6 -3.5 12t-2.5 9
l-1 3q0 24 17 120l2.5 2.5l2.5 2.5t3 2.5t3 3.5q1 7 9 22q23 31 106 72q3 2 10 5.5t11 4.5q3 0 5 -1q3 -1 6 -1q-4 0 2 2q4 1 16 5q95 27 115 27l8 -6q78 6 133 -69q21 -24 33 -38q7 -14 13 -24q0 -2 6 -22q9 -8 33 -82v-25z" />
    <glyph glyph-name="macron" unicode="&#xaf;" horiz-adv-x="453" 
d="M486 784l-6 -37q-24 -6 -33 -23q-1 0 -5 -0.5t-13 -2t-17 -2.5q-27 -4 -32 -4q-4 0 -27 -4q-21 -4 -27 -4q-32 0 -166 10l-51 -2q-83 -2 -83 70v15v15l1 2v-1q30 21 46 21l5 -1q6 -1 19 -3l26 -4q41 -8 51 -8q7 0 17 2q10 1 17 1q9 0 71 -5q13 -1 97 -13q58 -9 64 -9
q1 0 3 0.5t5 1t6 0.5l12 2q20 0 20 -17z" />
    <glyph glyph-name="degree" unicode="&#xb0;" horiz-adv-x="275" 
d="M212 760q-22 12 -36 12q-11 0 -34 -13q-15 -9 -20 -29q-15 -8 -15 -6v-10q17 -9 32 -9q25 0 32 3q24 13 36 29q7 9 5 23zM294 744q0 -31 -5 -36q-62 -75 -109 -78q-2 -1 -6.5 -3.5t-6.5 -3.5l-14 -7q-57 0 -92 28q-36 27 -36 72q0 77 57 116q29 7 57 10q5 5 10 8
q6 0 18 2q5 0 9.5 0.5t7 1t3.5 0.5q20 0 47 -13q28 -15 35 -27q11 -22 20 -41q5 -9 5 -29z" />
    <glyph glyph-name="plusminus" unicode="&#xb1;" horiz-adv-x="382" 
d="M313 74q0 -18 -46 -34q-83 -32 -138 -32h-51q-48 0 -48 61q0 19 11 39q45 14 64 14l1 -1h9q26 -2 46 -2q23 -1 86 -1q2 1 5 1q10 0 33 -12q28 -16 28 -33zM409 362q0 -6 -8 -22q-9 -16 -14 -18q-51 -27 -94 -27q-2 0 -6 2t-6 2q-29 0 -39 -15q-6 -18 -12 -51
q-3 -6 -27 -56h-39q-15 26 -18 49q0 8 -3 42q-13 11 -48 13q-54 1 -54 54q0 15 26 29q28 14 53 14h2q1 -1 3 -1.5t5 -0.5l10 -2q9 0 39 53t41 53q16 0 37 -26q3 -32 4 -38q3 -23 22 -23q8 0 41 4q35 4 42 4q15 0 29 -14q14 -16 14 -25z" />
    <glyph glyph-name="twosuperior" unicode="&#xb2;" horiz-adv-x="497" 
d="M533 581q-5 -13 -24 -41q-25 -5 -47 -10q1 -1 10 -1q-7 -2 -39 -8q-2 -10 -49 -20q-31 0 -31 -5l3 -3q-38 -11 -85 -19l-2 -2q0 -2 5 -2q-4 -2 -25 -10q-25 -3 -37 -5l-2 -2q0 -1 1 -2q-3 1 -10 -3q5 -2 5 -5q-6 -1 -16 -2t-19 -1v-2q0 -3 5 -3l-91 -6q-54 -5 -54 52
q1 3 6 9q15 15 38 29q6 5 11 14q16 5 31 23q23 6 57 37q7 7 4 12q7 0 20 16q1 0 4 8q2 1 14 9q9 10 53 78q27 44 27 52q0 13 -27 13q-29 0 -77 -23q-6 0 -48 -30q-44 -29 -49 -29q-25 0 -41 31q-7 14 -7 23q0 11 46 42q41 27 60 33q53 21 89 21q11 0 23 1l21 1q19 0 37 -10
q13 -9 19 -13q6 -11 19 -22q14 -20 14 -34q0 -3 -2 -7q-3 -7 -2 -9q-3 0 -7 -3q3 -17 -18 -53q-8 -21 -28 -45q0 -5 -18 -30q-19 -23 -19 -28q-24 -20 -50 -53q0 -2 2 -3q-5 0 -11 -5h10q12 0 14 5q19 5 89 22q26 2 71 18q2 0 20 5t19 5l2 -1h4l6 -2q30 0 49 11q9 -5 27 -18
z" />
    <glyph glyph-name="threesuperior" unicode="&#xb3;" horiz-adv-x="419" 
d="M376 515q0 -50 -131 -103q-112 -44 -160 -44q-6 0 -30 10v34q21 14 112 53q59 26 106 65q-29 21 -78 21q-2 0 -6 -2l-6 -2q-22 0 -51 17q-15 9 -15 30q0 22 8 30q5 3 53 20q7 7 22 17q40 19 66 54q-6 11 -34 11q-17 0 -90 -19l-70 -19q-43 0 -43 38q0 18 5 35
q21 21 67 28q15 3 31.5 5.5t37 5t31.5 4.5q15 6 19 6q67 0 108 -22q12 -5 22 -34q15 -40 15 -49q0 -14 -25 -45q-4 -6 -33 -44q21 -14 46 -35q14 -19 17 -35q0 -2 3 -15t3 -16z" />
    <glyph glyph-name="acute" unicode="&#xb4;" horiz-adv-x="295" 
d="M316 829q0 -24 -103 -82q-34 -13 -37 -14q-98 -60 -120 -60q-39 0 -39 35q0 2 3 14q0 4 0.5 7.5t1.5 5.5v2q39 17 122 51q14 10 21 13q101 48 120 48q8 0 19 -7q12 -6 12 -13z" />
    <glyph glyph-name="mu" unicode="&#xb5;" horiz-adv-x="1216" 
d="M1175 621q0 24 -15 42q-16 19 -40 19q-4 0 -29 -7q-8 -2 -15.5 -4t-11.5 -3t-5 -1q-44 -5 -110 -54q-24 -18 -49 -76q-26 -58 -26 -93q0 -18 7 -22q70 16 165 67q129 69 129 132zM1254 613q0 -86 -135 -173q-45 -31 -166 -72q-20 -6 -58 -19q-30 -13 -30 -45q0 -15 6 -36
q9 -27 19 -27h1q1 0 3 0.5t4.5 1t6 1t7.5 1.5q19 4 25 4q1 0 24 -1.5t82.5 -6t121.5 -9.5q29 -23 29 -42q0 -7 -11 -16q-11 -8 -21 -8q-1 0 -11 2l-10 2l-21 -8q-5 -1 -11 -3q-66 0 -97 -1q-53 -2 -88 -26q3 -16 13 -54q10 -41 10 -45q0 -6 -30 -33q-6 17 -29 17
q-10 0 -16 -4l-4 7q-4 6 -12 19.5t-17 29.5q-24 40 -49 58q-22 -16 -42 -16l-32 -8q-62 -17 -62 51q0 13 4 30q6 27 17 35q13 4 59 6q33 0 44 14q-6 24 -22 69h-11q-82 -22 -242 -58q-20 0 -55 -6q-84 -30 -84 -50q0 -3 10 -16q2 -2 3.5 -4.5t2.5 -4t2 -2.5l2 -2v-1
q16 -58 16 -76q0 -44 -35 -44q-8 0 -25 14t-25 29q-8 18 -17 45q-4 4 -20 28q0 16 -7 38l-42 16q-4 0 -73 -6l-73 -7q-3 0 -47 14q0 3 -8 29l-7 24q0 23 25 27q86 13 114 13l12 -2q3 0 6 -0.5t4.5 -1t2.5 -0.5q22 0 42 10q1 29 -2 39q-17 46 -17 114q0 69 10 135q3 19 28 78
q15 21 27 50q46 50 87 68q16 3 59 15q48 19 102 19q75 0 142 -34q53 -28 82 -63q38 -46 38 -70v-33q-11 -9 -20 -9q-5 0 -61 41q-76 57 -98 65l-68 5q-30 3 -32 3q-4 0 -12 -4l-12 -7q-176 -33 -176 -270q0 -140 36 -140q5 0 41 10q11 3 20.5 5.5t14.5 3.5l4 1q4 0 10 -3
q2 0 4 -0.5t3 -1t2 -0.5q18 0 186 31q56 2 68 3q47 7 70 33q10 71 26 133q24 106 111 173q29 23 113 53q63 24 83 24q82 0 114 -41q10 -17 21 -51q14 -45 15 -40q0 -9 -7 -12q15 -6 15 -24z" />
    <glyph glyph-name="paragraph" unicode="&#xb6;" horiz-adv-x="580" 
d="M344 520l3 28q0 7 -10 40h-17q-20 0 -57 -20q0 -5 -17 -50q-16 -41 -16 -74q0 -16 38 -16q9 1 25 2q7 0 14.5 0.5t11 1t5.5 0.5q15 8 15 22v25q0 2 1.5 15.5t3.5 25.5zM529 420l-3 -53q-4 -80 -7 -263q-1 -94 -8 -104q-17 -9 -34 -9q-27 0 -27 24q-3 114 4 299l6 182
q3 71 -5 98q-3 14 -23 14q-10 0 -16 -8q0 -4 1 -10q1 -7 1 -11v-75l-9 -33q0 -37 -1 -52q-2 -30 -12 -146t-17 -204q-13 -15 -36 -15q-22 0 -25 122q1 -38 1 0q1 37 1 129q0 13 1 31q0 7 0.5 15t1 12t0.5 6l-6 5l-12 -8q-91 -9 -122 -9q-61 0 -104 28t-43 71q0 61 30 94
q29 33 122 76q8 4 65 22q51 17 58 17q1 0 13 -3q4 -1 9 -2h3l12 7q59 15 84 15q4 0 52 -4q1 -1 4.5 -3t9.5 -5.5t12 -7.5q0 -6 1 -11q10 -8 18 -19q3 -32 3 -105q-2 -98 -3 -107z" />
    <glyph glyph-name="periodcentered" unicode="&#xb7;" horiz-adv-x="227" 
d="M166 183q-25 -34 -61 -34q-62 0 -62 41q0 70 37 80h42q36 -21 36 -55q0 -29 8 -32z" />
    <glyph glyph-name="cedilla" unicode="&#xb8;" horiz-adv-x="335" 
d="M359 -145q0 -5 -22 -45q-18 -33 -59 -45q-3 -1 -71 -15l-68 -15q-2 1 -5 1q-4 1 -9 1q-1 0 -45 -6q-41 -7 -46 -7q-12 0 -23 12q-10 11 -10 25q0 43 53 56q11 0 89 4q11 4 38 10q50 7 76 24q-29 18 -43 18q-1 0 -4 -0.5t-10 -1t-14 -0.5q-26 -3 -27 -3q-28 0 -46 20
q-5 12 -13 25q5 2 5 15q0 17 5 29l14 28q3 17 18 47q4 2 36 9q26 -25 29 -64q-2 -4 -2 -21q4 1 25 -1q60 -21 77 -29q41 -23 44 -54q0 -1 4 -8t4 -9z" />
    <glyph glyph-name="onesuperior" unicode="&#xb9;" horiz-adv-x="171" 
d="M183 680q0 -3 -36 -102q0 -12 -2 -22q-13 -31 -23 -59q-1 -17 -17 -54q-8 -3 -19 -14q-10 3 -23 15q-15 14 -15 19v77q0 10 28 70l21 73q13 45 33 51q3 -1 13 -5t17 -6q23 -37 23 -43z" />
    <glyph glyph-name="ordmasculine" unicode="&#xba;" horiz-adv-x="300" 
d="M224 746q-26 23 -60 23q-12 0 -20 -6v-11q16 -16 44 -16zM322 751q0 -22 -17 -45q-17 -24 -39 -28q-4 -3 -11 -7q-10 -7 -13 -7q-2 0 -28 -3q-23 -4 -28 -4q-29 0 -74 17q-12 5 -40 24q-6 12 -21 30q-1 12 -15 30q3 16 15 45q12 15 76 38q5 -1 21 -1l23 5q26 0 84 -26
l2.5 -2.5l2.5 -2.5t2.5 -3t3.5 -3q11 0 24 -8q32 -26 32 -49z" />
    <glyph glyph-name="guillemotright" unicode="&#xbb;" horiz-adv-x="708" 
d="M351 162q0 -12 -10 -35q-9 -21 -19 -24q-141 -53 -266 -106q-8 0 -33 -5q-24 27 -24 45q0 29 72 77q65 44 103 52q7 1 7 17q0 8 -1 10q-21 25 -58 57q-42 38 -84 46l-35 59q0 17 18 34q19 16 39 16q26 0 61 -27q25 -15 58 -38q38 -42 116 -107q56 -35 56 -71zM680 167
q0 -17 -9 -36q-9 -21 -19 -24q-143 -54 -264 -107q-15 0 -34 -4q-25 26 -25 45q0 29 72 78q65 44 103 51q8 1 8 17q0 8 -1 10q-19 23 -57 57q-50 38 -85 46l-35 59q0 17 18 34q17 16 39 16q27 0 61 -27q20 -12 59 -38q37 -42 114 -108q55 -34 55 -69z" />
    <glyph glyph-name="onequarter" unicode="&#xbc;" horiz-adv-x="678" 
d="M671 768q0 -4 -50 -59q-72 -78 -93 -105q-9 -10 -24 -33q-10 -11 -39 -44.5t-67 -77.5t-78 -90q-4 -5 -12 -14t-20 -24t-24 -29q-4 -3 -16 -13t-19 -16q-9 -11 -44 -56q-4 -1 -16 -27q0 -11 -1 -16q-3 -12 -22 -31q-2 -8 -3 -13q-9 -29 -38 -53q-10 -8 -39 -8
q-4 4 -25 16q-1 0 -3.5 -0.5t-7 -1t-7.5 -0.5q-5 3 -8 3q-5 13 -5 15q0 41 76 140q23 26 59 70l26 30q4 4 21.5 24.5t32.5 38.5l206 238q1 1 26 37q31 29 47 47q103 106 120 106q19 0 33 -17q14 -15 14 -37zM697 353q0 -3 -35 -82q-36 -78 -56 -127q0 -12 -12 -52
q-6 -10 -13 -27q-3 -6 -11 -45q-26 -17 -38 -17q-30 0 -33 21q0 -6 0 30q0 8 11 85q2 24 2 29q0 10 -9 18q-75 -13 -115 -13q-4 0 -40 24l-5 22v-1q0 34 18 76q22 52 57 52q10 0 31 -22q3 -25 17 -67q4 -2 37 -2q35 0 39 2q7 5 35 54q-2 6 -2 11q19 38 55 89q3 1 15 1
q52 0 52 -59zM154 625q0 -86 -20 -188q-5 -7 -17 -31q-3 -18 -15 -42q-1 -1 -7 -5q-1 0 -3 0.5l-6 1.5l-8 2q-24 34 -24 41v96q0 52 17 134q-3 9 -3 18q0 10 5 27q11 26 27 26q54 0 54 -80z" />
    <glyph glyph-name="onehalf" unicode="&#xbd;" horiz-adv-x="865" 
d="M235 624q0 -2 -35 -102q-2 -8 -3 -21q-12 -29 -21 -60q-9 -29 -19 -54q-8 -3 -18 -13q-8 1 -24 14q-15 13 -15 19v78q0 6 29 70l21 73q14 45 33 51q3 -2 14 -5.5t16 -5.5q22 -37 22 -44zM883 109q0 -28 -100 -58q-61 -19 -126 -31q-18 -3 -43 -9q-27 -8 -33 -8l-13 2
q-8 1 -18 1l-12 -3q-12 -3 -14 -3q-1 0 -7 3q-5 3 -6 3h-39q0 10 3 13q-44 12 -44 41q0 40 12 52q19 22 69 78v8q-2 2 -9 2q-22 0 -70 -21q-16 -8 -31 -15t-22.5 -10t-8.5 -4q-41 -21 -102 -63q-72 -52 -101 -66q2 -2 -1 -6q-44 -37 -74 -37q-15 0 -42 22q-13 10 -13 28
q0 15 67 103q10 6 16 12q62 85 174 217q4 5 11.5 13.5t20.5 23t23 26.5q18 34 77 110q0 1 2 13q10 4 22 27q10 20 15 25q35 42 67 93l40 62l13 31l3 2l5 5q20 54 47 54q15 0 30 -18q16 -19 16 -33q0 -25 -9 -40q-23 -31 -76 -113q0 -3 -5 -15q-19 -26 -79 -116
q-22 -22 -44 -65q-38 -44 -66 -77q-2 -3 -6.5 -13.5t-8.5 -18.5q-14 -8 -41 -31q-19 -35 -48 -83q2 -2 11 -2q15 0 58 18q4 2 60 25q84 32 139 32q27 0 41 -10q27 -21 27 -34q0 -34 -26 -81q-2 -5 -6 -12t-10 -18t-11 -19v-18q2 0 119 18t139 18q38 0 38 -30z" />
    <glyph glyph-name="threequarters" unicode="&#xbe;" horiz-adv-x="912" 
d="M367 473q0 -51 -132 -103q-109 -44 -161 -44q-11 3 -28 10v34q23 14 112 53q64 29 105 64q-27 21 -77 21q-1 0 -7 -2q-3 -1 -6 -1q-22 0 -50 16q-15 9 -15 31q0 21 8 29q4 4 52 20q16 13 22 18q41 18 67 54q-6 10 -34 10q-22 0 -91 -19t-71 -19q-42 0 -42 38q0 15 5 35
q4 6 12 9q49 16 156 35q14 6 18 6q66 0 108 -22q12 -6 22 -34q16 -42 16 -49q0 -14 -25 -46q-6 -8 -35 -44q17 -9 47 -36q15 -18 18 -34q0 -1 3 -15t3 -15zM912 359q-1 -2 -4.5 -8t-10.5 -18.5t-13 -24.5q-20 -37 -40 -77q0 -7 -5 -20q-26 -47 -52 -144q-19 -71 -46 -71
q-40 0 -40 51q0 40 16 98q21 81 25 81v-3q0 4 -6 10h-11q-8 -5 -22 -9q-17 -2 -36.5 -4t-27 -3t-8.5 -1q-37 0 -74 27q-1 5 -1 16q0 40 26 89q23 44 57 75q5 4 39 5q10 -10 14 -15q13 -19 13 -42q0 -15 -17 -36q-19 -26 -20 -33q1 -2 11 -2q44 0 94 20l27 27q0 3 2 13
q11 9 23 34q10 22 32 33q2 0 6.5 0.5t7.5 0.5q41 0 41 -69zM941 757q-94 -55 -316 -280l-67 -67q-56 -44 -156 -150q-7 -6 -26 -22.5t-26 -22.5q-4 -6 -73 -92q-28 -40 -62 -92q-10 0 -13 3q-1 0 -10 -3t-12 -3q-8 0 -25 14t-17 21q0 44 41 91q107 119 168 177l137 137
q84 87 222 218q62 59 141 118q27 20 56 20q42 0 38 -67z" />
    <glyph glyph-name="questiondown" unicode="&#xbf;" horiz-adv-x="546" 
d="M565 -107q-6 -13 -10 -32q-31 -24 -54 -32q-58 -22 -90 -22h-124q-196 0 -277 86l-3 35l-4 31q0 5 8 16q-6 17 8 43q47 84 169 126q29 11 205 50q6 2 15 9q8 18 19 60q0 45 12 133q4 13 15 44q4 11 -2 31q8 8 14 13q67 0 67 -63q-6 -18 -12 -45q-3 -76 -24 -193
q1 -23 -12 -68q-11 -20 -39 -20q-3 0 -6 2q-3 1 -7 1l-30 -7q-23 -2 -68 -9q-21 -7 -65.5 -21.5t-57.5 -18.5l-57 -33q-51 -34 -51 -58q0 -46 149 -46h1q1 0 3.5 -0.5t6.5 -0.5t10 -0.5t12 -0.5q20 -1 34 -1l192 11q18 1 53 -20zM583 645q0 -16 -21 -37t-38 -21
q-14 0 -34 16q-21 18 -21 29q0 3 7 20q8 19 8 21q12 12 20 12t51 -9q28 -7 28 -31z" />
    <glyph glyph-name="Agrave" unicode="&#xc0;" horiz-adv-x="592" 
d="M549 700q0 -15 -14 -38q-124 33 -291 121q-5 3 -5 34q0 22 4 28t15 6q5 0 17.5 -4.5t22.5 -8.5l10 -4l120 -54q71 -32 107 -51q14 -19 14 -29zM611 294q0 2 -12 26t-12 26q-24 111 -37 179q-2 3 -7 8q0 27 -2 47q-5 25 -10 48q-6 27 -29 45q-20 -26 -50 -97
q-3 -14 -19 -30l-25 -27q-17 -33 -62 -110q-11 -9 -19 -19q-4 -12 -31 -63q2 -2 83 -14q57 -4 166 -18q29 -13 43 -13h18q5 8 5 12zM776 169q0 -39 -47 -39h-39q-3 0 -30 18q-24 17 -35 22q-61 24 -119 36q-137 27 -220 27q-10 0 -17 -7l-10 7q-41 -1 -75 -72
q-14 -16 -35 -44q0 -1 -7 -26q-5 -12 -18 -32q-20 -16 -59 -50q-19 13 -35 22q-18 13 -18 35q0 31 5 41q29 30 74 96q2 2 2 6q0 -4 -2 1l-6 30q-3 20 10 30q8 6 37 16q34 14 44 31q2 1 41 66q7 6 32 33q48 82 144 231q2 12 7 26l65 109q0 2 2 22l34 47l14 6q43 0 67 -75
q0 -1 26 -77q21 -67 31 -106q18 -110 34 -180q15 -64 63 -176q0 -1 8 -13t15 -24q17 -26 17 -37z" />
    <glyph glyph-name="Aacute" unicode="&#xc1;" horiz-adv-x="583" 
d="M528 823q0 -24 -103 -82q-34 -13 -37 -14q-98 -60 -120 -60q-39 0 -39 35q0 2 3 14q0 4 0.5 7.5t1.5 5.5v2q39 17 122 51q14 10 21 13q101 48 120 48q8 0 19 -7q12 -6 12 -13zM611 294q0 2 -12 26t-12 26q-24 111 -37 179q-2 3 -7 8q0 27 -2 47q-5 25 -10 48
q-6 27 -29 45q-20 -26 -50 -97q-3 -14 -19 -30l-25 -27q-17 -33 -62 -110q-11 -9 -19 -19q-4 -12 -31 -63q2 -2 83 -14q57 -4 166 -18q29 -13 43 -13h18q5 8 5 12zM776 169q0 -39 -47 -39h-39q-3 0 -30 18q-24 17 -35 22q-61 24 -119 36q-137 27 -220 27q-10 0 -17 -7l-10 7
q-41 -1 -75 -72q-14 -16 -35 -44q0 -1 -7 -26q-5 -12 -18 -32q-20 -16 -59 -50q-19 13 -35 22q-18 13 -18 35q0 31 5 41q29 30 74 96q2 2 2 6q0 -4 -2 1l-6 30q-3 20 10 30q8 6 37 16q34 14 44 31q2 1 41 66q7 6 32 33q48 82 144 231q2 12 7 26l65 109q0 2 2 22l34 47l14 6
q43 0 67 -75q0 -1 26 -77q21 -67 31 -106q18 -110 34 -180q15 -64 63 -176q0 -1 8 -13t15 -24q17 -26 17 -37z" />
    <glyph glyph-name="Acircumflex" unicode="&#xc2;" horiz-adv-x="607" 
d="M613 665q0 -26 -33 -26q-1 0 -3 0.5t-5.5 1t-7.5 0.5q-15 3 -16 3q-8 0 -72 51q-66 51 -72 51q-16 0 -27 -11q-11 -14 -14 -18q-39 -30 -69 -51q-8 -6 -43 -6q-26 0 -38 21q-7 19 -12 38q33 8 88 54l88 72q15 1 55 -17q41 -20 51 -33q42 -29 78 -56q52 -39 52 -74z
M611 294q0 2 -12 26t-12 26q-24 111 -37 179q-2 3 -7 8q0 27 -2 47q-5 25 -10 48q-6 27 -29 45q-20 -26 -50 -97q-3 -14 -19 -30l-25 -27q-17 -33 -62 -110q-11 -9 -19 -19q-4 -12 -31 -63q2 -2 83 -14q57 -4 166 -18q29 -13 43 -13h18q5 8 5 12zM776 169q0 -39 -47 -39h-39
q-3 0 -30 18q-24 17 -35 22q-61 24 -119 36q-137 27 -220 27q-10 0 -17 -7l-10 7q-41 -1 -75 -72q-14 -16 -35 -44q0 -1 -7 -26q-5 -12 -18 -32q-20 -16 -59 -50q-19 13 -35 22q-18 13 -18 35q0 31 5 41q29 30 74 96q2 2 2 6q0 -4 -2 1l-6 30q-3 20 10 30q8 6 37 16
q34 14 44 31q2 1 41 66q7 6 32 33q48 82 144 231q2 12 7 26l65 109q0 2 2 22l34 47l14 6q43 0 67 -75q0 -1 26 -77q21 -67 31 -106q18 -110 34 -180q15 -64 63 -176q0 -1 8 -13t15 -24q17 -26 17 -37z" />
    <glyph glyph-name="Atilde" unicode="&#xc3;" horiz-adv-x="597" 
d="M675 843v-20q0 -7 -19 -20q0 -12 -2 -22q-113 -88 -170 -88q-22 0 -85 42t-57 42q-14 0 -69 -48l-55 -47h-2q-2 1 -5.5 1.5t-6.5 0.5t-6 0.5t-5 1.5h-2q-14 34 -14 49q0 3 8 9l7 7q18 26 93 83q1 0 4 0.5t5 0.5q20 14 39 14q46 0 88 -38q49 -43 65 -43q20 0 99 39l76 40z
M611 294q0 2 -12 26t-12 26q-24 111 -37 179q-2 3 -7 8q0 27 -2 47q-5 25 -10 48q-6 27 -29 45q-20 -26 -50 -97q-3 -14 -19 -30l-25 -27q-17 -33 -62 -110q-11 -9 -19 -19q-4 -12 -31 -63q2 -2 83 -14q57 -4 166 -18q29 -13 43 -13h18q5 8 5 12zM776 169q0 -39 -47 -39h-39
q-3 0 -30 18q-24 17 -35 22q-61 24 -119 36q-137 27 -220 27q-10 0 -17 -7l-10 7q-41 -1 -75 -72q-14 -16 -35 -44q0 -1 -7 -26q-5 -12 -18 -32q-20 -16 -59 -50q-19 13 -35 22q-18 13 -18 35q0 31 5 41q29 30 74 96q2 2 2 6q0 -4 -2 1l-6 30q-3 20 10 30q8 6 37 16
q34 14 44 31q2 1 41 66q7 6 32 33q48 82 144 231q2 12 7 26l65 109q0 2 2 22l34 47l14 6q43 0 67 -75q0 -1 26 -77q21 -67 31 -106q18 -110 34 -180q15 -64 63 -176q0 -1 8 -13t15 -24q17 -26 17 -37z" />
    <glyph glyph-name="Adieresis" unicode="&#xc4;" horiz-adv-x="583" 
d="M335 776q0 -18 -15 -35q-16 -16 -37 -16t-37 16q-17 15 -17 34q0 32 26 53q31 -12 43 -17q37 -15 37 -35zM536 755q0 -37 -35 -37q-52 0 -52 57q0 26 5 41h34q48 0 48 -61zM611 294q0 2 -12 26t-12 26q-24 111 -37 179q-2 3 -7 8q0 27 -2 47q-5 25 -10 48q-6 27 -29 45
q-20 -26 -50 -97q-3 -14 -19 -30l-25 -27q-17 -33 -62 -110q-11 -9 -19 -19q-4 -12 -31 -63q2 -2 83 -14q57 -4 166 -18q29 -13 43 -13h18q5 8 5 12zM776 169q0 -39 -47 -39h-39q-3 0 -30 18q-24 17 -35 22q-61 24 -119 36q-137 27 -220 27q-10 0 -17 -7l-10 7
q-41 -1 -75 -72q-14 -16 -35 -44q0 -1 -7 -26q-5 -12 -18 -32q-20 -16 -59 -50q-19 13 -35 22q-18 13 -18 35q0 31 5 41q29 30 74 96q2 2 2 6q0 -4 -2 1l-6 30q-3 20 10 30q8 6 37 16q34 14 44 31q2 1 41 66q7 6 32 33q48 82 144 231q2 12 7 26l65 109q0 2 2 22l34 47l14 6
q43 0 67 -75q0 -1 26 -77q21 -67 31 -106q18 -110 34 -180q15 -64 63 -176q0 -1 8 -13t15 -24q17 -26 17 -37z" />
    <glyph glyph-name="Aring" unicode="&#xc5;" horiz-adv-x="592" 
d="M516 947q0 25 -93 35q-10 -1 -24 -1q-2 -2 -14 -8q-30 -27 -30 -42v-13q2 -1 10.5 -6.5t14.5 -8.5q7 -4 31 -4q27 0 57 9q48 14 48 39zM592 945q0 -23 -9 -48q-5 -15 -35 -41q-46 -19 -51 -21q-43 -17 -83 -17q-39 0 -84 24q-53 27 -53 65q9 52 7 69q-3 22 54 60
q37 23 105 23q26 0 68 -13q19 -7 59 -34q22 -57 22 -67zM611 294q0 2 -12 26t-12 26q-24 111 -37 179q-2 3 -7 8q0 27 -2 47q-5 25 -10 48q-6 27 -29 45q-20 -26 -50 -97q-3 -14 -19 -30l-25 -27q-17 -33 -62 -110q-11 -9 -19 -19q-4 -12 -31 -63q2 -2 83 -14q57 -4 166 -18
q29 -13 43 -13h18q5 8 5 12zM776 169q0 -39 -47 -39h-39q-3 0 -30 18q-24 17 -35 22q-61 24 -119 36q-137 27 -220 27q-10 0 -17 -7l-10 7q-41 -1 -75 -72q-14 -16 -35 -44q0 -1 -7 -26q-5 -12 -18 -32q-20 -16 -59 -50q-19 13 -35 22q-18 13 -18 35q0 31 5 41q29 30 74 96
q2 2 2 6q0 -4 -2 1l-6 30q-3 20 10 30q8 6 37 16q34 14 44 31q2 1 41 66q7 6 32 33q48 82 144 231q2 12 7 26l65 109q0 2 2 22l34 47l14 6q43 0 67 -75q0 -1 26 -77q21 -67 31 -106q18 -110 34 -180q15 -64 63 -176q0 -1 8 -13t15 -24q17 -26 17 -37z" />
    <glyph glyph-name="AE" unicode="&#xc6;" horiz-adv-x="935" 
d="M528 336q0 1 -2 19l-2 13v99q0 23 -15 50q-19 -13 -94 -101q-73 -83 -73 -92v-16h75q1 1 23 6q39 5 88 22zM939 350q0 -20 -29 -29q-64 -19 -191 -55q-40 -8 -93 -28q-5 -40 -5 -61q0 -53 27 -58l227 35q6 4 10 4q11 0 26 -12q14 -11 14 -19q0 -38 -137 -77
q-114 -33 -162 -33q-92 0 -92 82q0 17 5 45q-1 19 -11 71q-6 7 -13 7q-9 0 -90 -10l-90 -10h-4q-4 1 -12 1.5t-17 0.5t-17 0.5t-12 1.5h-4q-15 0 -39 -27q-16 -14 -29 -27q-6 -8 -25 -35.5t-33 -47.5q-48 -68 -69 -68h-33q-19 39 -19 51q0 19 19 42q26 31 34 48q22 42 50 73
q42 46 64 72q11 13 59 74t90 112q9 10 25 28t44 49t51 57q13 17 76 109q11 17 27 20q52 8 138 16q6 1 145 1q86 0 86 -33q0 -42 -103 -51q-9 -1 -24.5 -2t-41 -2.5t-47.5 -3.5q-87 -7 -122 -36q10 -42 17 -63q0 -2 -6 -7q5 -45 8 -87l5 -59q6 -62 20 -62q1 0 81 13l14 10
q23 3 85 12q54 9 59 9q64 0 64 -41z" />
    <glyph glyph-name="Ccedilla" unicode="&#xc7;" horiz-adv-x="898" 
d="M644 -154q0 -5 -22 -45q-18 -33 -59 -45q-3 -1 -71 -15l-68 -15q-2 1 -5 1q-4 1 -9 1q-2 0 -45 -6q-41 -7 -46 -7q-13 0 -23 12q-10 11 -10 25q0 43 53 56q11 0 89 4q11 4 38 10q50 7 76 24q-28 18 -43 18q-1 0 -4 -0.5t-10 -1t-14 -0.5q-25 -3 -27 -3q-28 0 -46 20
q-5 12 -13 25q5 2 5 15q0 17 5 29l14 28q3 17 18 47q5 1 36 9q26 -25 29 -64q-2 -4 -2 -21q4 1 25 -1q60 -21 77 -29q41 -23 44 -54q0 -1 4 -8t4 -9zM1030 97q-11 -9 -24 -16q-175 -52 -247 -52q-1 0 -15 3q-3 1 -6.5 2t-5.5 1.5t-3 0.5l-3 -1q-2 -1 -6.5 -2.5t-9.5 -3.5
q-15 -7 -20 -7q-62 -3 -135 -7q-18 -6 -24 -6q-4 0 -9 4l-10 4q-4 0 -17 -6l-15 -5q-4 -1 -43 -1q-46 0 -101 13q-58 12 -98 20q-14 2 -20.5 7.5t-5.5 15.5q-46 18 -65 32q-71 53 -119 133q0 14 -3 40q-6 23 -8 22q0 31 29 98q15 32 74 85q78 74 149 107q217 99 344 125
q2 1 36 13q84 12 155 22l3 1l9 3t13 4q21 7 25 7q27 0 49 -18t22 -39q0 -12 -11 -32q-7 -6 -27 -16q-49 -2 -118 -11q-17 -7 -55 -17q-20 -5 -65.5 -15.5t-69.5 -16.5q-96 -23 -293 -133q-30 -16 -59 -34q-54 -33 -86 -104q-5 -10 -5 -54q0 -48 57 -87q50 -37 110 -47
q3 0 39 -9q32 -9 36 -9l27 2q19 2 40 2q8 0 32 -4t29 -4q14 2 43 6q41 7 55 7l401 26q19 1 23 -16v-4q1 -4 1.5 -12t0.5 -17z" />
    <glyph glyph-name="Egrave" unicode="&#xc8;" horiz-adv-x="687" 
d="M540 659q0 -15 -14 -38q-124 33 -291 121q-5 3 -5 34q0 22 4 28t15 6q5 0 17.5 -4t22.5 -8l10 -5l120 -54q71 -32 107 -51q14 -19 14 -29zM985 709q-31 -14 -48 -14q8 0 -2 -3l-25 -5l-24 2h-13l-13 -5q-9 -4 -14 -4q-51 -3 -109 -13l-138 -20l-8 2l-10 2q11 0 -282 -48
q-39 -48 -54 -171q20 -10 44 -10q1 0 2.5 0.5t5 1.5t6.5 2q11 4 14 4t12 -3t10 -3q71 0 239 5l151 5q22 0 25 -10l3.5 -17.5t3.5 -19.5q-26 -19 -107 -38q-64 -17 -194 -17q-80 0 -235 -21q-16 -3 -22 -23l-5 -25q-34 -84 -34 -114v-22q2 -1 7 -2t8 -2l376 51q12 0 66 4h8
l56 4q5 0 16 -7q6 -1 72 -1q1 0 4 0.5t10 1.5l14 2l26 4q31 0 65 -14q9 -31 11 -29q0 -15 -20 -32q-19 -16 -37 -16h-1q-1 0 -2.5 0.5t-4 1t-4.5 0.5q-7 2 -13 2q-3 0 -23 -7l-8 -2t-6.5 -2t-5 -1.5t-3.5 -1t-2 -0.5l-205 -18q-54 -5 -243 -34l-154 -24q-14 0 -72 14
q-52 14 -71 14q-6 18 -6 19q0 2 21 66q26 76 32 98l25 90q0 -3 -7 8l-15 23q0 9 -10 36q22 13 62 48q8 9 36 115l-1 23l6 7q7 7 7 12q0 10 -21 20q-19 10 -34 10q-10 38 -10 49q0 24 29 35q61 22 147 22q2 0 6 -2q3 -2 5 -2q6 0 16 5l10 4l4 1q50 2 313 17l196 12
q11 1 81 -27q3 -1 35 -1q19 -1 30 -12z" />
    <glyph glyph-name="Eacute" unicode="&#xc9;" horiz-adv-x="689" 
d="M550 769q0 -24 -103 -82q-34 -13 -37 -14q-98 -60 -120 -60q-39 0 -39 35q0 2 3 14q0 4 0.5 7.5t1.5 5.5v2q39 17 122 51q14 10 21 13q101 48 120 48q8 0 19 -7q12 -6 12 -13zM985 709q-31 -14 -48 -14q8 0 -2 -3l-25 -5l-24 2h-13l-13 -5q-9 -4 -14 -4q-51 -3 -109 -13
l-138 -20l-8 2l-10 2q11 0 -282 -48q-39 -48 -54 -171q20 -10 44 -10q1 0 2.5 0.5t5 1.5t6.5 2q11 4 14 4t12 -3t10 -3q71 0 239 5l151 5q22 0 25 -10l3.5 -17.5t3.5 -19.5q-26 -19 -107 -38q-64 -17 -194 -17q-80 0 -235 -21q-16 -3 -22 -23l-5 -25q-34 -84 -34 -114v-22
q2 -1 7 -2t8 -2l376 51q12 0 66 4h8l56 4q5 0 16 -7q6 -1 72 -1q1 0 4 0.5t10 1.5l14 2l26 4q31 0 65 -14q9 -31 11 -29q0 -15 -20 -32q-19 -16 -37 -16h-1q-1 0 -2.5 0.5t-4 1t-4.5 0.5q-7 2 -13 2q-3 0 -23 -7l-8 -2t-6.5 -2t-5 -1.5t-3.5 -1t-2 -0.5l-205 -18
q-54 -5 -243 -34l-154 -24q-14 0 -72 14q-52 14 -71 14q-6 18 -6 19q0 2 21 66q26 76 32 98l25 90q0 -3 -7 8l-15 23q0 9 -10 36q22 13 62 48q8 9 36 115l-1 23l6 7q7 7 7 12q0 10 -21 20q-19 10 -34 10q-10 38 -10 49q0 24 29 35q61 22 147 22q2 0 6 -2q3 -2 5 -2q6 0 16 5
l10 4l4 1q50 2 313 17l196 12q11 1 81 -27q3 -1 35 -1q19 -1 30 -12z" />
    <glyph glyph-name="Ecircumflex" unicode="&#xca;" horiz-adv-x="690" 
d="M607 643q0 -26 -33 -26q-1 0 -3 0.5t-5.5 1t-7.5 0.5q-15 3 -16 3q-8 0 -72 51q-66 51 -72 51q-16 0 -27 -11q-11 -14 -14 -18q-39 -30 -69 -51q-8 -6 -43 -6q-26 0 -38 21q-7 19 -12 38q33 8 88 54l88 72q15 1 55 -17q41 -20 51 -33q42 -29 78 -56q52 -39 52 -74z
M985 709q-31 -14 -48 -14q8 0 -2 -3l-25 -5l-24 2h-13l-13 -5q-9 -4 -14 -4q-51 -3 -109 -13l-138 -20l-8 2l-10 2q11 0 -282 -48q-39 -48 -54 -171q20 -10 44 -10q1 0 2.5 0.5t5 1.5t6.5 2q11 4 14 4t12 -3t10 -3q71 0 239 5l151 5q22 0 25 -10l3.5 -17.5t3.5 -19.5
q-26 -19 -107 -38q-64 -17 -194 -17q-80 0 -235 -21q-16 -3 -22 -23l-5 -25q-34 -84 -34 -114v-22q2 -1 7 -2t8 -2l376 51q12 0 66 4h8l56 4q5 0 16 -7q6 -1 72 -1q1 0 4 0.5t10 1.5l14 2l26 4q31 0 65 -14q9 -31 11 -29q0 -15 -20 -32q-19 -16 -37 -16h-1q-1 0 -2.5 0.5
t-4 1t-4.5 0.5q-7 2 -13 2q-3 0 -23 -7l-8 -2t-6.5 -2t-5 -1.5t-3.5 -1t-2 -0.5l-205 -18q-54 -5 -243 -34l-154 -24q-14 0 -72 14q-52 14 -71 14q-6 18 -6 19q0 2 21 66q26 76 32 98l25 90q0 -3 -7 8l-15 23q0 9 -10 36q22 13 62 48q8 9 36 115l-1 23l6 7q7 7 7 12
q0 10 -21 20q-19 10 -34 10q-10 38 -10 49q0 24 29 35q61 22 147 22q2 0 6 -2q3 -2 5 -2q6 0 16 5l10 4l4 1q50 2 313 17l196 12q11 1 81 -27q3 -1 35 -1q19 -1 30 -12z" />
    <glyph glyph-name="Edieresis" unicode="&#xcb;" horiz-adv-x="688" 
d="M347 713q0 -19 -15 -35q-16 -16 -37 -16t-37 16q-17 15 -17 34q0 32 26 53q31 -12 43 -17q37 -15 37 -35zM548 692q0 -37 -35 -37q-52 0 -52 57q0 26 5 41h34q48 0 48 -61zM985 709q-31 -14 -48 -14q8 0 -2 -3l-25 -5l-24 2h-13l-13 -5q-9 -4 -14 -4q-51 -3 -109 -13
l-138 -20l-8 2l-10 2q11 0 -282 -48q-39 -48 -54 -171q20 -10 44 -10q1 0 2.5 0.5t5 1.5t6.5 2q11 4 14 4t12 -3t10 -3q71 0 239 5l151 5q22 0 25 -10l3.5 -17.5t3.5 -19.5q-26 -19 -107 -38q-64 -17 -194 -17q-80 0 -235 -21q-16 -3 -22 -23l-5 -25q-34 -84 -34 -114v-22
q2 -1 7 -2t8 -2l376 51q12 0 66 4h8l56 4q5 0 16 -7q6 -1 72 -1q1 0 4 0.5t10 1.5l14 2l26 4q31 0 65 -14q9 -31 11 -29q0 -15 -20 -32q-19 -16 -37 -16h-1q-1 0 -2.5 0.5t-4 1t-4.5 0.5q-7 2 -13 2q-3 0 -23 -7l-8 -2t-6.5 -2t-5 -1.5t-3.5 -1t-2 -0.5l-205 -18
q-54 -5 -243 -34l-154 -24q-14 0 -72 14q-52 14 -71 14q-6 18 -6 19q0 2 21 66q26 76 32 98l25 90q0 -3 -7 8l-15 23q0 9 -10 36q22 13 62 48q8 9 36 115l-1 23l6 7q7 7 7 12q0 10 -21 20q-19 10 -34 10q-10 38 -10 49q0 24 29 35q61 22 147 22q2 0 6 -2q3 -2 5 -2q6 0 16 5
l10 4l4 1q50 2 313 17l196 12q11 1 81 -27q3 -1 35 -1q19 -1 30 -12z" />
    <glyph glyph-name="Igrave" unicode="&#xcc;" horiz-adv-x="258" 
d="M331 643q0 -15 -14 -38q-124 33 -291 121q-5 3 -5 34q0 22 4 28t15 6q5 0 17.5 -4t22.5 -8l10 -5l120 -54q71 -32 107 -51q14 -19 14 -29zM259 662q0 -4 -22 -116q-24 -114 -39 -162q0 -2 -2 -12t-5 -28t-7 -39q-24 -135 -53 -271q-12 -9 -23 -17q-7 4 -24 21
q-10 17 -10 110q0 386 78 520q41 72 68 72q39 0 39 -78z" />
    <glyph glyph-name="Iacute" unicode="&#xcd;" horiz-adv-x="244" 
d="M313 775q0 -24 -103 -82q-34 -13 -37 -14q-97 -60 -120 -60q-39 0 -39 35q0 2 3 14q0 4 0.5 7.5t0.5 5.5l1 2q39 17 122 51q14 10 21 13q100 48 120 48q8 0 19 -7q12 -6 12 -13zM239 662q0 -4 -22 -116q-24 -114 -39 -162q0 -2 -2 -12t-5 -28t-7 -39q-24 -135 -53 -271
q-12 -9 -23 -17q-7 4 -24 21q-10 17 -10 110q0 386 78 520q40 72 68 72q39 0 39 -78z" />
    <glyph glyph-name="Icircumflex" unicode="&#xce;" horiz-adv-x="338" 
d="M433 637q0 -26 -33 -26q-1 0 -3 0.5t-5.5 1t-7.5 0.5q-15 3 -16 3q-8 0 -72 51q-66 51 -72 51q-16 0 -27 -11q-11 -14 -14 -18q-39 -30 -69 -51q-8 -6 -43 -6q-26 0 -38 21q-7 19 -12 38q33 8 88 54l88 72q15 1 55 -17q41 -20 51 -33q42 -29 78 -56q52 -39 52 -74z
M293 662q0 -4 -22 -116q-24 -114 -39 -162q0 -2 -2 -12t-5 -28t-7 -39q-24 -135 -53 -271q-12 -9 -23 -17q-7 4 -24 21q-10 17 -10 110q0 386 78 520q40 72 68 72q39 0 39 -78z" />
    <glyph glyph-name="Idieresis" unicode="&#xcf;" horiz-adv-x="252" 
d="M126 675q0 -19 -15 -35q-16 -16 -37 -16t-37 16q-17 15 -17 34q0 32 26 53q31 -12 43 -17q37 -15 37 -35zM327 654q0 -37 -35 -37q-52 0 -52 57q0 26 5 41h34q48 0 48 -61zM259 662q0 -4 -22 -116q-24 -114 -39 -162q0 -2 -2 -12t-5 -28t-7 -39q-24 -135 -53 -271
q-12 -9 -23 -17q-7 4 -24 21q-10 17 -10 110q0 386 78 520q41 72 68 72q39 0 39 -78z" />
    <glyph glyph-name="Eth" unicode="&#xd0;" horiz-adv-x="1150" 
d="M1044 511q0 158 -445 189l-88 7l-49 -4q-44 -4 -65 -4q-37 -133 -37 -140v-2q1 -2 1.5 -5t0.5 -6l2 -11l22 -4l16 -4q-4 0 57 3q60 3 77 3q1 0 3 -0.5t6.5 -1t9.5 -0.5q4 0 8.5 -0.5t7 -0.5h3.5q6 0 32 -9q24 -7 30 -13l7 -33q0 -24 -21 -24q-1 0 -7 2q-3 2 -7 2
q2 0 -21.5 -3.5t-96.5 -15t-143 -22.5q-6 -6 -13 -15q-10 -43 -17 -87q-5 -27 -9 -90q-4 -6 -7 -8q0 -9 -5 -42l-5 -30q0 -15 5 -25l39 3q41 0 225 75q150 59 182 76q30 16 141 80q1 2 22 20q23 10 76 57q63 56 63 83zM1157 514q0 -30 -24 -80q-20 -41 -115 -117
q-97 -76 -153 -95q-9 -10 -22 -22q-57 -23 -97 -41q-19 -14 -32 -21q-22 -9 -141 -59l-33 -7q-19 -10 -69 -33q-27 -11 -103 -33q-81 -23 -95 -23q-23 0 -31 10q-50 55 -73 97q-1 2 -1 26v4q1 4 2.5 12.5t2.5 17.5q5 37 5 40q2 4 7 8q19 125 29 188q-9 7 -16 7q-1 0 -6.5 -1
t-19.5 -3l-28 -4q-51 -9 -54 -9q-78 0 -78 79q0 43 73 43q7 0 13 -1q3 -1 7 -1l4 -1q48 0 115 16q10 6 16 13q29 130 29 148q0 16 -26 16l-178 -16q-19 0 -40 22q-22 21 -22 39q0 39 20 44q36 8 99 11q62 2 103 7q103 15 320 15q14 0 169 -17q25 -11 38 -11q1 0 7 2q3 3 6 3
q7 0 84 -21q88 -24 130 -41l63 -39q45 -29 68 -59q10 -14 29 -57q18 -45 18 -56z" />
    <glyph glyph-name="Ntilde" unicode="&#xd1;" horiz-adv-x="673" 
d="M770 827v-20q0 -7 -19 -20q0 -12 -2 -22q-113 -88 -170 -88q-22 0 -85 42t-57 42q-13 0 -69 -48l-55 -47h-2q-2 1 -5.5 1.5t-6.5 0.5t-6 0.5t-5 1.5h-2q-14 34 -14 49q0 3 8 9l7 7q18 26 93 83q1 0 4 0.5t5 0.5q20 14 39 14q46 0 88 -38q49 -43 65 -43q19 0 99 39l76 40z
M934 768q0 -10 -34 -92q0 -17 -4 -40q-1 -5 -7 -23.5t-11 -31.5q-14 -28 -43 -94q-7 -19 -27 -87q-3 -22 -12 -63l-53 -117q-32 -68 -38 -115q-17 -45 -17 -51q0 -5 4 -13q-3 -1 -39 -16q-25 -12 -29 -12q-10 0 -29 12q-19 11 -25 21q-34 57 -112 248q-4 26 -23 82
q-4 7 -19 40q-1 26 -8 51q-11 43 -61 144q-21 -8 -43 -57q-16 -42 -51 -126q-36 -60 -84 -150q-13 -34 -48 -115q-15 -11 -31 -35q-5 -1 -13 -1q-20 0 -39 22q-21 23 -21 41l161 324q12 25 80 151q7 21 25 64q19 43 52 43q21 0 40 -19q26 -26 38 -50q36 -79 72 -184
q3 -7 31 -114q1 -2 4.5 -6.5t5.5 -8.5q25 -76 29 -86q20 -56 49 -102q15 19 44 76q42 83 79 170q18 67 58 180q3 3 10.5 13t12.5 16q3 21 4 26q21 37 23 41q11 7 30 28q5 17 23 43q4 2 12 2q34 0 34 -29z" />
    <glyph glyph-name="Ograve" unicode="&#xd2;" horiz-adv-x="867" 
d="M579 683q0 -15 -14 -38q-124 33 -291 121q-5 3 -5 34q0 22 4 28t15 6q5 0 17.5 -4t22.5 -8l10 -5l120 -54q71 -32 107 -51q14 -19 14 -29zM1017 464q0 42 -39 93q-24 33 -109 67t-131 34q-6 0 -19 -2t-19 -2q-4 0 -64 12q-6 -1 -18.5 -5.5t-18.5 -6.5q-12 -3 -29.5 -4.5
t-38.5 -1.5t-30 -1q-2 0 -12.5 3.5t-12.5 3.5q-7 -3 -20 -10t-17 -9q-10 -4 -28 -8t-39.5 -8.5t-29.5 -6.5q-71 -18 -104 -45q0 -3 2.5 -9.5t2.5 -9.5q0 -13 -41 -39q-43 -25 -72 -66q-35 -53 -35 -91l6 -5q0 -3 -0.5 -9.5t-0.5 -10.5q0 -62 34 -110t87.5 -75t112 -40.5
t115.5 -13.5q134 0 334 105q43 23 74.5 43t68.5 50.5t58 67.5t24 78q0 5 4.5 16t4.5 16zM1095 383l-31 -50l5 -9l-1 1q-1 0 -3.5 -6t-2.5 -7q-2 -6 -7 -17t-8 -17l-16 -16q-21 -29 -25 -33q-66 -70 -241 -160q-45 -23 -154 -54q-125 -34 -176 -34q-32 0 -119 30
q-59 20 -102 40t-83 49t-65 64.5t-39.5 84.5t-14.5 110q0 8 6 23.5t7 21.5q2 9 4 27.5t3 28.5q6 7 39 59t102 117q3 4 29 12q10 8 22 16q2 2 71.5 25.5t79.5 26.5q48 11 142.5 20t150.5 9q202 0 333 -93q86 -61 86 -196q0 -33 -4 -60q12 -5 12 -13z" />
    <glyph glyph-name="Oacute" unicode="&#xd3;" horiz-adv-x="872" 
d="M573 774q0 -24 -103 -82q-34 -13 -37 -14q-97 -60 -120 -60q-39 0 -39 35q0 2 3 14q0 4 0.5 7.5t0.5 5.5l1 2q39 17 122 51q14 10 21 13q100 48 120 48q8 0 19 -7q12 -6 12 -13zM1017 464q0 42 -39 93q-24 33 -109 67t-131 34q-6 0 -19 -2t-19 -2q-4 0 -64 12
q-6 -1 -18.5 -5.5t-18.5 -6.5q-12 -3 -29.5 -4.5t-38.5 -1.5t-30 -1q-2 0 -12.5 3.5t-12.5 3.5q-7 -3 -20 -10t-17 -9q-10 -4 -28 -8t-39.5 -8.5t-29.5 -6.5q-71 -18 -104 -45q0 -3 2.5 -9.5t2.5 -9.5q0 -13 -41 -39q-43 -25 -72 -66q-35 -53 -35 -91l6 -5q0 -3 -0.5 -9.5
t-0.5 -10.5q0 -62 34 -110t87.5 -75t112 -40.5t115.5 -13.5q134 0 334 105q43 23 74.5 43t68.5 50.5t58 67.5t24 78q0 5 4.5 16t4.5 16zM1095 383l-31 -50l5 -9l-1 1q-1 0 -3.5 -6t-2.5 -7q-2 -6 -7 -17t-8 -17l-16 -16q-21 -29 -25 -33q-66 -70 -241 -160q-45 -23 -154 -54
q-125 -34 -176 -34q-32 0 -119 30q-59 20 -102 40t-83 49t-65 64.5t-39.5 84.5t-14.5 110q0 8 6 23.5t7 21.5q2 9 4 27.5t3 28.5q6 7 39 59t102 117q3 4 29 12q10 8 22 16q2 2 71.5 25.5t79.5 26.5q48 11 142.5 20t150.5 9q202 0 333 -93q86 -61 86 -196q0 -33 -4 -60
q12 -5 12 -13z" />
    <glyph glyph-name="Ocircumflex" unicode="&#xd4;" horiz-adv-x="832" 
d="M605 658q0 -6 -3 -17q-2 -5 -19 -5q-22 0 -45 7q-81 84 -92 84q-1 0 -57 -50q-53 -49 -64 -49q-25 0 -29 15l2 23v4q-5 10 -5 15q0 9 20 25q9 5 26 17q10 10 50 59q32 39 56 39q7 -3 32 -25l39 -32q1 -2 2.5 -6t2.5 -6q36 -28 66 -62q18 -21 18 -36zM1017 464
q0 42 -39 93q-24 33 -109 67t-131 34q-6 0 -19 -2t-19 -2q-4 0 -64 12q-6 -1 -18.5 -5.5t-18.5 -6.5q-12 -3 -29.5 -4.5t-38.5 -1.5t-30 -1q-2 0 -12.5 3.5t-12.5 3.5q-7 -3 -20 -10t-17 -9q-10 -4 -28 -8t-39.5 -8.5t-29.5 -6.5q-71 -18 -104 -45q0 -3 2.5 -9.5t2.5 -9.5
q0 -13 -41 -39q-43 -25 -72 -66q-35 -53 -35 -91l6 -5q0 -3 -0.5 -9.5t-0.5 -10.5q0 -62 34 -110t87.5 -75t112 -40.5t115.5 -13.5q134 0 334 105q43 23 74.5 43t68.5 50.5t58 67.5t24 78q0 5 4.5 16t4.5 16zM1095 383l-31 -50l5 -9l-1 1q-1 0 -3.5 -6t-2.5 -7q-2 -6 -7 -17
t-8 -17l-16 -16q-21 -29 -25 -33q-66 -70 -241 -160q-45 -23 -154 -54q-125 -34 -176 -34q-32 0 -119 30q-59 20 -102 40t-83 49t-65 64.5t-39.5 84.5t-14.5 110q0 8 6 23.5t7 21.5q2 9 4 27.5t3 28.5q6 7 39 59t102 117q3 4 29 12q10 8 22 16q2 2 71.5 25.5t79.5 26.5
q48 11 142.5 20t150.5 9q202 0 333 -93q86 -61 86 -196q0 -33 -4 -60q12 -5 12 -13z" />
    <glyph glyph-name="Otilde" unicode="&#xd5;" horiz-adv-x="828" 
d="M720 801v-20q0 -7 -19 -20q0 -12 -2 -22q-113 -88 -170 -88q-22 0 -85 42t-57 42q-13 0 -69 -48l-55 -47h-2q-2 1 -5.5 1.5t-6.5 0.5t-6 0.5t-5 1.5h-2q-14 34 -14 49q0 3 8 9l7 7q18 26 93 83q1 0 4 0.5t5 0.5q20 14 39 14q46 0 88 -38q49 -43 65 -43q19 0 99 39l76 40
q1 0 3 -0.5t5 -1.5zM1017 464q0 42 -39 93q-24 33 -109 67t-131 34q-6 0 -19 -2t-19 -2q-4 0 -64 12q-6 -1 -18.5 -5.5t-18.5 -6.5q-12 -3 -29.5 -4.5t-38.5 -1.5t-30 -1q-2 0 -12.5 3.5t-12.5 3.5q-7 -3 -20 -10t-17 -9q-10 -4 -28 -8t-39.5 -8.5t-29.5 -6.5
q-71 -18 -104 -45q0 -3 2.5 -9.5t2.5 -9.5q0 -13 -41 -39q-43 -25 -72 -66q-35 -53 -35 -91l6 -5q0 -3 -0.5 -9.5t-0.5 -10.5q0 -62 34 -110t87.5 -75t112 -40.5t115.5 -13.5q134 0 334 105q43 23 74.5 43t68.5 50.5t58 67.5t24 78q0 5 4.5 16t4.5 16zM1095 383l-31 -50
l5 -9l-1 1q-1 0 -3.5 -6t-2.5 -7q-2 -6 -7 -17t-8 -17l-16 -16q-21 -29 -25 -33q-66 -70 -241 -160q-45 -23 -154 -54q-125 -34 -176 -34q-32 0 -119 30q-59 20 -102 40t-83 49t-65 64.5t-39.5 84.5t-14.5 110q0 8 6 23.5t7 21.5q2 9 4 27.5t3 28.5q6 7 39 59t102 117
q3 4 29 12q10 8 22 16q2 2 71.5 25.5t79.5 26.5q48 11 142.5 20t150.5 9q202 0 333 -93q86 -61 86 -196q0 -33 -4 -60q12 -5 12 -13z" />
    <glyph glyph-name="Odieresis" unicode="&#xd6;" horiz-adv-x="832" 
d="M364 693q0 -19 -15 -35q-16 -16 -37 -16t-37 16q-17 15 -17 34q0 32 26 53q31 -12 43 -17q37 -15 37 -35zM565 672q0 -37 -35 -37q-52 0 -52 57q0 26 5 41h34q48 0 48 -61zM1017 464q0 42 -39 93q-24 33 -109 67t-131 34q-6 0 -19 -2t-19 -2q-4 0 -64 12
q-6 -1 -18.5 -5.5t-18.5 -6.5q-12 -3 -29.5 -4.5t-38.5 -1.5t-30 -1q-2 0 -12.5 3.5t-12.5 3.5q-7 -3 -20 -10t-17 -9q-10 -4 -28 -8t-39.5 -8.5t-29.5 -6.5q-71 -18 -104 -45q0 -3 2.5 -9.5t2.5 -9.5q0 -13 -41 -39q-43 -25 -72 -66q-35 -53 -35 -91l6 -5q0 -3 -0.5 -9.5
t-0.5 -10.5q0 -62 34 -110t87.5 -75t112 -40.5t115.5 -13.5q134 0 334 105q43 23 74.5 43t68.5 50.5t58 67.5t24 78q0 5 4.5 16t4.5 16zM1095 383l-31 -50l5 -9l-1 1q-1 0 -3.5 -6t-2.5 -7q-2 -6 -7 -17t-8 -17l-16 -16q-21 -29 -25 -33q-66 -70 -241 -160q-45 -23 -154 -54
q-125 -34 -176 -34q-32 0 -119 30q-59 20 -102 40t-83 49t-65 64.5t-39.5 84.5t-14.5 110q0 8 6 23.5t7 21.5q2 9 4 27.5t3 28.5q6 7 39 59t102 117q3 4 29 12q10 8 22 16q2 2 71.5 25.5t79.5 26.5q48 11 142.5 20t150.5 9q202 0 333 -93q86 -61 86 -196q0 -33 -4 -60
q12 -5 12 -13z" />
    <glyph glyph-name="multiply" unicode="&#xd7;" horiz-adv-x="473" 
d="M472 291q0 -7 -11 -23q-12 -16 -21 -21q-41 -22 -95 -67q4 -4 33 -39t49 -59q-12 -22 -14 -31q-14 -14 -37 -14q-17 0 -58 29q-10 9 -39 30q-21 6 -33 16q-12 -12 -16 -13q-10 -3 -27 -11q-6 -11 -18 -25q-8 -2 -19 -10q-12 -17 -34 -46q1 5 4 12q6 12 10 9
q-29 -7 -29 -24v-6q-2 0 -17 -4q-18 -5 -19 -5q-28 0 -40 36q-8 25 -10 26q0 -1 -1 -3q0 22 17 44q20 25 26 34q48 22 76 56q8 12 17 22q-14 14 -19 14q-2 0 -8 -2q2 0 10 4q-6 2 -10 4q-13 18 -49 75q-5 20 -10 36q18 21 70 21q10 0 25 -5q13 -14 39 -40q36 -38 46 -38
q3 3 18 11q6 0 55 27q44 25 73 25h3q3 -1 9.5 -1.5t13.5 -0.5q16 -2 30 -2q0 -1 5 -21q5 -15 5 -20z" />
    <glyph glyph-name="Oslash" unicode="&#xd8;" horiz-adv-x="748" 
d="M510 519q0 2 -11 13h-41q-41 0 -101 -18q-9 5 -20 0q-38 -12 -114 -47q-49 -31 -82 -79q-32 -49 -32 -89q0 -7 20 -37q24 -37 41 -37q2 0 146 123q28 24 102 84q92 78 92 87zM638 376q0 66 -34 81q-102 -89 -240 -200q-68 -56 -68 -62v-13q36 -12 70 -12q72 0 148 33
q61 25 85 54q39 50 39 119zM765 620q0 -18 -20 -40q-12 -12 -41 -34q-25 -21 -25 -26q0 2 1 2q4 0 26 -60q28 -71 28 -122t-39 -141q-17 -24 -72 -63l-7 -3q-7 -3 -24.5 -9.5t-36.5 -14.5q-8 -3 -19.5 -7t-28.5 -11t-30 -12q-41 -16 -81 -16q-78 0 -122 9q-24 4 -40 9
q-5 1 -21 5q-6 2 0 2q-42 0 -93 -78q-14 -21 -35 -21q-14 0 -30 19t-16 32q0 10 28 58q3 5 5.5 10t5 9t4.5 7.5t4 6t3.5 5t2.5 4t1.5 2.5t0.5 2h1q0 4 -27 36q-34 40 -40 53q-11 19 -11 78q0 160 194 274q23 4 44 10q63 28 116 28l3 -1q2 0 7 -0.5t10 -0.5q12 -2 20 -2
q3 0 18 4q18 3 21 3q2 0 17 -3q13 -4 17 -4q52 0 61 -2q3 0 28 -12q25 -11 26 -11l2 2q2 1 6.5 4.5t11 8t16 11.5t20.5 14q56 40 68 40q42 0 42 -54z" />
    <glyph glyph-name="Ugrave" unicode="&#xd9;" horiz-adv-x="762" 
d="M552 631q0 -15 -14 -38q-124 33 -291 121q-5 3 -5 34q0 22 4 28t15 6q5 0 17.5 -4t22.5 -8l10 -5l120 -54q71 -32 107 -51q14 -19 14 -29zM1036 610l-17 -11q4 0 8 -2q-11 -46 -38 -107q-28 -61 -42 -102q-8 -10 -14 -16q-3 -22 -14 -39q-3 -4 -32.5 -39t-50.5 -61
q-48 -37 -74 -56q-4 -13 -6 -19q-12 -7 -89 -55q-54 -34 -101 -47q-4 -7 -23 -21q-60 -26 -104 -26l-4 -1q-4 0 -12.5 -0.5t-17.5 -0.5q-23 -2 -36 -2q-70 0 -159 37q-100 40 -125 90q-54 105 -63 164q-12 77 -12 132l5 6q-1 21 -3 37q9 50 43 123q50 113 105 113l45 -34
q-11 -14 -14 -42q-34 -20 -44 -50l-21 -55q-19 -38 -19 -82q0 -110 13 -156q7 -27 35 -74q18 -32 51 -57q42 -31 55 -37q14 -7 50 -7h58q15 0 116 34q96 32 108 40q36 25 87 59q43 37 133 112q21 35 64 97q24 38 44 83q19 43 19 55v97v40q0 4 -1 9q2 -1 7.5 -1t8.5 -1
q-2 -4 -3 -21h-8q-1 0 -6 1q2 34 35 34q5 0 49 -18q0 -8 5 -40l5 -28q0 -7 -5 -17l-3 -7l-1 -1v-32q0 -5 -2 -11q-1 0 -1 -1l-1 -1q1 0 1 1q1 1 3 2z" />
    <glyph glyph-name="Uacute" unicode="&#xda;" horiz-adv-x="762" 
d="M585 759q0 -24 -103 -82q-34 -13 -37 -14q-97 -60 -120 -60q-39 0 -39 35q0 2 3 14q0 4 0.5 7.5t0.5 5.5l1 2q39 17 122 51q14 10 21 13q100 48 120 48q8 0 19 -7q12 -6 12 -13zM1036 610l-17 -11q4 0 8 -2q-11 -46 -38 -107q-28 -61 -42 -102q-8 -10 -14 -16
q-3 -22 -14 -39q-3 -4 -32.5 -39t-50.5 -61q-48 -37 -74 -56q-4 -13 -6 -19q-12 -7 -89 -55q-54 -34 -101 -47q-4 -7 -23 -21q-60 -26 -104 -26l-4 -1q-4 0 -12.5 -0.5t-17.5 -0.5q-23 -2 -36 -2q-70 0 -159 37q-100 40 -125 90q-54 105 -63 164q-12 77 -12 132l5 6
q-1 21 -3 37q9 50 43 123q50 113 105 113l45 -34q-11 -14 -14 -42q-34 -20 -44 -50l-21 -55q-19 -38 -19 -82q0 -110 13 -156q7 -27 35 -74q18 -32 51 -57q42 -31 55 -37q14 -7 50 -7h58q15 0 116 34q96 32 108 40q36 25 87 59q43 37 133 112q21 35 64 97q24 38 44 83
q19 43 19 55v97v40q0 4 -1 9q2 -1 7.5 -1t8.5 -1q-2 -4 -3 -21h-8q-1 0 -6 1q2 34 35 34q5 0 49 -18q0 -8 5 -40l5 -28q0 -7 -5 -17l-3 -7l-1 -1v-32q0 -5 -2 -11q-1 0 -1 -1l-1 -1q1 0 1 1q1 1 3 2z" />
    <glyph glyph-name="Ucircumflex" unicode="&#xdb;" horiz-adv-x="762" 
d="M523 772q0 -6 -3 -17q-2 -5 -19 -5q-22 0 -45 7q-81 84 -92 84q-1 0 -57 -50q-53 -49 -64 -49q-25 0 -29 15l2 23v4q-5 10 -5 15q0 9 20 25q9 5 26 17q10 10 50 59q31 39 56 39q7 -3 32 -25l39 -32q1 -2 2.5 -6t2.5 -6q36 -28 66 -62q18 -21 18 -36zM1036 610l-17 -11
q4 0 8 -2q-11 -46 -38 -107q-28 -61 -42 -102q-8 -10 -14 -16q-3 -22 -14 -39q-3 -4 -32.5 -39t-50.5 -61q-48 -37 -74 -56q-4 -13 -6 -19q-12 -7 -89 -55q-54 -34 -101 -47q-4 -7 -23 -21q-60 -26 -104 -26l-4 -1q-4 0 -12.5 -0.5t-17.5 -0.5q-23 -2 -36 -2q-70 0 -159 37
q-100 40 -125 90q-54 105 -63 164q-12 77 -12 132l5 6q-1 21 -3 37q9 50 43 123q50 113 105 113l45 -34q-11 -14 -14 -42q-34 -20 -44 -50l-21 -55q-19 -38 -19 -82q0 -110 13 -156q7 -27 35 -74q18 -32 51 -57q42 -31 55 -37q14 -7 50 -7h58q15 0 116 34q96 32 108 40
q36 25 87 59q43 37 133 112q21 35 64 97q24 38 44 83q19 43 19 55v97v40q0 4 -1 9q2 -1 7.5 -1t8.5 -1q-2 -4 -3 -21h-8q-1 0 -6 1q2 34 35 34q5 0 49 -18q0 -8 5 -40l5 -28q0 -7 -5 -17l-3 -7l-1 -1v-32q0 -5 -2 -11q-1 0 -1 -1l-1 -1q1 0 1 1q1 1 3 2z" />
    <glyph glyph-name="Udieresis" unicode="&#xdc;" horiz-adv-x="766" 
d="M363 687q0 -19 -15 -35q-16 -16 -37 -16t-37 16q-17 15 -17 34q0 32 26 53q31 -12 43 -17q37 -15 37 -35zM564 666q0 -37 -35 -37q-52 0 -52 57q0 26 5 41h34q48 0 48 -61zM1036 610l-17 -11q4 0 8 -2q-11 -46 -38 -107q-28 -61 -42 -102q-8 -10 -14 -16q-3 -22 -14 -39
q-3 -4 -32.5 -39t-50.5 -61q-48 -37 -74 -56q-4 -13 -6 -19q-12 -7 -89 -55q-54 -34 -101 -47q-4 -7 -23 -21q-60 -26 -104 -26l-4 -1q-4 0 -12.5 -0.5t-17.5 -0.5q-23 -2 -36 -2q-70 0 -159 37q-100 40 -125 90q-54 105 -63 164q-12 77 -12 132l5 6q-1 21 -3 37
q9 50 43 123q50 113 105 113l45 -34q-11 -14 -14 -42q-34 -20 -44 -50l-21 -55q-19 -38 -19 -82q0 -110 13 -156q7 -27 35 -74q18 -32 51 -57q42 -31 55 -37q14 -7 50 -7h58q15 0 116 34q96 32 108 40q36 25 87 59q43 37 133 112q21 35 64 97q24 38 44 83q19 43 19 55v97v40
q0 4 -1 9q2 -1 7.5 -1t8.5 -1q-2 -4 -3 -21h-8q-1 0 -6 1q2 34 35 34q5 0 49 -18q0 -8 5 -40l5 -28q0 -7 -5 -17l-3 -7l-1 -1v-32q0 -5 -2 -11q-1 0 -1 -1l-1 -1q1 0 1 1q1 1 3 2z" />
    <glyph glyph-name="Yacute" unicode="&#xdd;" horiz-adv-x="511" 
d="M417 747q0 -24 -103 -82q-34 -13 -37 -14q-97 -60 -120 -60q-39 0 -39 35q0 2 3 14q0 4 0.5 7.5t0.5 5.5l1 2q39 17 122 51q14 10 21 13q100 48 120 48q8 0 19 -7q12 -6 12 -13zM667 591q-24 -28 -70 -73q-64 -64 -96 -100q-37 -43 -71 -79q-7 -8 -34.5 -37.5
t-48.5 -52.5q-28 -39 -82 -125q-8 -16 -18 -38q-11 -35 -14 -43q-15 -42 -40 -42q-11 5 -56 30q-2 25 2 44q55 122 91 176q6 10 25 21l2 13q7 12 56 68q2 6 4 9q-8 2 -16 2q-2 0 -48 -10q-44 -10 -52 -10q-36 0 -73 23q-37 25 -53 57q-32 66 -46 119q-7 28 -7 50q0 35 18 79
h49q1 -6 27 -25l15 -107q26 -92 98 -92q62 0 188 95q10 8 38.5 29t65 47.5t74.5 53.5q21 15 41 15q17 0 36 -21q17 -19 17 -29q0 -20 -22 -47z" />
    <glyph glyph-name="Thorn" unicode="&#xde;" horiz-adv-x="687" 
d="M626 528q0 14 -24 27l-71 3q-34 2 -36 2l-2 1q-62 0 -164 -18q-60 -11 -102 -24q-25 -5 -60 -21q-13 -23 -13 -54q0 -2 2 -50q0 -1 -0.5 -3.5t-1.5 -7t-2 -9.5q-4 -15 -4 -18q0 -20 10 -39q87 20 248 72q93 39 105 45q59 30 93 67q9 10 22 27zM736 502q0 -24 -33 -67
q-19 -24 -133 -80q-13 -7 -64 -29q-43 -19 -73 -22q-4 -4 -27 -14q-35 -9 -213 -71l-42 -2q-8 -5 -8 -21q0 -8 5 -27q5 -20 5 -27v-64q0 -37 -16 -63l-56 -16h1q-62 0 -62 133l1 4q1 5 2.5 15.5t3.5 21.5q7 35 7 41v116q14 107 14 118q-7 58 -7 60q-6 40 4 63q19 12 20 39
q0 5 1 20.5t2 27.5q3 13 15 44l-2 31q0 1 5 11q5 9 5 12q0 13 4 36q3 31 5 35q9 14 25 14q36 0 48 -19q25 -41 25 -64q0 -27 -22 -124q6 -14 25 -14q1 0 21 6q17 7 23 7q23 3 60 9q33 6 51 3q2 0 18 6l6 2t5 1.5t3.5 1t2.5 0.5h1q1 0 4.5 -0.5t11 -1.5t15.5 -2q25 -4 31 -4
q10 0 27 2q18 1 30 1q147 0 192 -68q33 -49 33 -81z" />
    <glyph glyph-name="germandbls" unicode="&#xdf;" horiz-adv-x="582" 
d="M562 626q0 -24 -29 -67q-8 -11 -89 -86q-63 -55 -69 -99q94 -63 118 -84q57 -49 57 -91q0 -3 -35 -46q-17 -26 -46 -62q-2 -2 -8 -6.5t-19 -14.5t-25 -20q-38 -29 -39 -41q-44 -35 -56 -35q-15 0 -53 32v24q0 19 24 61q13 12 32 29q1 0 11 2q45 38 79 78q2 6 16 33
q-1 1 -23 21q-2 2 -51 27q-26 11 -59 40q-11 18 -38 41v47q7 6 16 20q0 15 10 38q18 25 109 103q64 55 64 97q0 34 -51 34q-15 0 -53 -26q-20 -16 -40 -30q-10 -11 -51 -59q-1 -5 -10 -27q-3 -4 -13 -14q-2 -19 -10 -48q-31 -60 -38 -96q-9 -47 -22 -147q-9 -9 -13 -18
q-1 -17 -11 -73q-4 -11 -8 -23q-6 -44 -24 -133l-3 -4q-2 -4 -8 -13l-12 -18l-16 -5h2q-20 0 -56 39q0 3 -4 15q-4 11 -4 14q11 32 14 44q0 19 19 88q19 67 19 73q5 79 28 176q16 72 33 120l16 20q11 23 40 78q2 2 20 22q12 31 51 68q12 12 59 40q44 27 52 27q20 0 45 -13
q12 0 20 -2q49 -19 103 -58q7 -17 10 -24q19 -41 19 -68z" />
    <glyph glyph-name="agrave" unicode="&#xe0;" horiz-adv-x="512" 
d="M408 337q0 -15 -14 -38q-124 33 -291 121q-5 3 -5 34q0 22 4 28t15 6q5 0 17.5 -4t22.5 -8l10 -5l120 -54q71 -32 107 -51q14 -19 14 -29zM526 18q0 -19 -10 -33q-10 -15 -24 -15q-19 4 -110 52q-56 30 -57 30q-18 0 -57 -17q-56 -24 -58 -25q-30 -10 -65 -10
q-40 0 -100 54q-21 30 -21 53q0 30 20 82q5 12 29 23l30 14q104 64 193 64q27 0 65 -14q11 -4 29 -34t18 -43q0 -25 -29 -43q-59 34 -94 34q-36 0 -75 -18q-48 -22 -76 -49q3 -15 34 -15q-6 0 22 10q16 6 41 14q72 24 115 24q11 0 72 -52q71 -59 97 -71q11 -11 11 -15z" />
    <glyph glyph-name="aacute" unicode="&#xe1;" horiz-adv-x="433" 
d="M385 455q0 -24 -103 -82q-34 -13 -37 -14q-97 -60 -120 -60q-39 0 -39 35q0 2 3 14q0 4 0.5 7.5t0.5 5.5l1 2q39 17 122 51q14 10 21 13q100 48 120 48q8 0 19 -7q12 -6 12 -13zM526 18q0 -19 -10 -33q-10 -15 -24 -15q-19 4 -110 52q-56 30 -57 30q-18 0 -57 -17
q-56 -24 -58 -25q-30 -10 -65 -10q-40 0 -100 54q-21 30 -21 53q0 30 20 82q5 12 29 23l30 14q104 64 193 64q27 0 65 -14q11 -4 29 -34t18 -43q0 -25 -29 -43q-59 34 -94 34q-36 0 -75 -18q-48 -22 -76 -49q3 -15 34 -15q-6 0 22 10q16 6 41 14q72 24 115 24q11 0 72 -52
q71 -59 97 -71q11 -11 11 -15z" />
    <glyph glyph-name="acircumflex" unicode="&#xe2;" horiz-adv-x="506" 
d="M462 326q0 -26 -33 -26q-1 0 -3 0.5t-5.5 1t-7.5 0.5q-15 3 -16 3q-7 0 -72 51q-66 51 -72 51q-16 0 -27 -11q-11 -14 -14 -18q-39 -30 -69 -51q-8 -6 -43 -6q-26 0 -38 21q-7 19 -12 38q33 8 88 54l88 72q15 1 55 -17q41 -20 51 -33q42 -29 78 -56q52 -39 52 -74z
M526 18q0 -19 -10 -33q-10 -15 -24 -15q-19 4 -110 52q-56 30 -57 30q-18 0 -57 -17q-56 -24 -58 -25q-30 -10 -65 -10q-40 0 -100 54q-21 30 -21 53q0 30 20 82q5 12 29 23l30 14q104 64 193 64q27 0 65 -14q11 -4 29 -34t18 -43q0 -25 -29 -43q-59 34 -94 34
q-36 0 -75 -18q-48 -22 -76 -49q3 -15 34 -15q-6 0 22 10q16 6 41 14q72 24 115 24q11 0 72 -52q71 -59 97 -71q11 -11 11 -15z" />
    <glyph glyph-name="atilde" unicode="&#xe3;" horiz-adv-x="510" 
d="M521 492v-20q0 -7 -19 -20q0 -12 -2 -22q-113 -88 -170 -88q-22 0 -85 42t-57 42q-14 0 -69 -48l-55 -47l-2 1q-2 0 -5.5 0.5t-6.5 0.5t-6 0.5t-5 0.5l-2 1q-14 34 -14 49q0 3 8 9l7 7q18 26 93 83q1 0 4 0.5t5 0.5q20 14 39 14q46 0 88 -38q49 -43 65 -43q20 0 99 39
l76 40zM526 18q0 -19 -10 -33q-10 -15 -24 -15q-19 4 -110 52q-56 30 -57 30q-18 0 -57 -17q-56 -24 -58 -25q-30 -10 -65 -10q-40 0 -100 54q-21 30 -21 53q0 30 20 82q5 12 29 23l30 14q104 64 193 64q27 0 65 -14q11 -4 29 -34t18 -43q0 -25 -29 -43q-59 34 -94 34
q-36 0 -75 -18q-48 -22 -76 -49q3 -15 34 -15q-6 0 22 10q16 6 41 14q72 24 115 24q11 0 72 -52q71 -59 97 -71q11 -11 11 -15z" />
    <glyph glyph-name="adieresis" unicode="&#xe4;" horiz-adv-x="459" 
d="M210 388q0 -18 -15 -35q-16 -16 -37 -16t-37 16q-17 15 -17 34q0 32 26 53q31 -12 43 -17q37 -15 37 -35zM411 367q0 -37 -35 -37q-52 0 -52 57q0 26 5 41h34q48 0 48 -61zM526 18q0 -19 -10 -33q-10 -15 -24 -15q-19 4 -110 52q-56 30 -57 30q-18 0 -57 -17
q-56 -24 -58 -25q-30 -10 -65 -10q-40 0 -100 54q-21 30 -21 53q0 30 20 82q5 12 29 23l30 14q104 64 193 64q27 0 65 -14q11 -4 29 -34t18 -43q0 -25 -29 -43q-59 34 -94 34q-36 0 -75 -18q-48 -22 -76 -49q3 -15 34 -15q-6 0 22 10q16 6 41 14q72 24 115 24q11 0 72 -52
q71 -59 97 -71q11 -11 11 -15z" />
    <glyph glyph-name="aring" unicode="&#xe5;" horiz-adv-x="467" 
d="M346 490q0 24 -93 35q-10 -1 -24 -1q-2 -2 -14 -8q-30 -27 -30 -42v-13q2 -1 10.5 -6.5t14.5 -8.5q7 -4 31 -4q27 0 57 9q48 13 48 39zM422 488q0 -22 -9 -48q-5 -15 -35 -41q-46 -19 -51 -21q-43 -17 -83 -17q-39 0 -84 24q-53 27 -53 65q9 52 7 69q-3 23 54 60
q37 23 105 23q26 0 68 -13q19 -7 59 -34q22 -57 22 -67zM526 18q0 -19 -10 -33q-10 -15 -24 -15q-19 4 -110 52q-56 30 -57 30q-18 0 -57 -17q-56 -24 -58 -25q-30 -10 -65 -10q-40 0 -100 54q-21 30 -21 53q0 30 20 82q5 12 29 23l30 14q104 64 193 64q27 0 65 -14
q11 -4 29 -34t18 -43q0 -25 -29 -43q-59 34 -94 34q-36 0 -75 -18q-48 -22 -76 -49q3 -15 34 -15q-6 0 22 10q16 6 41 14q72 24 115 24q11 0 72 -52q71 -59 97 -71q11 -11 11 -15z" />
    <glyph glyph-name="ae" unicode="&#xe6;" horiz-adv-x="534" 
d="M206 139h-17q-10 0 -37 -9q-32 -12 -32 -24q0 -6 9 -14h24q12 0 32 19q21 19 21 28zM395 234q0 6 -9 14h-24q-12 0 -32 -18q-21 -19 -22 -30h17q9 0 37 11q33 11 33 23zM496 82q0 -14 -1 -19q-4 -7 -19 -21q-42 -17 -59 -17l-8 2l-8 2q-4 -1 -39 -1q-52 0 -103 30
q-5 -8 -45 -29q-40 -22 -53 -22l-13 5q-12 6 -14 6h-2q-1 -1 -3 -1.5t-4 -0.5q-6 -1 -11 -1q-17 0 -31 14q-23 22 -32 27q-17 35 -17 62q0 33 17 54q4 7 61 47q-7 7 -44 12q-38 3 -49 7q-2 8 -2 20q0 10 2 20q7 9 20 20q47 18 60 18q1 0 3 -1t5.5 -2t6.5 -2q77 1 140 -29
q6 9 47 30t52 21l13 -5q12 -6 15 -6h1q2 1 4 1.5t5 0.5l10 2q12 0 28 -14q8 -6 19.5 -16t15.5 -13q18 -36 18 -60q0 -31 -18 -55q-6 -8 -62 -47q7 -6 47 -12q42 -4 45 -7q2 -8 2 -20z" />
    <glyph glyph-name="ccedilla" unicode="&#xe7;" horiz-adv-x="461" 
d="M436 -158q0 -5 -22 -45q-18 -33 -59 -45q-3 -1 -71 -15l-68 -15q-2 1 -5 1q-4 1 -9 1q-2 0 -45 -6q-41 -7 -46 -7q-13 0 -23 12q-10 11 -10 25q0 43 53 56q11 0 89 4q11 4 38 10q50 7 76 24q-28 18 -43 18q-1 0 -4 -0.5t-10 -1t-14 -0.5q-25 -3 -27 -3q-28 0 -46 20
q-5 12 -13 25q5 2 5 15q0 17 5 29l14 28q3 17 18 47q5 1 36 9q26 -25 29 -64q-2 -4 -2 -21q4 1 25 -1q60 -21 77 -29q41 -23 44 -54q0 -1 4 -8t4 -9zM499 89v-14q0 -44 -49 -44q-1 0 -7 2l-8 2q-3 0 -29 -12q-28 -13 -34 -14q-81 -18 -117 -18q-7 0 -15 2q-9 2 -20 0
q-13 -7 -24 -7q-50 0 -100 30q-50 29 -64 70l-12 32q0 38 16 63q20 38 82 87q30 22 72 40q84 37 125 37q1 0 3 -0.5t7 -1t10 -0.5q18 -3 21 -3q46 0 60 -10q15 -12 15 -45q0 -2 -7 -15l-8 -14q-9 -6 -27 -6h-2q-2 1 -5 1.5t-6 0.5t-6.5 0.5t-5 1t-2.5 0.5q-62 0 -192 -73
q-33 -17 -45 -63q58 -42 124 -42q1 0 7.5 0.5t22 2t32.5 2.5l61 4q3 0 48 6q43 7 48 7q19 0 31 -9z" />
    <glyph glyph-name="egrave" unicode="&#xe8;" horiz-adv-x="490" 
d="M395 418q0 -15 -14 -38q-124 33 -291 121q-5 3 -5 34q0 22 4 28t15 6q5 0 17.5 -4.5t22.5 -8.5l10 -4l120 -54q71 -32 107 -51q14 -19 14 -29zM380 228q-3 11 -11 37q-2 5 -27 17q-79 -6 -137 -16q-18 -3 -41 -19q-25 -18 -25 -27q0 -8 5 -8h172q55 0 64 16zM480 267
q6 -19 2 -61q-3 -48 -20 -57q-7 0 -44.5 -4.5t-70.5 -6.5l-88 -5q-79 0 -98 -4q-7 5 -27 5q-2 -2 -5 -6l-2 -2q0 -6 13.5 -16.5t51.5 -23t90 -16.5t65 -6q61 -8 61 -30q0 -7 -38 -25l-20 -20q-8 -1 -20 -2l-14 -2q-7 0 -50 4q-46 3 -51 3q-14 0 -53 17q-2 1 -16 8.5
t-26 13.5q-41 15 -76 56q-34 38 -34 73q0 38 10 60q73 143 296 143q72 0 108 -33q26 -22 56 -63z" />
    <glyph glyph-name="eacute" unicode="&#xe9;" horiz-adv-x="490" 
d="M390 549q0 -24 -103 -82q-34 -13 -37 -14q-98 -60 -120 -60q-39 0 -39 35q0 2 3 14q0 4 0.5 7.5t1.5 5.5v2q39 17 122 51q14 10 21 13q101 48 120 48q8 0 19 -7q12 -6 12 -13zM380 228q-3 11 -11 37q-2 5 -27 17q-79 -6 -137 -16q-18 -3 -41 -19q-25 -18 -25 -27
q0 -8 5 -8h172q55 0 64 16zM480 267q6 -19 2 -61q-3 -48 -20 -57q-7 0 -44.5 -4.5t-70.5 -6.5l-88 -5q-79 0 -98 -4q-7 5 -27 5q-2 -2 -5 -6l-2 -2q0 -6 13.5 -16.5t51.5 -23t90 -16.5t65 -6q61 -8 61 -30q0 -7 -38 -25l-20 -20q-8 -1 -20 -2l-14 -2q-7 0 -50 4q-46 3 -51 3
q-14 0 -53 17q-2 1 -16 8.5t-26 13.5q-41 15 -76 56q-34 38 -34 73q0 38 10 60q73 143 296 143q72 0 108 -33q26 -22 56 -63z" />
    <glyph glyph-name="ecircumflex" unicode="&#xea;" horiz-adv-x="497" 
d="M456 415q0 -26 -33 -26q-1 0 -3 0.5t-5.5 1t-7.5 0.5q-15 3 -16 3q-7 0 -72 51q-66 51 -72 51q-16 0 -27 -11q-11 -14 -14 -18q-39 -30 -69 -51q-8 -6 -43 -6q-26 0 -38 21q-7 19 -12 38q33 8 88 54l88 72q15 1 55 -17q41 -20 51 -33q42 -29 78 -56q52 -39 52 -74z
M380 228q-3 11 -11 37q-2 5 -27 17q-79 -6 -137 -16q-18 -3 -41 -19q-25 -18 -25 -27q0 -8 5 -8h172q55 0 64 16zM480 267q6 -19 2 -61q-3 -48 -20 -57q-7 0 -44.5 -4.5t-70.5 -6.5l-88 -5q-79 0 -98 -4q-7 5 -27 5q-2 -2 -5 -6l-2 -2q0 -6 13.5 -16.5t51.5 -23t90 -16.5
t65 -6q61 -8 61 -30q0 -7 -38 -25l-20 -20q-8 -1 -20 -2l-14 -2q-7 0 -50 4q-46 3 -51 3q-14 0 -53 17q-2 1 -16 8.5t-26 13.5q-41 15 -76 56q-34 38 -34 73q0 38 10 60q73 143 296 143q72 0 108 -33q26 -22 56 -63z" />
    <glyph glyph-name="edieresis" unicode="&#xeb;" horiz-adv-x="492" 
d="M206 458q0 -18 -15 -35q-16 -16 -37 -16t-37 16q-17 15 -17 34q0 32 26 53q31 -12 43 -17q37 -15 37 -35zM407 437q0 -37 -35 -37q-52 0 -52 57q0 26 5 41h34q48 0 48 -61zM380 228q-3 11 -11 37q-2 5 -27 17q-79 -6 -137 -16q-18 -3 -41 -19q-25 -18 -25 -27q0 -8 5 -8
h172q55 0 64 16zM480 267q6 -19 2 -61q-3 -48 -20 -57q-7 0 -44.5 -4.5t-70.5 -6.5l-88 -5q-79 0 -98 -4q-7 5 -27 5q-2 -2 -5 -6l-2 -2q0 -6 13.5 -16.5t51.5 -23t90 -16.5t65 -6q61 -8 61 -30q0 -7 -38 -25l-20 -20q-8 -1 -20 -2l-14 -2q-7 0 -50 4q-46 3 -51 3
q-14 0 -53 17q-2 1 -16 8.5t-26 13.5q-41 15 -76 56q-34 38 -34 73q0 38 10 60q73 143 296 143q72 0 108 -33q26 -22 56 -63z" />
    <glyph glyph-name="igrave" unicode="&#xec;" horiz-adv-x="360" 
d="M328 342q0 -15 -14 -38q-124 33 -291 121q-5 3 -5 34q0 22 4 28t15 6q5 0 17.5 -4.5t22.5 -8.5l10 -4l120 -54q71 -32 107 -51q14 -19 14 -29zM196 254q7 -20 10 -191q1 -5 -11 -54l-12 -3q-8 -1 -44 12q1 10 -11 30q-15 23 -19 33q-2 7 4 66q8 75 19 123q13 16 34 16
q20 0 30 -32z" />
    <glyph glyph-name="iacute" unicode="&#xed;" horiz-adv-x="270" 
d="M319 467q0 -24 -103 -82q-34 -13 -37 -14q-97 -60 -120 -60q-39 0 -39 35q0 2 3 14q0 4 0.5 7.5t0.5 5.5l1 2q39 17 122 51q14 10 21 13q100 48 120 48q8 0 19 -7q12 -6 12 -13zM201 254q7 -20 10 -191q1 -5 -11 -54l-12 -3q-8 -1 -44 12q1 10 -11 30q-15 23 -19 33
q-2 7 4 66q8 75 19 123q13 16 34 16q20 0 30 -32z" />
    <glyph glyph-name="icircumflex" unicode="&#xee;" horiz-adv-x="428" 
d="M427 319q0 -26 -33 -26q-1 0 -3 0.5t-5.5 1t-7.5 0.5q-15 3 -16 3q-8 0 -72 51q-66 51 -72 51q-16 0 -27 -11q-11 -14 -14 -18q-39 -30 -69 -51q-8 -6 -43 -6q-26 0 -38 21q-7 19 -12 38q33 8 88 54l88 72q15 1 55 -17q41 -20 51 -33q42 -29 78 -56q52 -39 52 -74z
M235 254q7 -20 10 -191q1 -5 -11 -54l-12 -3q-8 -1 -44 12q1 10 -11 30q-15 23 -19 33q-2 7 4 66q8 75 19 123q13 16 34 16q20 0 30 -32z" />
    <glyph glyph-name="idieresis" unicode="&#xef;" horiz-adv-x="356" 
d="M123 385q0 -19 -15 -35q-16 -16 -37 -16t-37 16q-17 15 -17 34q0 32 26 53q31 -12 43 -17q37 -15 37 -35zM324 364q0 -37 -35 -37q-52 0 -52 57q0 26 5 41h34q48 0 48 -61zM189 251q7 -20 10 -191q1 -5 -11 -54l-12 -3q-8 -1 -44 12q1 10 -11 30q-15 23 -19 33q-2 7 4 66
q8 75 19 123q13 16 34 16q20 0 30 -32z" />
    <glyph glyph-name="eth" unicode="&#xf0;" horiz-adv-x="557" 
d="M413 264l-10 30q-4 13 -6 21q-15 -21 -23 -33q3 -4 3 -9q0 -27 -57 -71q-111 -84 -117 -89v-22h29q5 0 13 5q11 6 14 6q4 0 6 -2l4 -2q1 0 19 10q63 9 98 65q27 43 27 91zM550 727q0 -11 -95 -80q-96 -71 -96 -72q0 1 11.5 -15t37 -53t58.5 -87q0 -2 2 -16
q27 -33 51 -131l-6 -14v3l5 -4q4 -3 4 -8q0 -20 -14 -107q-11 -57 -74 -101q-64 -45 -141 -51l-6 -6q-23 0 -49 -2l-40 -2q-86 -6 -132 16t-46 63q0 47 85 117q17 14 122 88q44 30 88 55q1 2 22 20q5 5 9 5h20q11 0 20 11q0 11 -2 15q-27 49 -106 153q-10 -4 -95 -55
q-76 -44 -88 -44q-15 0 -22 13q-25 35 -25 56q0 15 21 27q8 4 35 19l69 44q43 27 43 35q-4 7 -24 32q-1 5 -8 19q-76 68 -76 108q0 20 4 36q6 2 17 2q46 0 93 -53q53 -62 80 -94q12 4 49 21q35 22 77 44q54 30 93 30q29 0 29 -37z" />
    <glyph glyph-name="ntilde" unicode="&#xf1;" horiz-adv-x="537" 
d="M530 576v-20q0 -7 -19 -20q0 -12 -2 -22q-113 -88 -170 -88q-22 0 -85 42t-57 42q-13 0 -69 -48l-55 -47l-2 1q-2 0 -5.5 0.5t-6.5 0.5t-6 0.5t-5 0.5l-2 1q-14 34 -14 49q0 3 8 9l7 7q18 26 93 83q1 0 4 0.5t5 0.5q20 14 39 14q46 0 88 -38q49 -43 65 -43q19 0 99 39
l76 40zM509 71q0 -71 -33 -71q-5 0 -23 9q-21 11 -30 12q-28 43 -28 87q0 48 -33 149q-4 7 -23 7q-17 0 -43 -14q-4 -2 -10 -5.5t-15.5 -8t-16.5 -8.5q-15 -11 -73 -77q-62 -72 -74 -72q-36 0 -60 44q-20 38 -20 72q0 14 21 56q0 4 4 28q2 8 26 54q2 0 15 3t15 3
q1 -6 22 -24q21 -16 27 -16q4 0 90 40q87 39 90 39q51 0 108 -73q7 -10 37 -58q27 -68 27 -176z" />
    <glyph glyph-name="ograve" unicode="&#xf2;" horiz-adv-x="595" 
d="M451 459q0 -15 -14 -38q-124 33 -291 121q-5 3 -5 34q0 22 4 28t15 6q5 0 17.5 -4t22.5 -8l10 -5l120 -54q71 -32 107 -51q14 -19 14 -29zM489 231q0 73 -91 73q-67 0 -154 -30q-3 -2 -9.5 -6.5t-9.5 -7.5q-21 -2 -36 -10q-65 -65 -65 -82q0 -29 52 -57q47 -24 76 -24
q52 0 137 43q100 49 100 101zM589 211q0 -58 -29 -95q-31 -35 -113 -78q-56 -28 -132 -47q-34 -8 -43 -10q-59 0 -138 41q-86 45 -98 105l-1 3l-3 9t-4 13q-9 21 -9 25q0 9 12 46q11 36 18 48q9 17 46 34l48 22q49 29 119 57l37 3q5 2 19 9q4 0 32 3q27 3 30 3
q146 0 188 -123q21 -62 21 -68z" />
    <glyph glyph-name="oacute" unicode="&#xf3;" horiz-adv-x="594" 
d="M432 558q0 -24 -103 -82q-34 -13 -37 -14q-98 -60 -120 -60q-39 0 -39 35q0 2 3 14q0 4 0.5 7.5t1.5 5.5v2q39 17 122 51q14 10 21 13q101 48 120 48q8 0 19 -7q12 -6 12 -13zM489 231q0 73 -91 73q-67 0 -154 -30q-3 -2 -9.5 -6.5t-9.5 -7.5q-21 -2 -36 -10
q-65 -65 -65 -82q0 -29 52 -57q47 -24 76 -24q52 0 137 43q100 49 100 101zM589 211q0 -58 -29 -95q-31 -35 -113 -78q-56 -28 -132 -47q-34 -8 -43 -10q-59 0 -138 41q-86 45 -98 105l-1 3l-3 9t-4 13q-9 21 -9 25q0 9 12 46q11 36 18 48q9 17 46 34l48 22q49 29 119 57
l37 3q5 2 19 9q4 0 32 3q27 3 30 3q146 0 188 -123q21 -62 21 -68z" />
    <glyph glyph-name="ocircumflex" unicode="&#xf4;" horiz-adv-x="592" 
d="M527 448q0 -26 -33 -26q-1 0 -3 0.5t-5.5 1t-7.5 0.5q-15 3 -16 3q-8 0 -72 51q-66 51 -72 51q-16 0 -27 -11q-10 -14 -14 -18q-39 -30 -69 -51q-8 -6 -43 -6q-26 0 -38 21q-7 19 -12 38q33 8 88 54l88 72q15 1 55 -17q41 -21 51 -33q42 -29 78 -56q52 -39 52 -74z
M489 231q0 73 -91 73q-67 0 -154 -30q-3 -2 -9.5 -6.5t-9.5 -7.5q-21 -2 -36 -10q-65 -65 -65 -82q0 -29 52 -57q47 -24 76 -24q52 0 137 43q100 49 100 101zM589 211q0 -58 -29 -95q-31 -35 -113 -78q-56 -28 -132 -47q-34 -8 -43 -10q-59 0 -138 41q-86 45 -98 105l-1 3
l-3 9t-4 13q-9 21 -9 25q0 9 12 46q11 36 18 48q9 17 46 34l48 22q49 29 119 57l37 3q5 2 19 9q4 0 32 3q27 3 30 3q146 0 188 -123q21 -62 21 -68z" />
    <glyph glyph-name="otilde" unicode="&#xf5;" horiz-adv-x="592" 
d="M558 605v-20q0 -7 -19 -20q0 -12 -2 -22q-113 -88 -170 -88q-22 0 -85 42t-57 42q-13 0 -69 -48l-55 -47h-2q-2 1 -5.5 1.5t-6.5 0.5t-6 0.5t-5 1.5h-2q-14 34 -14 49q0 3 8 9l7 7q18 26 93 83q1 0 4 0.5t5 0.5q20 14 39 14q46 0 88 -38q49 -43 65 -43q19 0 99 39l76 40z
M489 231q0 73 -91 73q-67 0 -154 -30q-3 -2 -9.5 -6.5t-9.5 -7.5q-21 -2 -36 -10q-65 -65 -65 -82q0 -29 52 -57q47 -24 76 -24q52 0 137 43q100 49 100 101zM589 211q0 -58 -29 -95q-31 -35 -113 -78q-56 -28 -132 -47q-34 -8 -43 -10q-59 0 -138 41q-86 45 -98 105l-1 3
l-3 9t-4 13q-9 21 -9 25q0 9 12 46q11 36 18 48q9 17 46 34l48 22q49 29 119 57l37 3q5 2 19 9q4 0 32 3q27 3 30 3q146 0 188 -123q21 -62 21 -68z" />
    <glyph glyph-name="odieresis" unicode="&#xf6;" horiz-adv-x="595" 
d="M265 502q0 -19 -15 -35q-16 -16 -37 -16t-37 16q-17 15 -17 34q0 32 26 53q31 -12 43 -17q37 -15 37 -35zM466 481q0 -37 -35 -37q-52 0 -52 57q0 26 5 41h34q48 0 48 -61zM489 231q0 73 -91 73q-67 0 -154 -30q-3 -2 -9.5 -6.5t-9.5 -7.5q-21 -2 -36 -10
q-65 -65 -65 -82q0 -29 52 -57q47 -24 76 -24q52 0 137 43q100 49 100 101zM589 211q0 -58 -29 -95q-31 -35 -113 -78q-56 -28 -132 -47q-34 -8 -43 -10q-59 0 -138 41q-86 45 -98 105l-1 3l-3 9t-4 13q-9 21 -9 25q0 9 12 46q11 36 18 48q9 17 46 34l48 22q49 29 119 57
l37 3q5 2 19 9q4 0 32 3q27 3 30 3q146 0 188 -123q21 -62 21 -68z" />
    <glyph glyph-name="divide" unicode="&#xf7;" horiz-adv-x="772" 
d="M455 65q0 -53 -47 -53q-23 0 -45 17q-21 18 -21 37v44q34 20 45 20q26 0 48 -20q20 -20 20 -45zM788 268q-26 -10 -42 -27q-25 1 -127 -5q-114 -8 -127 -8l-16 5l-36 -8q-155 -12 -225 -25l-120 -23q-22 0 -47 25q-22 22 -22 40q0 42 43 42q1 0 9 -2q2 0 5 -1l2 -1
q4 0 109 18l108 17l420 31q20 2 39 -22q19 -20 27 -56zM464 440q-17 -11 -29 -57q-3 -1 -34 -1q-48 0 -48 62q0 8 2 24q8 8 24 8q21 0 85 -36z" />
    <glyph glyph-name="oslash" unicode="&#xf8;" horiz-adv-x="539" 
d="M235 255q-28 -6 -52 -13q-33 -23 -51 -34v-18q18 -12 29 -21q18 12 42 39q31 32 32 47zM387 218q0 7 -21 22q-51 -30 -84 -90h16q35 6 62 27t27 41zM501 200l-8 -10q1 -5 1 -16q0 -19 -4 -39q-24 -40 -67 -64q-3 -2 -78 -35q-27 -13 -74 -13l-8 2q-8 2 -9 2
q-21 0 -56 -49q-30 -29 -56 -57q0 21 -37 25q-20 15 -20 29l14 30q14 28 14 32q0 15 -26 38q-34 29 -48 50q-27 39 -27 97q0 13 40 61q52 61 91 81q28 14 68 14q5 0 21 -4t20 -4q3 0 27 7q23 8 28 8q1 0 22 -3q19 -4 23 -4q36 25 102 58q23 -37 23 -47q0 -3 -15 -31
q-4 -8 -8.5 -16t-5.5 -12l-2 -3q6 -10 17 -31q15 -27 17 -39q6 -32 8 -38l6 -7q7 -6 7 -12z" />
    <glyph glyph-name="ugrave" unicode="&#xf9;" horiz-adv-x="653" 
d="M483 419q0 -15 -14 -38q-124 33 -291 121q-5 3 -5 34q0 22 4 28t15 6q5 0 17.5 -4t22.5 -8l10 -5l120 -54q71 -32 107 -51q14 -19 14 -29zM641 354q0 -35 -7 -50q-6 -16 -17 -44.5t-14 -35.5q-5 -1 -11 -9q-3 -15 -25 -41l-34 -38l-4 -12q-51 -51 -136 -93
q-81 -25 -120 -25q-25 0 -68 13q-171 53 -171 240q0 63 42 117h25q31 -22 31 -71q0 -13 -1 -32q0 -8 -0.5 -16t-1 -12t-0.5 -6q0 -85 91 -109l31 -10q7 0 17 1q4 0 8.5 0.5t6.5 1t3 0.5q49 0 132 56q50 32 100 96q48 63 56 103q1 7 18 22q16 15 23 15q26 0 26 -61z" />
    <glyph glyph-name="uacute" unicode="&#xfa;" horiz-adv-x="654" 
d="M474 563q0 -24 -103 -82q-34 -13 -37 -14q-98 -60 -120 -60q-39 0 -39 35q0 2 3 14q0 4 0.5 7.5t1.5 5.5v2q39 17 122 51q14 10 21 13q101 48 120 48q8 0 19 -7q12 -6 12 -13zM641 354q0 -35 -7 -50q-6 -16 -17 -44.5t-14 -35.5q-5 -1 -11 -9q-3 -15 -25 -41l-34 -38
l-4 -12q-51 -51 -136 -93q-81 -25 -120 -25q-25 0 -68 13q-171 53 -171 240q0 63 42 117h25q31 -22 31 -71q0 -13 -1 -32q0 -8 -0.5 -16t-1 -12t-0.5 -6q0 -85 91 -109l31 -10q7 0 17 1q4 0 8.5 0.5t6.5 1t3 0.5q49 0 132 56q50 32 100 96q48 63 56 103q1 7 18 22
q16 15 23 15q26 0 26 -61z" />
    <glyph glyph-name="ucircumflex" unicode="&#xfb;" horiz-adv-x="654" 
d="M531 454q0 -26 -33 -26q-1 0 -3 0.5t-5.5 1t-7.5 0.5q-15 3 -16 3q-8 0 -72 51q-66 51 -72 51q-16 0 -27 -11q-10 -14 -14 -18q-39 -30 -69 -51q-8 -6 -43 -6q-26 0 -38 21q-7 19 -12 38q33 8 88 54l88 72q15 1 55 -17q41 -21 51 -33q42 -29 78 -56q52 -39 52 -74z
M641 354q0 -35 -7 -50q-6 -16 -17 -44.5t-14 -35.5q-5 -1 -11 -9q-3 -15 -25 -41l-34 -38l-4 -12q-51 -51 -136 -93q-81 -25 -120 -25q-25 0 -68 13q-171 53 -171 240q0 63 42 117h25q31 -22 31 -71q0 -13 -1 -32q0 -8 -0.5 -16t-1 -12t-0.5 -6q0 -85 91 -109l31 -10
q7 0 17 1q4 0 8.5 0.5t6.5 1t3 0.5q49 0 132 56q50 32 100 96q48 63 56 103q1 7 18 22q16 15 23 15q26 0 26 -61z" />
    <glyph glyph-name="udieresis" unicode="&#xfc;" horiz-adv-x="656" 
d="M284 504q0 -18 -15 -35q-16 -16 -37 -16t-37 16q-17 15 -17 34q0 32 26 53q31 -12 43 -17q37 -15 37 -35zM485 483q0 -37 -35 -37q-52 0 -52 57q0 26 5 41h34q48 0 48 -61zM641 354q0 -35 -7 -50q-6 -16 -17 -44.5t-14 -35.5q-5 -1 -11 -9q-3 -15 -25 -41l-34 -38l-4 -12
q-51 -51 -136 -93q-81 -25 -120 -25q-25 0 -68 13q-171 53 -171 240q0 63 42 117h25q31 -22 31 -71q0 -13 -1 -32q0 -8 -0.5 -16t-1 -12t-0.5 -6q0 -85 91 -109l31 -10q7 0 17 1q4 0 8.5 0.5t6.5 1t3 0.5q49 0 132 56q50 32 100 96q48 63 56 103q1 7 18 22q16 15 23 15
q26 0 26 -61z" />
    <glyph glyph-name="yacute" unicode="&#xfd;" horiz-adv-x="584" 
d="M442 494q0 -24 -103 -82q-34 -13 -37 -14q-98 -60 -120 -60q-39 0 -39 35q0 2 3 14q0 4 0.5 7.5t1.5 5.5v2q39 17 122 51q14 10 21 13q101 48 120 48q8 0 19 -7q12 -6 12 -13zM582 222q0 -9 -21 -54t-36 -66q-11 -8 -24 -21q-11 -30 -41 -85l-1 -6l-1 -2q-1 0 -10 -16
q-8 -5 -20 -20q-4 -10 -8 -40q-13 0 -19 -16q-1 -3 -23 -61q-6 -17 -35 -62q2 -10 2 -23q-8 -10 -20 -32l-2 -8q-2 -9 -7.5 -31t-10.5 -45q-9 -21 -24 -60l-17 -63q-4 -17 -32 -17q-26 0 -44 19t-18 46q0 19 25 87q0 1 2 7.5l6 19.5l8 26q2 2 16 20q5 29 130 331l-6 6
q-72 -31 -116 -31q-3 0 -24 6q-23 6 -24 6l-8 -2q-4 -2 -8 -2q-24 0 -61 23q-33 20 -42 30q-24 27 -31 63q2 4 2 6q-1 1 -1 2.5t-1 2.5q-17 20 -17 70q0 49 7 65q16 37 32 37q42 0 54 -75q3 -14 9 -76q27 -46 74 -46q2 0 38 9q16 5 53 14q54 9 109 44q9 5 91 58q9 13 23 28
h49q23 -35 23 -66z" />
    <glyph glyph-name="thorn" unicode="&#xfe;" horiz-adv-x="509" 
d="M352 258l-25 5q-96 -19 -151 -52q0 -1 -1 -4l-6 -30q0 -3 3 -15t3 -13q56 23 98 43q56 25 79 66zM480 259q0 -21 -26 -61q-37 -54 -98 -84q-10 -5 -105 -49q-12 -6 -64 -44q-7 0 -21 -8q-5 -22 2 -67q3 -22 -4 -47l-5 -51q-3 -32 -32 -60q-15 -3 -27 -3q-77 0 -77 83
q0 68 26 98q-8 18 -8 27q2 2 13 29q2 8 2 42l10 98q-5 42 -5 69q1 88 22 309q1 6 14 17q13 10 20 10q17 0 41 -18q23 -38 21 -146l-5 -37q-3 -26 11 -32q11 6 65 19q55 13 73 13q71 0 117 -26q2 -2 5 -6t5 -6q30 -52 30 -69z" />
    <glyph glyph-name="ydieresis" unicode="&#xff;" horiz-adv-x="586" 
d="M256 435q0 -19 -15 -35q-16 -16 -37 -16t-37 16q-17 15 -17 34q0 32 26 53q31 -12 43 -17q37 -15 37 -35zM457 414q0 -37 -35 -37q-52 0 -52 57q0 26 5 41h34q48 0 48 -61zM582 222q0 -9 -21 -54t-36 -66q-11 -8 -24 -21q-11 -30 -41 -85l-1 -6l-1 -2q-1 0 -10 -16
q-8 -5 -20 -20q-4 -10 -8 -40q-13 0 -19 -16q-1 -3 -23 -61q-6 -17 -35 -62q2 -10 2 -23q-8 -10 -20 -32l-2 -8q-2 -9 -7.5 -31t-10.5 -45q-9 -21 -24 -60l-17 -63q-4 -17 -32 -17q-26 0 -44 19t-18 46q0 19 25 87q0 1 2 7.5l6 19.5l8 26q2 2 16 20q5 29 130 331l-6 6
q-72 -31 -116 -31q-3 0 -24 6q-23 6 -24 6l-8 -2q-4 -2 -8 -2q-24 0 -61 23q-33 20 -42 30q-24 27 -31 63q2 4 2 6q-1 1 -1 2.5t-1 2.5q-17 20 -17 70q0 49 7 65q16 37 32 37q42 0 54 -75q3 -14 9 -76q27 -46 74 -46q2 0 38 9q16 5 53 14q54 9 109 44q9 5 91 58q9 13 23 28
h49q23 -35 23 -66z" />
    <glyph glyph-name="dotlessi" unicode="&#x131;" horiz-adv-x="208" 
d="M151 254q7 -20 10 -191q1 -5 -11 -54l-12 -3q-8 -1 -44 12q1 10 -11 30q-15 23 -19 33q-2 7 4 66q8 75 19 123q13 16 34 16q20 0 30 -32z" />
    <glyph glyph-name="Lslash" unicode="&#x141;" horiz-adv-x="889" 
d="M953 122q0 -9 -12 -24q-12 -14 -21 -15q-51 -4 -215 -22q-89 -16 -192 -29q-138 -17 -297 -17q-25 0 -47 22q-24 21 -19 42l55 243q0 6 -12 17l-118 -40q-20 0 -36 40q-15 36 -11 42q15 10 138 60q83 33 86 80q8 24 19 166q1 18 3 52q4 36 19 54q30 7 35 7q18 0 24 -26
q25 -26 25 -80q0 -18 -3 -37q-11 -85 4 -111h11l71 28q73 28 76 28q14 0 27 -9q12 -9 12 -18q0 -35 -99 -92q-71 -37 -103 -55q-17 -9 -39 -34q-13 -43 -35 -144q-17 -83 -17 -92q0 -2 2 -10q2 -4 2 -8q9 -1 30 -1q9 0 21 0.5t14 0.5l51 3q60 6 107 9q7 0 39.5 0.5t59.5 1.5
q6 0 39 6q27 5 34 5q5 0 10 -4q7 -3 9 -3l20 5q18 6 21 6q95 0 179 -14q9 -2 20 -13q13 -15 13 -20z" />
    <glyph glyph-name="lslash" unicode="&#x142;" horiz-adv-x="539" 
d="M577 499q0 -5 -7 -20l-9 -19q-21 -29 -117 -63q-23 -8 -70 -32q-26 -14 -32 -37q-21 -74 -24 -160q-2 -46 -3 -173q0 -7 -12 -14q-13 -8 -21 -8l-6 4q-4 4 -7 4t-16 -6t-16 -6q-25 0 -39 37q-10 27 -10 40l17 115l17 114v18q-3 2 -10 2l-7 -3q-7 -2 -24.5 -8t-35.5 -12
q-64 -24 -68 -24q-13 0 -31 29q-17 26 -17 31q0 17 39 41q30 18 60 27t99 39q24 11 28 37q19 87 26 149q1 9 4.5 32t5.5 35q8 18 24 67l3 54q3 33 22 58q3 0 7 0.5t5 0.5q19 0 49 -10q0 -1 2 -5t6.5 -12.5t8.5 -16.5q13 -26 13 -32l-18 -71q-5 -21 -11 -46
q-30 -125 -30 -148q0 -26 20 -26q6 0 49 13q43 14 49 14q4 0 6 -2t6 -2q7 0 9 11q21 9 32 9t23 -9q11 -9 11 -16z" />
    <glyph glyph-name="OE" unicode="&#x152;" horiz-adv-x="1373" 
d="M929 416q0 27 -31 65q-32 39 -59 50q-75 31 -141 52q-34 10 -50 13q-30 5 -83 5q-1 0 -3.5 0.5t-7.5 1t-10 0.5q-18 3 -20 3q-50 0 -163 -23q-15 -6 -36 -15q4 -6 4 -12q0 -1 -5 -16q-6 -14 -6 -16q-16 -23 -82 -44q-1 -1 -5 -5.5t-7 -7.5q-29 -9 -67 -62
q-38 -52 -40 -83q0 -2 -3 -9q0 -2 -0.5 -4t-1.5 -3v-2q0 -14 5 -34q11 -44 48 -83q35 -39 76 -50q48 -12 106 -12q52 0 185 34q79 20 153 56q125 57 196 124q48 45 48 77zM1441 650q0 -38 -67 -44q-4 0 -89 -6q-4 1 -16 1q-42 -11 -116 -14q-39 -2 -115 -6q-28 -1 -67 -14
v-11q9 -6 15 -15q23 -28 29 -67q3 -22 3 -100q21 -6 41 -6q1 0 61 3l60 4q28 1 102 -24q13 -4 13 -21q0 -34 -85 -43q-7 0 -37.5 -2t-53.5 -3q-8 -4 -111 -16q-25 1 -67 -3q-49 -38 -63 -48q-22 -16 -89 -53q-47 -24 -56 -39q195 0 358 9q2 0 122 12l87 10q56 0 56 -62
q0 -11 -1 -19q-18 -10 -49 -21q-96 -12 -117 -12q1 0 -1 0t-9 -0.5t-16.5 -1t-24.5 -1.5t-32 -2t-40 -2.5t-47 -2.5t-55 -3t-63 -4l-287 -16q-49 -2 -75 24l-2 10q-16 17 -25 17q-4 0 -20 -4q-15 -5 -20 -5q-100 -12 -139 -12q-21 0 -82 8q-56 9 -70 15q-3 3 -25 19
q-11 2 -34 14q-2 2 -68 66q-4 4 -17 51q-15 50 -15 58q0 77 46 157q1 3 -5 32q-4 11 -4 26q0 42 38 83q18 20 79 50q1 0 100 32q49 16 63 16q5 0 10 -1q2 0 5 -0.5t4.5 -1t2.5 -0.5q4 0 6 5q2 4 2 5q1 0 7 2t12.5 4.5t13.5 4.5q39 12 102 12q144 0 181 -20q7 0 58 -6l44 -4
q8 0 70 14q18 2 87 2h1q1 1 2.5 1.5t4 1t4.5 1.5q12 3 13 3q3 0 16 -3q11 -4 14 -4q1 0 2.5 0.5t4.5 1t6 0.5q10 3 13 3q11 2 103 2h130q2 0 55 6q15 1 28.5 2.5t19.5 2t7 0.5q73 0 73 -48z" />
    <glyph glyph-name="oe" unicode="&#x153;" horiz-adv-x="819" 
d="M369 212q0 27 -2 31q-18 21 -52 33q-15 5 -39 5q-10 -5 -32 -14q-17 -2 -35 -7q-97 -63 -97 -86q0 -27 73 -45q52 -13 95 -13q49 0 74 32q15 18 15 64zM630 295q-32 9 -40 9q-48 0 -75 -19q-11 -8 -20 -26q39 0 77 11q41 10 58 25zM803 77q0 -16 1 -17q1 2 1 3
q-1 -7 -25 -21q-15 -1 -91 -14q-51 -9 -75 -9q-51 0 -53 -1h5q-19 0 -82 17q-12 6 -28 15q-24 14 -28 14q-7 0 -35 -16q-42 -22 -47 -24q-32 -13 -65 -13h-61q-43 0 -110 34q-67 33 -87 65q-6 8 -6 50q0 68 54 123q18 11 49 39q7 16 29 44q29 20 74 20q37 0 75 -5
q30 -5 74 -22q3 -2 9.5 -6t9.5 -6q17 -10 24 -10q1 0 29 17q31 20 40 23q75 32 95 32q27 0 62 -7q3 -2 16 -8t23 -11q67 -32 74 -55q6 -18 6 -32q0 -28 -58 -101q-35 0 -52 -5q-26 -8 -134 -39q9 -16 29 -19q60 -9 82 -9q1 0 4 0.5t9.5 1t13.5 0.5q15 2 26 2q90 0 112 -18
q11 -9 11 -32z" />
    <glyph glyph-name="Scaron" unicode="&#x160;" horiz-adv-x="527" 
d="M495 970q0 -24 -38 -57q-7 -6 -15.5 -13.5t-13.5 -12t-8 -7.5q-24 -18 -44 -22q-73 -16 -95 -16q-30 0 -40 5q-40 20 -78 55q-46 43 -46 74q0 47 41 47q5 0 31 -23q5 -9 15 -20q0 -4 1 -8q57 -44 79 -44q54 0 112 48q15 18 32 32q29 17 43 17q24 0 24 -55zM626 667
q-8 0 -41 4q-32 4 -39 4q-1 0 -6 -0.5l-15 -1.5t-21 -2l-51 -6q-9 -1 -31 0q-8 0 -19 0.5t-14 0.5q-14 -1 -109 -12q-45 -10 -96 -16q-26 -4 -41 -13q1 -1 5 -7.5t6 -10.5q14 -11 80 -61q25 -14 76 -37q6 -4 32 -21l9 -3q85 -33 208 -93q50 -24 80 -68q31 -41 31 -89
q0 -29 -31 -54q-41 -31 -52 -45q-27 0 -38 -1l-1 -1l-2 -2q-27 -20 -35 -20q-3 0 -8 3q-1 1 -2 1q-17 0 -87 -29q-65 -24 -132 -39l-4 -5q-14 -10 -23 -10q-1 0 -11 2q-2 0 -4 0.5t-4 0.5l-1 1q-19 -4 -58 -14q-55 -13 -63 -13q-36 0 -79 -9q-15 6 -31 24q-14 20 -12 34
q10 9 27 18q279 63 429 125q95 41 95 64q0 18 -34 39q-4 3 -22 13.5t-32 18.5q-41 26 -108 52q-90 37 -113 47q-33 16 -116 78q-109 81 -109 119q0 9 16 27l23 26q2 2 11 6q11 4 25 10q4 1 17 7t24 10q43 11 194 30q5 0 17 1.5t33 4t41 4.5q85 9 145 9q130 0 130 -56
q0 -45 -59 -45z" />
    <glyph glyph-name="scaron" unicode="&#x161;" horiz-adv-x="497" 
d="M451 576q0 -24 -38 -57q-7 -6 -15.5 -13.5t-13.5 -12t-8 -7.5q-24 -18 -44 -22q-73 -16 -95 -16q-30 0 -40 5q-40 20 -78 55q-46 43 -46 74q0 47 41 47q5 0 31 -23q5 -9 15 -20q0 -4 1 -8q57 -44 79 -44q54 0 112 48q15 18 32 32q29 17 43 17q24 0 24 -55zM476 114
q0 -7 -19 -23q-20 -16 -38 -20q-19 -7 -128 -40q-106 -32 -160 -32q-3 0 -21 3q-16 4 -20 4t-19 -4q-15 -3 -17 -3q-8 0 -21 18q-14 19 -14 27q0 4 15 23l151 28q99 19 131 38q0 4 -1 6q-20 14 -105 49q-99 41 -108 47q-12 4 -56 31q-10 10 -10 42q0 -6 -4 2q0 2 -1 4
q-4 12 7.5 23.5t38.5 21.5q52 21 168 41q108 19 183 19q19 0 25 -6q29 -30 29 -47q0 -27 -19 -36q-13 -4 -147 -19q-4 -1 -12 -5q-10 -5 -16 -5q-4 0 -9 2l-8 2q-27 0 -63 -18q6 -12 23 -21q12 -2 67 -17q1 0 19 -7t35 -12l7 -3q15 -5 47 -19q23 -9 44 -34q9 -11 13 -37
q0 -1 7 -11q6 -9 6 -12z" />
    <glyph glyph-name="Ydieresis" unicode="&#x178;" horiz-adv-x="512" 
d="M243 675q0 -19 -15 -35q-16 -16 -37 -16t-37 16q-17 15 -17 34q0 32 26 53q31 -12 43 -17q37 -15 37 -35zM444 654q0 -37 -35 -37q-52 0 -52 57q0 26 5 41h34q48 0 48 -61zM667 591q-24 -28 -70 -73q-64 -64 -96 -100q-37 -43 -71 -79q-7 -8 -34.5 -37.5t-48.5 -52.5
q-28 -39 -82 -125q-8 -16 -18 -38q-11 -35 -14 -43q-15 -42 -40 -42q-11 5 -56 30q-2 25 2 44q55 122 91 176q6 10 25 21l2 13q7 12 56 68q2 6 4 9q-8 2 -16 2q-2 0 -48 -10q-44 -10 -52 -10q-36 0 -73 23q-37 25 -53 57q-32 66 -46 119q-7 28 -7 50q0 35 18 79h49
q1 -6 27 -25l15 -107q26 -92 98 -92q62 0 188 95q10 8 38.5 29t65 47.5t74.5 53.5q21 15 41 15q17 0 36 -21q17 -19 17 -29q0 -20 -22 -47z" />
    <glyph glyph-name="Zcaron" unicode="&#x17d;" horiz-adv-x="636" 
d="M608 848q0 -24 -38 -57q-7 -6 -15.5 -13.5t-13.5 -12t-8 -7.5q-24 -18 -44 -22q-73 -16 -95 -16q-30 0 -40 5q-40 20 -78 55q-46 43 -46 74q0 47 41 47q5 0 31 -23q5 -9 15 -20q0 -4 1 -8q57 -44 79 -44q53 0 112 48q15 18 32 32q29 17 43 17q24 0 24 -55zM777 551
q-42 -37 -69 -55q-1 -1 -9.5 -5.5t-13.5 -7.5q-3 -2 -26 -17l-38 -29q-11 -9 -55 -39q-74 -53 -230 -154q-106 -68 -176 -124q25 -18 97 -18q3 0 12.5 0.5t27.5 1.5t35 2l71 4l4 2q16 4 21 5q38 5 148 18q48 7 153 7q53 0 80 -20v-21q-17 -12 -44 -24l-138 -11
q-32 -7 -98 -18q-1 -1 -13 -9q-50 -12 -104 -21q-82 -11 -111 -11l-18 -1h-133q-29 0 -116 21q-24 21 -24 66q0 37 34 62q38 22 56 33q4 6 23 25q21 13 75 51q21 15 81 60q88 39 219 132q62 43 110 79q35 28 87 79q-39 13 -178 13l-250 -24q-83 0 -118 21q0 8 -7 26
q-8 22 -8 23q0 43 32 43q4 0 40 -6l37 -5l30 6q35 8 48 8q5 0 57.5 2.5t103.5 4.5l105 5q58 3 142 -12q34 -10 54 -13q58 -8 58 -56q0 -46 -64 -99z" />
    <glyph glyph-name="zcaron" unicode="&#x17e;" horiz-adv-x="594" 
d="M466 570q0 -24 -38 -57q-7 -6 -15.5 -13.5t-13.5 -12t-8 -7.5q-24 -18 -44 -22q-73 -16 -95 -16q-30 0 -40 5q-40 20 -78 55q-46 43 -46 74q0 47 41 47q5 0 31 -23q5 -9 15 -20q0 -4 1 -8q57 -44 79 -44q53 0 112 48q15 18 32 32q29 17 43 17q24 0 24 -55zM638 88
q0 -29 -41 -41q-32 -4 -71 -10q-54 -9 -155 -19q-177 -18 -229 -18q-17 0 -47 10q-1 11 -40 42q3 24 16 53q1 3 53 49q52 29 129 79q20 12 54 55q-6 14 -18 14q-1 0 -9.5 -1t-29 -3t-41.5 -4l-80 -8q-56 0 -56 42q0 44 39 48q135 21 281 21q5 0 22 -10q4 -2 10 -6t10 -6
q12 -20 12 -32q0 -93 -215 -231q15 -13 54 -13l242 20l38 3q35 2 50 -3q13 -8 20 -15q2 -6 2 -16z" />
    <glyph glyph-name="florin" unicode="&#x192;" horiz-adv-x="382" 
d="M410 715q0 -17 -21 -34q-20 7 -28 10q-2 7 -17 23q-15 15 -24 15q-32 0 -69 -78q-1 -10 -8 -40q-29 -60 -29 -122v-29q12 -4 94 -12q56 -5 56 -32q0 -12 -21 -31q-17 -16 -26 -17q-26 -5 -49 -6q-46 -9 -46 -29q0 2 1 -2t2.5 -15t4 -27t6 -41t7.5 -53t10 -67q1 -15 0 -40
q-3 -30 -3 -42q9 -15 9 -18q0 -27 -30 -80q-31 -55 -58 -76q-51 -10 -95 -10q-38 0 -44 2q-34 8 -39 9q-31 10 -51 29q-14 28 -34 60v14q12 5 29 5l34 -8l32 -8h48q53 0 74 26q9 12 14 35q7 7 13 20q7 41 7 62l-9 42q-9 45 -9 57q0 2 -2 90q-2 21 -20 48q-45 0 -63 5
q-30 9 -30 42q0 24 24 55q38 5 43 5q3 0 5 -1q4 -2 6 -2q16 0 21 14q-1 17 2 59q9 47 19 83q13 46 37 114q11 17 32 59q7 2 16 9q17 48 89 48q4 0 51 -33q39 -28 39 -87z" />
    <glyph glyph-name="circumflex" unicode="&#x2c6;" horiz-adv-x="404" 
d="M433 637q0 -26 -33 -26q-1 0 -3 0.5t-5.5 1t-7.5 0.5q-15 3 -16 3q-8 0 -72 51q-66 51 -72 51q-16 0 -27 -11q-11 -14 -14 -18q-39 -30 -69 -51q-8 -6 -43 -6q-26 0 -38 21q-7 19 -12 38q33 8 88 54l88 72q15 1 55 -17q41 -20 51 -33q42 -29 78 -56q52 -39 52 -74z" />
    <glyph glyph-name="caron" unicode="&#x2c7;" horiz-adv-x="373" 
d="M400 785q0 -24 -38 -57q-7 -6 -15.5 -13.5t-13.5 -12t-8 -7.5q-24 -18 -44 -22q-73 -16 -95 -16q-30 0 -40 5q-40 20 -78 55q-46 43 -46 74q0 47 41 47q5 0 31 -23q5 -9 15 -20q0 -4 1 -8q57 -44 79 -44q53 0 112 48q15 18 32 32q29 17 43 17q24 0 24 -55z" />
    <glyph glyph-name="breve" unicode="&#x2d8;" horiz-adv-x="379" 
d="M406 808q0 -8 -31 -30q-16 -11 -37 -25q-29 -23 -65 -43q-16 -10 -51 -46q-23 -23 -51 -23q-16 0 -79 70q-14 9 -46 45q-16 17 -16 37q0 38 29 38q12 0 65 -43q54 -42 56 -42q42 28 106 58q3 13 45 30q39 14 55 14t20 -40z" />
    <glyph glyph-name="dotaccent" unicode="&#x2d9;" horiz-adv-x="143" 
d="M153 788q0 -24 -21 -40q-22 -17 -46 -17q-18 0 -31 22q-11 15 -11 25q1 1 1.5 4t1.5 6l3 9t3.5 11.5t4.5 14.5t5 17l42 17q17 0 32 -24q16 -22 16 -45z" />
    <glyph glyph-name="ring" unicode="&#x2da;" horiz-adv-x="345" 
d="M251 730q0 24 -93 35q-10 -1 -24 -1q-2 -2 -14 -8q-30 -27 -30 -42v-13q2 -1 10.5 -6.5t14.5 -8.5q7 -4 31 -4q27 0 57 9q48 13 48 39zM327 728q0 -22 -9 -48q-5 -15 -35 -41q-46 -19 -51 -21q-43 -17 -83 -17q-39 0 -84 24q-53 27 -53 65q9 52 7 69q-3 23 54 60
q37 23 105 23q26 0 68 -13q19 -7 59 -34q22 -57 22 -67z" />
    <glyph glyph-name="ogonek" unicode="&#x2db;" horiz-adv-x="337" 
d="M361 -214q0 -25 -8 -35q-5 -8 -66 -49q-66 -45 -84 -45q-22 0 -42 5q-77 22 -100 63q-15 29 -15 141q0 4 12 36q14 36 18 52q0 3 2.5 13l4.5 18l10 53q6 9 23 43q29 17 46 17q14 0 41 -41q26 -37 26 -42q-2 -2 -23 -53q-10 -28 -18 -95q-19 -34 -19 -62q0 -19 20 -19
q23 0 140 56q32 0 32 -56z" />
    <glyph glyph-name="tilde" unicode="&#x2dc;" horiz-adv-x="485" 
d="M520 843v-20q0 -7 -19 -20q0 -12 -2 -22q-113 -88 -170 -88q-22 0 -85 42t-57 42q-13 0 -69 -48l-55 -47h-2q-2 1 -5.5 1.5t-6.5 0.5t-6 0.5t-5 1.5h-2q-14 34 -14 49q0 3 8 9l7 7q18 26 93 83q1 0 4 0.5t5 0.5q20 14 39 14q46 0 88 -38q49 -43 65 -43q19 0 99 39l76 40
q1 0 3 -0.5t5 -1.5z" />
    <glyph glyph-name="hungarumlaut" unicode="&#x2dd;" horiz-adv-x="384" 
d="M411 773v-14q0 -23 -7 -51q-10 -15 -150 -153q-22 -22 -46 -22q-9 0 -24 5q-3 15 -3 27q0 25 12 43v10q-2 1 -15 -2q-59 -79 -115 -79q-4 0 -13 3q-10 3 -12 3q-1 5 -3 14q-3 15 -3 16q0 26 16 43q98 111 132 165q9 13 35 13q11 0 17 -2q29 -26 29 -36q0 -38 -16 -67
q-1 -1 -4 -3.5t-8 -7t-9 -8.5l8 -6q17 4 22 29q4 0 52 51q48 50 64 50q13 0 19 -6q8 -7 22 -15z" />
    <glyph glyph-name="pi" unicode="&#x3c0;" horiz-adv-x="736" 
d="M714 204q0 -29 -19 -108q-17 -71 -24 -87q-3 -9 -23 -9q-9 2 -46 18q-14 36 -17 93q-8 0 -8 9q0 2 6 13l6 11l12 76q0 13 -2 21q-6 21 -29 25l-79 14q-3 0 -16 -3l-13 -4q-9 0 -124 -16q-16 -1 -42 -11q-17 -23 -22 -86q-5 -55 -27 -65h-1l-1 1h-1h-1l-2 1l-34 14h1
l-8 -2q-3 -2 -7 -2q-7 0 -26 16q9 93 16 124l37 162q21 89 66 176v10q-14 2 -22 2q-9 0 -91 -11q-83 -11 -88 -11q-68 0 -68 50q0 45 47 51l328 38q3 1 14 4t18 5q109 14 151 14q20 0 49 -10q30 -11 38 -19q25 -26 25 -41q0 -4 -14 -15q-13 -10 -22 -10q-5 0 -13 4t-11 4
q-103 0 -188 -29q-7 -2 -46 -73q-38 -72 -45 -87q-2 -7 -10.5 -35t-15.5 -50q9 -9 18 -9q4 0 87 5l86 6h1q1 0 4.5 -1t8 -1.5t11.5 -1.5t15 -2.5t19 -3t22 -3.5q53 -9 86 -54q34 -46 34 -107z" />
    <glyph glyph-name="endash" unicode="&#x2013;" horiz-adv-x="820" 
d="M770 244q0 -50 -130 -50h-4q-5 1 -15.5 1.5t-21.5 0.5q-25 2 -41 2q-1 0 -26 -5q-21 -6 -38 -8q-266 -26 -390 -26q-44 0 -87 24q-1 67 6 81q12 25 42 25q-4 0 1 -1h4q18 -2 34 -2q18 -1 52 -1h167q34 2 100 7l98 9q1 0 11 -1t32.5 -3.5t47.5 -4.5l90 -7q15 0 30 7
q38 -32 38 -48z" />
    <glyph glyph-name="emdash" unicode="&#x2014;" horiz-adv-x="1344" 
d="M1310 278q3 -10 -13 -63q-84 -14 -142 -14h-2q-2 0 -9.5 -0.5t-16.5 -0.5q-11 0 -35 -0.5t-38 -0.5l-114 -2l-233 2q-127 0 -318 -4q-33 -1 -118 -4l-20 -5h-127q-84 0 -102 21q0 3 -3 33q0 8 -0.5 17.5t-1 14.5t-0.5 7q23 21 33 24q22 5 58 5q5 0 25 -4q24 -3 28 -3
q7 -1 173 -1h2h7.5h12t17.5 0.5t23 0.5l64 2q4 0 13 -4q11 -4 14 -4q37 1 110 5l109 5q152 7 274 -2q108 -9 135 -9h104q53 0 63 3q13 -11 28 -19z" />
    <glyph glyph-name="quoteleft" unicode="&#x2018;" horiz-adv-x="237" 
d="M254 773q0 -15 -19 -32q-9 -3 -32 -14q-32 -23 -85 -93q-9 -13 -14 -49q-7 -46 -8 -49q-4 -9 -20 -9q-26 0 -42 41q-13 29 -13 47q0 25 43 107l24 21q10 17 17 26q77 76 97 76q14 0 40 -20q1 -1 7 -27z" />
    <glyph glyph-name="quoteright" unicode="&#x2019;" horiz-adv-x="208" 
d="M223 760q0 -27 -17 -71q-3 -16 -30 -83q-5 -1 -15 -8q-11 -45 -76 -45q-54 0 -54 41q0 8 45 61q26 30 51 102q0 3 1 11.5t2 19t2 21.5q6 39 25 39q25 0 48 -13q18 -12 18 -75z" />
    <glyph glyph-name="quotesinglbase" unicode="&#x201a;" horiz-adv-x="255" 
d="M185 24q0 -3 -21 -93q-19 -25 -57 -79q-5 -6 -39 -28q-37 -24 -49 -24q-18 0 -32 12t-14 27q0 5 36 52q3 4 12 15.5t19 24t20 25.5q29 37 35 69q1 6 10 57q9 11 18 26h16q46 0 46 -84z" />
    <glyph glyph-name="quotedblleft" unicode="&#x201c;" horiz-adv-x="327" 
d="M351 768q-9 -14 -55 -66q0 -8 -7 -21q-22 -23 -25 -37l-2 -18l-12 -32q0 -13 19 -33q-9 -8 -25 -30q-32 -2 -48 28q-6 13 -18 49q-5 16 -5 17l1 5q1 4 3 14l4 20q9 38 9 40q0 7 -7 20q-36 -14 -63 -74q-1 -1 -4 -4.5t-6 -6.5q1 -6 -2 -28q-1 -4 -2 -10l-2 -7q0 -20 6 -53
q12 -35 12 -30q0 -16 -20 -16q-39 0 -63 61q-17 43 -17 68q0 56 47 130q43 69 87 96q34 -3 44 -37q1 -4 16 -58l38 46q25 25 51 25q16 0 31 -5q-2 -19 3 -39q12 -10 12 -14z" />
    <glyph glyph-name="quotedblright" unicode="&#x201d;" horiz-adv-x="370" 
d="M250 775q0 -44 -11 -61q-50 -79 -88 -119q-6 -3 -73 -44q-13 7 -34 26q-22 19 -22 27q0 5 38 46l61 65q16 20 20 39q10 10 16 20q0 3 1 16t2 23q0 11 12 24q11 13 21 13q22 0 37 -34q3 -8 9 -19zM396 742q0 -6 -8 -16q3 -40 -57 -113q-60 -74 -97 -74q-44 0 -44 49
q0 22 30 56q35 37 53 72q11 20 38 87q8 13 23 13q1 0 5 -0.5t6 -0.5q9 -7 30 -29q21 -33 21 -44z" />
    <glyph glyph-name="quotedblbase" unicode="&#x201e;" horiz-adv-x="420" 
d="M352 21q0 -3 -21 -93q-1 0 -58 -80q-5 -4 -39 -27q-38 -23 -48 -23q-18 0 -32 12t-14 28q0 6 36 51q33 40 51 64q29 39 34 70q1 4 11 56q8 9 18 27h16q46 0 46 -85zM185 24q0 -3 -21 -93q-19 -25 -57 -79q-5 -6 -39 -28q-37 -24 -49 -24q-18 0 -32 12t-14 27q0 5 36 52
q29 38 51 65q29 37 35 69q1 6 10 57q9 11 18 26h16q46 0 46 -84z" />
    <glyph glyph-name="dagger" unicode="&#x2020;" horiz-adv-x="207" 
d="M222 736q0 -10 -29 -10q-34 0 -42 -7q-3 -7 -12 -84q-5 -45 -43 -54q-19 12 -22 51q0 13 4 26l7 31q3 22 -16 28q-19 -1 -57 2q-10 3 -10 34q0 5 7 31q30 10 52 10q9 0 17 -3q8 11 12 39q3 18 25 18q19 0 29 -26q14 -35 17 -37q23 -3 54 -15q7 -21 7 -34z" />
    <glyph glyph-name="daggerdbl" unicode="&#x2021;" horiz-adv-x="408" 
d="M384 758q0 -11 -8 -18q-18 -15 -24 -24q-6 -1 -22 -2.5t-22 -2.5q-31 -4 -34 -19q0 -1 -1.5 -8.5t-3.5 -14.5v-14q15 -7 42 -8q29 -2 42 -15q6 -42 -53 -57q-40 -9 -46 -18q-5 -31 -6 -34q-9 -31 -31 -41q-5 -3 -10 -3q-7 0 -33 35q-27 35 -35 35l-5 -1q-4 0 -14.5 -1.5
t-21.5 -2.5q-12 -1 -22.5 -2.5t-15.5 -1.5l-4 -1q-20 0 -30 25q-9 18 -9 32q0 -8 3 10l3 15q7 9 64 16q9 6 14 6l1 -1q2 0 4 -0.5t4 -0.5t4 -0.5t3 -1t2.5 -0.5h2.5q52 0 52 25q0 16 -10 16q-5 0 -34 -7q-33 -6 -35 -6q-41 0 -41 55q0 32 51 42q19 3 36 6.5t26 5.5t11 2
q18 11 28 67h29q24 0 36 -24q0 -13 12 -33l26 -2q14 -2 25 -2q4 0 10 2q2 0 4 0.5t4 1.5h1q8 0 20 -12q11 -11 11 -18z" />
    <glyph glyph-name="bullet" unicode="&#x2022;" horiz-adv-x="388" 
d="M362 317q0 -2 -5 -12q-5 -7 -5 -10q-15 -53 -95 -70q-35 -8 -64 -8l-15 3q-15 3 -18 3h-16q-52 0 -83 28q-32 32 -32 88q0 7 8 42q9 33 9 34q0 3 -2 9q100 61 131 61q3 0 70 -5q41 -3 89 -54q28 -30 28 -109z" />
    <glyph glyph-name="ellipsis" unicode="&#x2026;" horiz-adv-x="742" 
d="M145 48q0 -8 -16 -30q-9 -13 -33 -13q-16 0 -41 20t-25 33q0 6 16 28q-1 2 -1 6q0 7 1 9q21 22 41 22q15 0 47 -20q11 -30 11 -55zM418 88q0 -79 -54 -79q-51 0 -51 57q0 18 16 35q16 19 30 19q7 0 35 -13q24 -14 24 -19zM678 67q1 -16 -22 -39q-22 -22 -42 -22
q-19 0 -34 16t-15 36q1 7 5 19q5 22 5 24q11 14 38 14q7 -1 20 -4q19 -4 26 -4q0 -16 -1 -25q2 -15 20 -15z" />
    <glyph glyph-name="perthousand" unicode="&#x2030;" horiz-adv-x="1297" 
d="M666 220q-1 3 -11 13q-9 0 -20 1q-11 2 -18 2q-30 0 -87 -25q-7 -4 -24 -15t-26 -16q1 -1 1 -4q0 -4 -1 -7q-17 -8 -25 -23q24 -6 26 -8q4 0 21 7q6 2 11 4l7.5 3t3.5 1h14q16 0 22 2q45 24 93 47q12 18 13 18zM624 677h-65q-23 0 -62 -9q13 -29 13 -58q0 -27 -11 -58
l66 59q36 33 59 66zM1231 238v17q-47 13 -85 13q-39 0 -119 -25q-97 -31 -97 -74q0 -19 30 -38q29 -20 55 -20q29 0 124 44q3 4 18 17q10 2 27 11q47 33 47 55zM756 201l-1 -33q-67 -86 -123 -98q-13 -9 -31 -17q-47 -21 -89 -21h-22q-3 1 -23 6q-33 5 -75 19q-22 15 -42 54
q-3 6 -12 16q1 2 1 7q0 13 -11 37q10 23 34 57q18 18 54 35q82 36 188 57q8 7 13 7q47 0 92 -19q25 -11 37 -51q10 -30 10 -56zM826 724q0 -35 -29 -53q-52 -31 -123 -100l-126 -122l-83 -77q-49 -47 -101 -74q-14 -16 -29 -30l-59 -50q-30 -26 -33 -50q-7 -12 -21 -33
q-5 -6 -105 -101q-6 -6 -34 -6q-1 0 -2 -1q-3 -1 -5 -1q-4 -2 -8 -2q-51 0 -51 74q0 17 22 37q27 22 33 33q15 5 55 50q45 49 57 61q97 84 123 103q56 43 117 100q-88 -17 -144 -17q-55 0 -92 17q-67 28 -87 74l-7 56q0 2 -9 22q-8 17 -8 22q0 19 32 63q33 45 43 45
q17 0 36 -14q17 -14 17 -31q0 -14 -19 -54l-18 -37q0 -65 117 -65q121 0 121 66q0 19 -11 25q-12 6 -33 14q-33 2 -73 7l-56 15q-10 10 -10 43q0 28 11 45l38 10h-1q2 0 50 -12t50 -12l191 12l192 12q38 3 56 -13q16 -12 16 -51zM1318 242q0 -40 -13 -59q0 -4 8 -11
q0 2 -1 2q-2 0 -11 -12q-28 -63 -122 -112q-86 -47 -149 -47q-42 0 -89 14q-27 8 -63 44q-38 36 -51 66q-10 23 -10 54q0 24 15 60q15 35 27 46q11 -7 21 -7q3 0 32 16q27 17 47 26t105 21q1 0 3.5 1.5t7.5 3.5t10 5q18 9 21 9q148 0 191 -45q21 -23 21 -75z" />
    <glyph glyph-name="guilsinglleft" unicode="&#x2039;" horiz-adv-x="452" 
d="M418 179q0 -46 -35 -46q5 0 -219 69q-4 1 -32 6.5t-51 10.5q-43 10 -43 48q0 5 17 52q247 233 280 233q44 0 44 -47q0 -27 -5 -32q-92 -80 -121 -105q-47 -41 -75 -72q14 -22 39 -23q15 0 114 -32q87 -27 87 -62z" />
    <glyph glyph-name="guilsinglright" unicode="&#x203a;" horiz-adv-x="396" 
d="M346 301q0 -24 -38 -51q-1 0 -6.5 -4t-19.5 -14t-29 -20q-56 -37 -126 -93q-42 -35 -47 -35q-52 0 -52 50q0 25 16 40q91 63 195 140q-112 78 -183 128q-9 8 -9 37q0 35 21 42q6 -3 22 -8.5t25 -9.5l19 -19q46 -17 98 -55l10 -10t11 -10l69 -42q17 -10 22 -41
q2 -16 2 -25z" />
    <glyph glyph-name="fraction" unicode="&#x2044;" horiz-adv-x="529" 
d="M566 781q0 -25 -21 -48q-14 -14 -31 -30q-6 -12 -29 -39q-133 -102 -216 -203q-298 -355 -330 -520h-51q-5 16 -15 34q-9 15 -9 24q0 22 29 98q27 67 36 81l69 107q43 65 171 223q46 56 122 143q24 24 146 127q82 70 100 70q10 0 20 -31q9 -27 9 -36z" />
    <glyph glyph-name="Euro" unicode="&#x20ac;" horiz-adv-x="872" 
d="M894 298q-3 -17 -26 -48q-34 -9 -72 -12q-25 -3 -182 -11q-86 -6 -128 -11l-39 -10q-7 0 -18 1q-11 2 -19 2q-19 0 -76 -10q-55 -8 -70 -13q-1 1 -2 0t-1.5 -2.5t-0.5 -4.5q0 -26 90 -47q10 -7 14 -9q84 -20 172 -20q27 0 100 4l100 4q33 2 89 -18q14 -13 14 -34
q0 -38 -34 -41q-266 -29 -326 -29q-137 0 -236 64q-4 5 -23 20q-28 9 -32 11q-16 13 -39 47q6 37 -15 46q-41 13 -61 13q-3 0 -5 -2q-2 -3 -4 -3q-30 0 -45 56q0 6 13 42q36 0 46 -1l15 -2l39 9q5 4 14 28q-39 3 -45 6q-28 13 -28 63q0 43 43 43q6 0 31 -4q27 -4 33 -4
q25 0 69 35q55 45 71 55q103 61 197 84q25 13 73 30q39 9 124 9q23 0 37 -28q10 -20 10 -33q0 -18 -16 -33q-17 -16 -34 -16h-2q-2 1 -5 1.5t-6 0.5q-8 2 -13 2q-109 0 -257 -89q7 -10 21 -10q2 0 7.5 1t16.5 2.5t21 3.5q46 6 74 8q148 9 201 9q8 0 65 -18q18 -5 35 -23
q2 -2 2 -16q0 -16 -17 -26q-17 -11 -39 -11l-3 1q-3 0 -8.5 0.5t-12.5 0.5q-14 1 -25 1q-71 0 -238 -17q-12 -5 -24 -7q-73 -1 -205 -12q-9 -1 -26 -28q9 -3 42 -3l351 28q4 0 21.5 -0.5t30.5 -0.5l51 -2q3 0 16 3q12 4 15 4l60 -9q11 -1 34 -20z" />
    <glyph glyph-name="trademark" unicode="&#x2122;" horiz-adv-x="595" 
d="M638 788q0 -2 -6 -29q-6 -29 -6 -33q-5 -47 -14 -82q-3 -18 -31 -18q-31 0 -31 89v8q-2 0 -10 4q-15 -8 -39 -29q-48 -53 -78 -53q-9 0 -67 73q-13 -13 -21 -41l-11 -34q-7 -10 -20 -10h-24q-22 47 -22 52q0 1 12 42q12 39 12 41q0 8 -13 8q-51 0 -71 -17
q-13 -55 -31 -143q-3 -17 -33 -17q-17 0 -31 17q-4 4 -4 34l-4 10v-3q0 32 14 91q-2 1 -9 1q-2 0 -17 -6t-17 -6q-23 0 -34 28q-8 22 -5 33q27 23 76 33q95 20 203 20q40 0 63 -25l37 -60q14 -23 24 -23q21 13 89 69q24 19 71 42q11 -5 32 -19q16 -19 16 -47z" />
    <glyph glyph-name="Omega" unicode="&#x2126;" horiz-adv-x="1126" 
d="M1076 187q0 22 -44 48q-37 23 -49 23q-2 0 -12 1.5t-22 2.5t-25 2l-41 4q-18 0 -56 -11q-47 -12 -47 -29q0 -26 64 -66q58 -36 84 -36q45 0 97 20q51 30 51 41zM1168 158q0 -28 -57 -64q-39 -25 -64 -34q-68 -7 -89 -21h-46q-62 0 -108 27q-24 12 -58 49q-26 27 -32 27
q-3 0 -14 -4l-6 -2t-5 -2h-2q-7 0 -24 11q-15 10 -28 17q3 12 3 23q0 5 -2 17q-20 10 -91 10q-122 0 -192 -16q-16 -4 -16 -17q0 -1 6 -12q5 -10 5 -12l-1 -35l22 -89v1q0 -13 -11 -27q-13 -13 -23 -13h-3q-3 1 -9 2.5t-12 2.5q-19 4 -26 4q-21 27 -35 74l-21 76q2 14 2 28
l-11 11l-69 -11q-43 -5 -49 -5q-36 0 -62 16q-28 17 -28 38q0 17 18 32q16 16 36 16l8 -2q6 -2 8 -2l61 7l45 3q31 3 37 13l14 100q7 57 25 108q40 107 74 154q33 43 128 101q14 8 65 18q55 12 75 12l5 -1q5 -1 17.5 -4t25.5 -6q36 -8 47 -11q18 -7 44 -32q27 -26 33 -42
l7 -35q0 -2 4 -13q4 -9 4 -15q0 -27 -30 -35q-11 3 -26 23l-22 30q-14 13 -75 41q-2 1 -31 1q-31 0 -95 -29q-28 -13 -68 -55q-38 -41 -52 -75q-4 -3 -15 -16q-45 -151 -43 -212q19 -11 48 -11q4 0 42 6q11 2 21 3.5t14.5 2.5t5.5 1q2 0 10 -5l10 -4q59 0 94 3q9 0 44 -3
l32 -4q34 0 53 17q26 23 57 32q66 22 161 22q73 0 110 -19q7 -3 31 -17t42 -24q25 -13 33 -52q7 -41 11 -63q13 -20 13 -29z" />
    <glyph glyph-name="partialdiff" unicode="&#x2202;" horiz-adv-x="1688" 
d="M949 247q-23 33 -105 33q-16 0 -63 -5q-9 -1 -31 -17q-21 -16 -21 -23q0 -9 17 -37q21 -33 36 -33q24 0 120 45q20 10 47 37zM1757 299q0 -17 -32 -29q-30 -13 -71 -13l-114 6l-114 5q-45 3 -72 -18q-3 -16 -7 -31q2 -10 2 -16q0 -26 -28 -83q-31 -69 -118 -93
q-71 -20 -208 -20q-87 0 -136 15q-20 2 -46 6q-18 6 -50 22q-31 16 -36 16q-6 0 -54 -12q-68 -17 -74 -18q-111 -21 -206 -21h-80q-50 0 -54 2q-10 2 -33.5 8t-36.5 9q-15 0 -41 6l-5 4q-5 3 -16 10.5t-22 15.5q-10 3 -39 22q-14 14 -30 48q-17 31 -17 47q0 25 64 95
q34 24 78 32q132 25 174 25q17 0 46 -1l47 -2q48 -3 52 10q16 44 26 146q4 60 6 79q9 70 49 70q9 0 40 -14q0 -1 0.5 -4.5t1 -10t0.5 -13.5l2 -26l-32 -291q0 -15 -94 -46q-1 0 -8.5 0.5t-24 1.5t-35.5 2l-67 4q-2 0 -25.5 -4t-45.5 -6q-5 -1 -31 -3t-48 -5q-65 -7 -65 -42
q0 -8 22 -26q27 -21 41 -28q59 -28 163 -28q110 0 188 9q46 12 114 22q3 15 1 17q-17 36 -17 61q0 21 13 53q45 104 194 104q49 0 106 -17q55 -16 76 -40q12 -12 12 -41q0 -32 -30 -67q-19 -20 -58 -45l-73 -46q6 -6 21 -13q32 -9 62 -9h2q3 0 9.5 0.5t15 0.5t21.5 0.5
t28 0.5l77 3q42 2 73 12q53 15 56 40l1 4l4 10q5 10 5 15v113q0 3 6 15l5 11q84 48 148 48q77 0 151 -13q17 -5 61 -13q15 -6 39 -11q3 -3 11 -9q25 0 80 -18z" />
    <glyph glyph-name="Delta" unicode="&#x2206;" horiz-adv-x="594" 
d="M386 130l-61 144q-3 5 -16 5q-15 -30 -51 -79q-25 -27 -63 -77q3 0 10 -5l33 4q39 0 148 8zM546 61q0 -17 -24 -31q-25 -12 -60 -11q-75 1 -54 3q-81 -5 -358 -19q-18 13 -19 22q-5 23 -5 36q0 22 10 36q32 44 83 103q5 6 37.5 42.5t59.5 67.5q6 22 16 47q39 52 51 52
q14 0 82 -41q7 -5 24 -25l12 -38q10 -12 25 -37q3 -7 29 -61q1 0 56 -71q35 -46 35 -75z" />
    <glyph glyph-name="product" unicode="&#x220f;" horiz-adv-x="794" 
d="M751 190q0 -22 -13 -59q-2 -3 12 -50q12 -43 6 -56q-13 -25 -77 -25q-23 0 -44 15t-21 33q0 1 1.5 9t4.5 26.5t6 38.5l10 74q0 26 -30 31q-122 16 -113 17q-10 0 -96 -9q-16 -2 -37 -83q0 -1 0.5 -4t1 -8.5t0.5 -11.5q0 -7 -7 -17q0 -25 -3 -77q-8 -11 -22 -34l-18 6
q-16 6 -21 6q-12 0 -18 -4q-21 27 -22 57q0 4 -1 11.5t-1.5 20t-1.5 22.5q-4 4 -7 4q9 11 21 33q6 20 6 47v27l-4 4q-4 5 -18 5q-1 0 -48 -5q-42 -6 -48 -6q-15 0 -61 7q-40 8 -43 12l-20 42q0 8 14 20q14 11 25 13q82 8 160 8q4 0 10 -1q7 -2 15 -2q51 0 58 18
q10 35 67 182q2 4 12.5 32t19.5 51q33 79 76 79q40 0 40 -51q0 -23 -33 -93q-3 -7 -14.5 -31.5t-19.5 -43.5q-15 -35 -37 -133q40 -15 70 -15q2 0 22 3q5 0 10.5 0.5t8 1t3.5 0.5l37 -9q41 -9 47 -8q4 0 12 0.5t12 0.5q121 0 121 -60q0 -11 -5 -33q-1 -5 -1.5 -9.5
t-1.5 -7.5t-1.5 -5.5t-0.5 -3.5v-2zM779 511q0 -10 -38 -44q-10 14 -29 16q-20 3 -29 9q0 6 -5 18q-4 15 -4 19q0 13 16 25q17 11 37 11q19 0 52 -54z" />
    <glyph glyph-name="summation" unicode="&#x2211;" horiz-adv-x="1127" 
d="M354 330l-7 2q-11 3 -22 3l-60 -13q-43 -12 -56 -34q12 -5 34 -5q2 0 65 17q38 9 46 30zM1135 330q0 -9 -23 -30q-22 -21 -34 -21q-123 0 -173 -7q-10 -2 -96 -2q-39 0 -51 -36q-6 -19 -14 -120q-58 -56 -89 -56q-1 0 -4 3q-4 2 -7 2q-5 -2 -13 -7q-167 -49 -206 -49
h-114l-3 1q-3 0 -9 1.5t-12 2.5q-22 5 -26 6q-113 10 -205 93q-3 9 -9 24q-30 48 -30 71q0 32 17 75q18 43 34 55q68 49 143 75q79 30 141 30q34 0 69 -10q17 -5 44 -63q17 -35 17 -44q0 -24 -25 -67t-44 -51q-13 -3 -69 -15q-29 -13 -42 -13q-59 0 -99 -8l-8 -8
q9 -20 78 -32q44 -8 93 -8h57q73 0 142 22q95 30 95 79q0 3 -3 19q-4 16 -4 23q0 55 51 87q35 22 157 22q124 0 181 -18q6 2 17 0q23 -5 37 -14q8 4 34 4l2 -6q3 -9 3 -10z" />
    <glyph glyph-name="minus" unicode="&#x2212;" horiz-adv-x="820" 
d="M770 244q0 -50 -130 -50h-4q-5 1 -15.5 1.5t-21.5 0.5q-25 2 -41 2q-1 0 -26 -5q-21 -6 -38 -8q-266 -26 -390 -26q-44 0 -87 24q-1 67 6 81q12 25 42 25q-4 0 1 -1h4q18 -2 34 -2q18 -1 52 -1h167q34 2 100 7l98 9q1 0 11 -1t32.5 -3.5t47.5 -4.5l90 -7q15 0 30 7
q38 -32 38 -48z" />
    <glyph glyph-name="radical" unicode="&#x221a;" horiz-adv-x="1214" 
d="M1300 695v-18q-33 -29 -121 -93q-74 -37 -127 -64q-57 -39 -181 -120l-39 -26q-15 -2 -33 -7q-12 -15 -35 -37q-37 -18 -104 -58q-87 -66 -117 -88l-125 -91q-3 -2 -122 -97q-112 -91 -130 -91q-9 0 -36 15q-28 15 -31 23q-6 23 -26 73q-63 92 -63 106q1 9 4 25
q3 25 3 30q18 11 39 11q28 0 64 -39q16 -16 58 -60l820 522q0 -4 12 -4l32 18q181 86 206 86q3 0 25 -8q24 -8 27 -8z" />
    <glyph glyph-name="infinity" unicode="&#x221e;" horiz-adv-x="946" 
d="M264 257q-40 26 -55 26q-31 0 -71 -13q-12 -6 -37 -16q-15 -4 -15 -23t29 -19q89 0 149 45zM802 262q0 16 -46 26q-31 7 -56 7q-33 0 -37 -1q-23 -7 -64 -18q-17 -4 -46 -13q-42 -15 -42 -32q0 -11 5 -11q123 -27 117 -27q41 0 96 18q73 22 73 51zM893 199q0 -25 -41 -56
q-11 -2 -23 -7q-12 -8 -46 -25q-66 -24 -100 -24q-85 0 -172 28q-21 7 -63 24q-9 2 -47 27q-27 18 -35 18q-5 0 -29 -12q-30 -16 -35 -17q-119 -41 -165 -41h-37q-22 0 -49 21q-27 22 -32 41q-7 18 -7 58q0 46 32 80q0 2 2 16q20 17 81 32q58 16 107 16q3 0 81 -37
q80 -37 84 -37q37 0 83 33q23 17 44 27q78 30 146 30q37 0 97 -16q32 -5 74 -18q24 -12 33 -62q17 -84 17 -99z" />
    <glyph glyph-name="integral" unicode="&#x222b;" horiz-adv-x="532" 
d="M570 740q0 -20 -15 -43q-14 -23 -29 -23q-21 10 -63 28q-62 28 -74 28q-51 0 -90 -84q-34 -73 -31 -111l32 -348q0 11 -9 -69q-9 -79 -9 -106q0 -259 -217 -259q-76 0 -133 33q-34 22 -46 68q-1 2 -1 23t5 34q0 4 10 4q6 0 23 -4l20 -5q37 -34 93 -34h45q29 0 49 19
q17 16 13 27q19 10 40 82q0 30 4 90q11 63 13 59q0 18 -4 71t-5 91q-3 72 -19 110v130q15 70 34 127q7 24 56 88q52 70 84 70q38 0 104 -20q29 -15 91 -44q29 -14 29 -32z" />
    <glyph glyph-name="approxequal" unicode="&#x2248;" horiz-adv-x="661" 
d="M607 207q0 -18 -5 -26q-36 -47 -73 -70q-25 -15 -45 -28q-39 -18 -91 -18q-1 0 -18 3q-16 4 -21 4q-40 0 -85 38q-12 10 -50 22q-44 14 -53 14q-13 -9 -39 -26q-39 -27 -52 -27q-20 0 -36 25q-10 19 -10 33q0 38 111 77q12 5 41 5q3 0 19 -6q7 -2 14 -5l8 -2q13 0 80 -30
q68 -30 82 -30q36 0 82 18q15 8 55 31q42 22 56 22h17q13 -30 13 -24zM599 334q0 -22 -22 -46q-79 -79 -188 -79q-23 0 -88 40t-81 40q-50 0 -82 -22q-26 -17 -79 -55q-21 6 -42 51v36q27 17 79 49q50 28 85 28q3 0 18 3q5 0 9.5 0.5t6.5 1t3 0.5q54 0 95 -22q21 -21 57 -48
q11 -7 33 -7q16 0 111 46q2 2 20 16q15 5 31 5q10 0 22 -14t12 -23z" />
    <glyph glyph-name="notequal" unicode="&#x2260;" horiz-adv-x="405" 
d="M367 243q0 -36 -62 -45q-11 -7 -23 -11q-31 -5 -60 -8q-2 0 -7 0.5t-8 0.5q-17 0 -39 -6q-12 -20 -95 -158q-9 -2 -22 -7q-15 18 -15 45q0 21 17 62q19 44 22 63q-40 3 -42 4q-22 4 -22 16q0 8 8 26q12 26 20 26h36l35 1q9 2 15 14q0 2 -3 11q-2 9 -4 9h-7t-15.5 -0.5
t-20.5 -0.5l-49 -2l-6 6q-9 15 -8 16q7 5 7 15q0 18 8 27q54 15 107 15q1 0 7 -2q2 -1 6 -1q37 0 69 41q57 99 84 99q35 0 35 -39q0 -27 -39 -78v-9q68 -12 68 -34q0 -13 -9 -26l-79 -8q-53 -6 -59 -37q5 -7 19 -7q4 0 14 2q11 0 28 2q24 3 26 3q63 0 63 -25z" />
    <glyph glyph-name="lessequal" unicode="&#x2264;" horiz-adv-x="478" 
d="M440 89q0 -11 -9 -30t-15 -21q-40 -9 -86 -10q-55 -4 -66 -6q-52 -12 -59 -12q-3 1 -8 2q-10 2 -11 2q-3 0 -57 -9q-16 -2 -30.5 -4t-20.5 -3l-6 -1q-55 0 -55 60q0 10 10 22q27 10 77 24q106 18 218 18q26 0 62 -7q56 -9 56 -25zM445 186q0 -44 -36 -44l-117 37h-1h-1
h-1l-1 1h-1h-1l-1 1h-1h-1h-1l-1 1h-1h-1l-1 1h-1h-1l-1 1h-1h-1l-1 1h-1h-1h-1l-1 1h-1l-1 1h-1h-1h-1l-1 1h-1h-1h-1l-1 1h-1l-1 1h-1h-1h-1l-1 1h-1h-1l-1 1h-1h-1l-1 1h-1h-1l-1 1h-1h-1h-1l-1 1h-1h-1l-1 1h-1h-1h-1v1h-1h-1l-1 1h-1h-1h-1l-1 1h-1h-1l-1 1h-1h-1h-1
l-1 1h-1h-1l-1 1h-1h-1l-1 1h-1h-1h-1l-1 1h-1h-1v1h-1h-1l-1 1h-1h-1h-1l-1 1h-1h-1l-1 1h-1h-1l-1 1h-1h-1h-1l-2 1l-42.5 8.5t-39.5 8.5q-43 12 -43 48q0 3 17 52q247 232 280 232q45 0 45 -46q0 -26 -6 -32q-43 -34 -120 -105q-21 -18 -77 -72q14 -22 41 -22
q4 -1 113 -33q88 -27 88 -63z" />
    <glyph glyph-name="greaterequal" unicode="&#x2265;" horiz-adv-x="447" 
d="M410 86q0 -35 -48 -44q-201 -37 -276 -37q-59 0 -59 46q0 4 5 22q6 16 7 16q121 34 304 34q5 0 17 -5q13 -4 18 -4q3 0 15 3q17 -22 17 -31zM413 377q0 -25 -38 -51l-12 -8t-20.5 -14t-22.5 -16q-169 -127 -172 -127q-53 0 -53 49q0 27 17 39q68 48 195 141l-141 101
q-9 6 -9 38q0 35 21 42q4 -2 47 -19q4 -5 18 -17q40 -17 57 -30q13 -13 20 -21l69 -41q19 -13 22 -41q2 -8 2 -25z" />
    <glyph glyph-name="lozenge" unicode="&#x25ca;" horiz-adv-x="573" 
d="M373 287q0 13 -40 35q-37 22 -54 32l-62 -58q-40 -36 -50 -66q79 -49 90 -49q11 4 17 5q23 18 63 58q36 38 36 43zM519 283q0 -19 -39 -51q-4 -4 -21.5 -17.5t-30.5 -24.5q-48 -45 -97 -89q-39 -34 -36 -49q-22 -5 -24 -5q-17 0 -53 51q-7 4 -40.5 19.5t-60.5 28.5
q-91 46 -91 79v3q1 2 2.5 7.5t2.5 10.5q6 21 6 22q114 99 174 171q15 5 19 5q3 0 11 -4q3 -1 6 -3l5 -1q2 0 25 6t25 6q0 -1 11 -7q80 -34 176 -101q30 -21 30 -57z" />
    <glyph glyph-name="apple" unicode="&#xf8ff;" horiz-adv-x="1266" 
d="M1203 177q-3 0 -16 3q-13 4 -16 4q-60 0 -169 -41q-79 -30 -87 -34q-88 -39 -88 -109q0 -23 17 -34q1 1 5 1q1 -1 5 -3.5t10.5 -8t13.5 -10.5q15 -10 35 -33q12 -21 60 -42q24 -11 73 -35l1 -6q6 -31 -18 -55q-35 -35 -214 -141l-138 -20q-52 -7 -59 -7q-126 0 -180 27
q-12 6 -52 46l-40 40q-29 20 -109 50q-92 37 -103 44q-44 25 -73 81q-28 53 -28 116q0 92 72 217q62 105 163 153q61 29 137 29q-5 0 10 -5l40 -13q27 -3 93 -17l45 -22q17 -8 51 -8q20 49 20 68q0 3 -11 56q-12 50 -12 55q0 7 3 11q27 68 98 138q70 68 144 100
q37 16 213 56q1 0 5.5 1.5t11.5 3.5t15 5q21 7 32 7q40 0 40 -41q0 -3 -8 -21q-11 -23 -15 -43q-7 -26 -12 -38q-44 -100 -181 -194q-64 -44 -232 -155q8 -17 32 -29q7 10 35 31q41 17 102 31q65 16 102 16q41 0 89 -13q46 -11 72 -28q25 -19 46 -65q20 -46 20 -84
q0 -10 -2 -14q-9 -21 -48 -21z" />
    <glyph glyph-name="fi" unicode="&#xfb01;" horiz-adv-x="687" 
d="M709 623l-12 -29q2 -18 -2 -42q-12 -27 -47 -27q-90 0 -90 46q0 3 12 25q12 21 12 31q0 7 -5 14q-40 19 -115 19q-54 0 -78 -9q-58 -21 -86 -112q-22 -65 -22 -137q0 -42 6 -50q12 -13 55 -12l260 17q1 0 24 -6q21 -7 29 -7l13 -62q0 -33 -27 -120q-18 -56 -28 -79
q-3 -5 -9.5 -16t-9.5 -16q-6 -11 -19 -13q-20 7 -28 17q-14 18 -14 64q0 3 15 64q4 17 8.5 34t6 24t1.5 8q0 14 -16 14q-74 0 -232 -25q-26 -5 -21 -29l32 -165q0 -6 -11 -30q-13 -28 -28 -28q-17 0 -24 10q-19 22 -22 23q-17 96 -31 185q-4 34 -83 34h-3q-4 -1 -11 -2.5
t-15 -2.5q-27 -6 -30 -6q-16 0 -31 18q-16 17 -16 35q0 26 29 54q16 -2 27 -2q63 0 79 3q39 6 41 32q-5 33 -3 98q9 49 46 176q20 47 66 78q46 34 95 34q2 0 7.5 0.5t16 1t19.5 0.5l37 3q71 5 122 -13q29 -13 50 -34q7 -6 20 -19t20 -19q19 -54 20 -50z" />
    <glyph glyph-name="fl" unicode="&#xfb02;" horiz-adv-x="733" 
d="M765 688q0 -30 -41 -171q-33 -114 -34 -138q-1 -8 -2 -24q-1 -5 -8 -28q-3 -61 -17 -213q-9 -16 -19 -47q-3 -27 -6 -44q-22 -24 -49 -24q-4 0 -23 11q-21 12 -25 12v41q0 1 6 15q6 15 6 17l20 136q0 23 -25 23q-181 0 -331 -64q23 -89 23 -109q0 -5 -43 -47
q-41 14 -58 59q-5 15 -21 75q-17 3 -38 0l-23 -5q-21 0 -35 24q-10 16 -10 25q0 46 24 56q16 5 39 8q21 3 27 17q5 12 5 47q0 54 2 66q19 147 74 237q15 23 51 43q2 15 20 33t37 26q28 7 125 27q8 2 41 2q189 0 189 -124q0 -15 -11 -28q-10 -13 -25 -13q-14 0 -28 17
q-21 26 -26 29q-25 17 -76 17q-61 0 -133 -21q-49 -15 -87 -81q-38 -67 -47 -153q-6 -6 -10 -18v-83q9 -6 17 -6l5 1q5 1 17.5 4t24.5 6q45 12 48 12q2 0 6 -2q2 -2 6 -2q5 0 54 16q51 15 54 15q1 0 27 -3q23 -4 27 -4q25 0 99 12q12 9 16 29q9 57 54 229q1 3 11.5 40.5
t18.5 69.5q6 21 34 21q14 0 23 -10q20 -26 20 -56z" />
  </font>
</defs>
</svg>
